#define engine_width 16
#define engine_height 16
static unsigned char engine_bits[] = {
  0x00, 0x00, 0xe0, 0x07, 0xe0, 0x07, 0x80, 0x01, 0xe0, 0x07, 0x80, 0x01,
  0xc0, 0x03, 0xe0, 0x07, 0xf0, 0x0f, 0x38, 0x1c, 0x18, 0x18, 0x18, 0x18,
  0x18, 0x18, 0x18, 0x18, 0x30, 0x0c, 0xe0, 0x07, };
