#define light_width 16
#define light_height 16
static char light_bits[] = {
 0x80,0x01,0x00,0x00,0x04,0x20,0x80,0x01,0xe0,0x07,0xf0,0x0f,0xf0,0x0f,0xf9,
 0x9f,0xf9,0x9f,0xf0,0x0f,0xf0,0x0f,0xe0,0x07,0xc0,0x03,0xc4,0x23,0xc0,0x03,
 0x00,0x00};
