#define sun_width 16
#define sun_height 16
static unsigned char sun_bits[] = {
  0x40, 0x02, 0x42, 0x42, 0x04, 0x20, 0xe0, 0x07, 0x30, 0x0c, 0x18, 0x18,
  0x0b, 0xd0, 0x08, 0x10, 0x08, 0x10, 0x0b, 0xd0, 0x18, 0x18, 0x30, 0x0c,
  0xe0, 0x07, 0x04, 0x20, 0x42, 0x42, 0x40, 0x02, };
