#define warn_width 16
#define warn_height 16
static char warn_bits[] = {
 0x00,0x00,0x00,0x00,0x80,0x01,0xc0,0x03,0x40,0x02,0x60,0x06,0xa0,0x05,0xb0,
 0x0d,0x98,0x19,0x08,0x10,0x0c,0x30,0x84,0x21,0x06,0x60,0xfe,0x7f,0x00,0x00,
 0x00,0x00};
