M48
; DRILL file {KiCad 6.0.6} date Thu Mar 30 16:49:40 2023
; FORMAT={-:-/ absolute / inch / decimal}
; #@! TF.CreationDate,2023-03-30T16:49:40+02:00
; #@! TF.GenerationSoftware,Kicad,Pcbnew,6.0.6
; #@! TF.FileFunction,MixedPlating,1,2
FMAT,2
INCH
; #@! TA.AperFunction,Plated,PTH,ViaDrill
T1C0.0276
; #@! TA.AperFunction,Plated,PTH,ComponentDrill
T2C0.0276
; #@! TA.AperFunction,Plated,PTH,ComponentDrill
T3C0.0315
; #@! TA.AperFunction,Plated,PTH,ComponentDrill
T4C0.0394
; #@! TA.AperFunction,Plated,PTH,ViaDrill
T5C0.0512
; #@! TA.AperFunction,Plated,PTH,ComponentDrill
T6C0.0512
; #@! TA.AperFunction,Plated,PTH,ComponentDrill
T7C0.0787
; #@! TA.AperFunction,Plated,PTH,ComponentDrill
T8C0.1260
; #@! TA.AperFunction,NonPlated,NPTH,ComponentDrill
T9C0.1063
%
G90
G05
T1
X2.2165Y-4.002
X2.87Y-4.3396
X2.872Y-4.5413
X3.247Y-3.3789
X3.2973Y-3.4665
X4.285Y-4.64
X4.3157Y-3.4048
X4.4Y-3.41
X4.5433Y-4.8327
X4.5481Y-4.9528
X4.55Y-5.03
X4.9211Y-4.61
X5.26Y-4.31
X5.26Y-4.445
X5.35Y-3.45
X5.5906Y-4.4508
X5.66Y-4.155
X5.7953Y-4.8386
X5.7953Y-4.9606
T2
X4.55Y-3.66
X5.05Y-3.66
X5.16Y-3.66
X5.66Y-3.66
T3
X2.715Y-3.23
X2.715Y-3.53
X2.865Y-3.23
X2.865Y-3.53
T4
X2.4591Y-3.3465
X2.4591Y-3.4465
X2.4591Y-3.5465
X2.4591Y-3.6465
X2.4591Y-3.7465
X2.5591Y-3.3465
X2.5591Y-3.4465
X2.5591Y-3.5465
X2.5591Y-3.6465
X2.5591Y-3.7465
X4.7244Y-3.3465
X4.7244Y-3.4465
X4.8244Y-3.3465
X4.8244Y-3.4465
X4.9244Y-3.3465
X4.9244Y-3.4465
X5.0244Y-3.3465
X5.0244Y-3.4465
X5.1244Y-3.3465
X5.1244Y-3.4465
T5
X2.22Y-5.165
X2.3071Y-3.7461
X2.5098Y-5.3976
X2.5335Y-3.8524
X2.6929Y-4.0157
X2.8819Y-4.0157
X3.0236Y-4.9134
X3.0256Y-4.6752
X3.9094Y-4.6358
X4.318Y-5.29
X4.5374Y-3.3425
X5.195Y-5.29
X5.872Y-3.9843
X5.915Y-5.29
T6
X3.2242Y-5.17
X3.7326Y-5.5911
X4.1074Y-5.5911
X4.11Y-5.17
X4.4806Y-5.5911
X4.8554Y-5.5911
X5.2318Y-5.5911
X5.6066Y-5.5911
T7
X3.0326Y-3.9083
X4.2137Y-3.9083
T8
X2.1654Y-3.3465
X2.1654Y-5.7087
X6.1024Y-3.3465
X6.1024Y-5.7087
T9
X3.6671Y-5.17
T0
M30
