M48
; DRILL file {KiCad 6.0.6} date Tue Feb 28 14:47:08 2023
; FORMAT={-:-/ absolute / inch / decimal}
; #@! TF.CreationDate,2023-02-28T14:47:08+01:00
; #@! TF.GenerationSoftware,Kicad,Pcbnew,6.0.6
; #@! TF.FileFunction,MixedPlating,1,2
FMAT,2
INCH
; #@! TA.AperFunction,Plated,PTH,ViaDrill
T1C0.0236
; #@! TA.AperFunction,Plated,PTH,ComponentDrill
T2C0.0276
; #@! TA.AperFunction,Plated,PTH,ComponentDrill
T3C0.0394
; #@! TA.AperFunction,Plated,PTH,ComponentDrill
T4C0.0512
; #@! TA.AperFunction,Plated,PTH,ComponentDrill
T5C0.0787
; #@! TA.AperFunction,Plated,PTH,ComponentDrill
T6C0.1260
; #@! TA.AperFunction,NonPlated,NPTH,ComponentDrill
T7C0.1063
%
G90
G05
T1
X2.105Y-4.785
X2.105Y-5.05
X2.225Y-3.635
X2.29Y-3.85
X2.36Y-3.98
X2.46Y-3.93
X2.64Y-5.264
X2.68Y-4.02
X2.87Y-4.3396
X2.87Y-4.4148
X2.87Y-4.575
X2.87Y-4.675
X2.876Y-5.148
X2.982Y-5.148
X3.41Y-5.78
X4.285Y-4.64
X4.318Y-5.29
X4.34Y-3.33
X4.4Y-3.41
X4.52Y-3.34
X4.5481Y-4.9272
X4.55Y-5.0024
X4.56Y-4.8
X4.9211Y-4.61
X5.195Y-5.29
X5.26Y-4.31
X5.26Y-4.445
X5.35Y-3.45
X5.8Y-4.925
X5.805Y-4.815
X5.83Y-4.57
X5.915Y-5.29
X6.0Y-4.475
T2
X2.715Y-3.27
X2.715Y-3.67
X2.865Y-3.27
X2.865Y-3.67
X4.55Y-3.66
X5.05Y-3.66
X5.16Y-3.66
X5.66Y-3.66
T3
X2.4591Y-3.3465
X2.4591Y-3.4465
X2.4591Y-3.5465
X2.4591Y-3.6465
X2.4591Y-3.7465
X2.5591Y-3.3465
X2.5591Y-3.4465
X2.5591Y-3.5465
X2.5591Y-3.6465
X2.5591Y-3.7465
X4.7244Y-3.3465
X4.7244Y-3.4465
X4.8244Y-3.3465
X4.8244Y-3.4465
X4.9244Y-3.3465
X4.9244Y-3.4465
X5.0244Y-3.3465
X5.0244Y-3.4465
X5.1244Y-3.3465
X5.1244Y-3.4465
T4
X3.2242Y-5.17
X3.7326Y-5.5911
X4.1074Y-5.5911
X4.11Y-5.17
X4.5226Y-5.5911
X4.8974Y-5.5911
X5.3126Y-5.5911
X5.6874Y-5.5911
T5
X3.0326Y-3.9083
X4.2137Y-3.9083
T6
X2.1654Y-3.3465
X2.1654Y-5.7087
X6.1024Y-3.3465
X6.1024Y-5.7087
T7
X3.6671Y-5.17
T0
M30
