<?xml version="1.0" encoding="UTF-8" standalone="no"?>
<svg
   version="1.1"
   width="29.700220cm"
   height="21.000720cm"
   viewBox="0 0 297002200 210007200"
   id="svg186"
   sodipodi:docname="display-B_Mask.svg"
   inkscape:version="1.2.1 (9c6d41e410, 2022-07-14)"
   xmlns:inkscape="http://www.inkscape.org/namespaces/inkscape"
   xmlns:sodipodi="http://sodipodi.sourceforge.net/DTD/sodipodi-0.dtd"
   xmlns="http://www.w3.org/2000/svg"
   xmlns:svg="http://www.w3.org/2000/svg">
  <defs
     id="defs190" />
  <sodipodi:namedview
     id="namedview188"
     pagecolor="#ffffff"
     bordercolor="#666666"
     borderopacity="1.0"
     inkscape:showpageshadow="2"
     inkscape:pageopacity="0.0"
     inkscape:pagecheckerboard="0"
     inkscape:deskcolor="#d1d1d1"
     inkscape:document-units="cm"
     showgrid="false"
     inkscape:zoom="5.8638465"
     inkscape:cx="732.96598"
     inkscape:cy="495.83494"
     inkscape:window-width="1447"
     inkscape:window-height="1080"
     inkscape:window-x="69"
     inkscape:window-y="-39"
     inkscape:window-maximized="0"
     inkscape:current-layer="svg186" />
  <title
     id="title2">SVG Picture created as display-B_Mask.svg date 2023/03/06 11:12:55 </title>
  <desc
     id="desc4">Picture generated by PCBNEW </desc>
  <g
     style="fill:#00ff00;fill-opacity:1;stroke:none;stroke-opacity:1;stroke-linecap:round;stroke-linejoin:round"
     transform="translate(0 0) scale(1 1)"
     id="g6" />
  <g
     style="fill:#00ff00;fill-opacity:1;stroke:none;stroke-width:0;stroke-opacity:1;stroke-linecap:round;stroke-linejoin:round"
     id="g8" />
  <path
     d="m 242002200,112500000 a 7500000,7500000 0 0 0 -15000000,0"
     id="path10"
     style="fill:none;fill-opacity:0;stroke:#00ffff;stroke-width:100000;stroke-linecap:round;stroke-linejoin:round;stroke-opacity:1" />
  <path
     d="m 227002200,127500000 a 7500000,7500000 0 0 0 15000000,0"
     id="path12"
     style="fill:none;fill-opacity:0;stroke:#00ffff;stroke-width:100000;stroke-linecap:round;stroke-linejoin:round;stroke-opacity:1" />
  <path
     d="m 242002200,112500000 v 15000000"
     id="path14"
     style="fill:none;fill-opacity:0;stroke:#00ffff;stroke-width:100000;stroke-linecap:round;stroke-linejoin:round;stroke-opacity:1" />
  <path
     d="m 227002200,112500000 v 15000000"
     id="path16"
     style="fill:none;fill-opacity:0;stroke:#00ffff;stroke-width:100000;stroke-linecap:round;stroke-linejoin:round;stroke-opacity:1" />
  <path
     style="fill:none;fill-opacity:0;stroke:#00ffff;stroke-width:10000.00158334;stroke-linecap:round;stroke-linejoin:round;stroke-opacity:1;stroke-dasharray:none"
     d="m 137002200,150000000 h 10000000 v -14000000 h 61000000 v 14000000 h 39000000 V 80000000 H 137002200 Z"
     id="path18" />
  <g
     id="g20"
     style="fill:#00ff00;fill-opacity:1;stroke:none;stroke-width:100000;stroke-linecap:round;stroke-linejoin:round;stroke-opacity:1" />
  <g
     style="fill:#00ff00;stroke:none;stroke-linecap:round;stroke-linejoin:round;fill-opacity:1"
     id="g24">
    <g
       id="circle22"
       style="fill:#00ff00;fill-opacity:1;stroke:none">
      <path
         style="color:#000000;stroke:none;stroke-linecap:butt;stroke-linejoin:miter;-inkscape-stroke:none;fill:#00ff00;fill-opacity:1"
         d="m 145102210,145000000 a 3100000,3100000 0 0 1 -3100000,3100000 3100000,3100000 0 0 1 -3100000,-3100000 3100000,3100000 0 0 1 3100000,-3100000 3100000,3100000 0 0 1 3100000,3100000 z"
         id="path2067" />
      <path
         style="color:#000000;stroke:none;stroke-linecap:butt;stroke-linejoin:miter;-inkscape-stroke:none;fill:#00ff00;fill-opacity:1"
         d="m 142002210,141900000 c -203060,0 -405620,19950 -604780,59570 -199160,39610 -393940,98700 -581540,176400 -187600,77710 -367110,173660 -535950,286470 -168830,112820 -326180,241950 -469760,385530 -143580,143580 -272710,300930 -385530,469760 -112810,168840 -208760,348350 -286470,535950 -77700,187600 -136790,382380 -176400,581540 -39620,199160 -59570,401720 -59570,604780 0,203060 19950,405620 59570,604780 39610,199160 98700,393940 176400,581540 77710,187600 173660,367110 286470,535950 112820,168830 241950,326180 385530,469760 143580,143590 300930,272710 469760,385530 168840,112810 348350,208760 535950,286470 187600,77700 382380,136790 581540,176410 199160,39610 401720,59560 604780,59560 203060,0 405620,-19950 604780,-59560 199160,-39620 393940,-98710 581540,-176410 187600,-77710 367110,-173660 535950,-286470 168830,-112820 326180,-241940 469760,-385530 143590,-143580 272710,-300930 385530,-469760 112810,-168840 208760,-348350 286470,-535950 77700,-187600 136790,-382380 176410,-581540 39610,-199160 59560,-401720 59560,-604780 0,-203060 -19950,-405620 -59560,-604780 -39620,-199160 -98710,-393940 -176410,-581540 -77710,-187600 -173660,-367110 -286470,-535950 -112820,-168830 -241940,-326180 -385530,-469760 -143580,-143580 -300930,-272710 -469760,-385530 -168840,-112810 -348350,-208760 -535950,-286470 -187600,-77700 -382380,-136790 -581540,-176400 -199160,-39620 -401720,-59570 -604780,-59570 z m 0,0 c 203060,0 405620,19950 604780,59570 199160,39610 393940,98700 581540,176400 187600,77710 367110,173660 535950,286480 168830,112810 326180,241940 469760,385520 143580,143580 272710,300930 385530,469760 112810,168840 208760,348350 286470,535950 77700,187600 136790,382380 176400,581540 39620,199160 59570,401720 59570,604780 0,203060 -19950,405620 -59570,604780 -39610,199160 -98700,393940 -176400,581540 -77710,187600 -173660,367110 -286470,535950 -112820,168830 -241950,326180 -385530,469760 -143580,143580 -300930,272710 -469760,385530 -168840,112810 -348350,208760 -535950,286470 -187600,77700 -382380,136790 -581540,176400 -199160,39620 -401720,59570 -604780,59570 -203060,0 -405620,-19950 -604780,-59570 -199160,-39610 -393940,-98700 -581540,-176400 -187600,-77710 -367110,-173660 -535950,-286470 -168830,-112820 -326180,-241950 -469760,-385530 -143580,-143580 -272710,-300930 -385520,-469760 -112820,-168840 -208770,-348350 -286480,-535950 -77700,-187600 -136790,-382380 -176400,-581540 -39620,-199160 -59570,-401720 -59570,-604780 0,-203060 19950,-405620 59570,-604780 39610,-199160 98700,-393940 176400,-581540 77710,-187600 173660,-367110 286480,-535950 112810,-168830 241940,-326180 385520,-469760 143580,-143580 300930,-272710 469760,-385520 168840,-112820 348350,-208770 535950,-286480 187600,-77700 382380,-136790 581540,-176400 199160,-39620 401720,-59570 604780,-59570 z"
         id="path2069" />
    </g>
  </g>
  <g
     style="fill:#00ff00;fill-opacity:1;stroke:none;stroke-width:21200;stroke-linecap:round;stroke-linejoin:round;stroke-opacity:1"
     id="g26" />
  <g
     id="g28"
     style="fill:#00ff00;fill-opacity:1;stroke:none;stroke-width:100000;stroke-linecap:round;stroke-linejoin:round;stroke-opacity:1" />
  <g
     style="fill:#00ff00;fill-opacity:1;stroke:none;stroke-width:21200;stroke-linecap:round;stroke-linejoin:round;stroke-opacity:1"
     id="g30" />
  <g
     style="fill:#00ff00;stroke:none;stroke-linecap:round;stroke-linejoin:round;fill-opacity:1"
     id="g34">
    <g
       id="circle32"
       style="fill:#00ff00;fill-opacity:1;stroke:none">
      <path
         style="color:#000000;stroke:none;stroke-linecap:butt;stroke-linejoin:miter;-inkscape-stroke:none;fill:#00ff00;fill-opacity:1"
         d="m 153102210,83410000 a 3100000,3100000 0 0 1 -3100000,3100000 3100000,3100000 0 0 1 -3100000,-3100000 3100000,3100000 0 0 1 3100000,-3100000 3100000,3100000 0 0 1 3100000,3100000 z"
         id="path2061" />
      <path
         style="color:#000000;stroke:none;stroke-linecap:butt;stroke-linejoin:miter;-inkscape-stroke:none;fill:#00ff00;fill-opacity:1"
         d="m 150002210,80310000 c -203060,0 -405620,19951 -604780,59565 -199160,39615 -393940,98701 -581540,176408 -187600,77707 -367110,173658 -535950,286471 -168830,112812 -326180,241941 -469760,385525 -143580,143583 -272710,300927 -385530,469763 -112810,168836 -208760,348349 -286470,535949 -77700,187601 -136790,382383 -176400,581539 -39620,199156 -59570,401723 -59570,604780 0,203057 19950,405624 59570,604780 39610,199156 98700,393938 176400,581539 77710,187600 173660,367113 286470,535949 112820,168836 241950,326180 385530,469763 143580,143584 300930,272713 469760,385525 168840,112813 348350,208764 535950,286471 187600,77707 382380,136793 581540,176408 199160,39614 401720,59566 604780,59566 203060,0 405620,-19952 604780,-59566 199160,-39615 393940,-98701 581540,-176408 187600,-77707 367110,-173658 535950,-286471 168830,-112812 326180,-241941 469760,-385525 143590,-143583 272710,-300927 385530,-469763 112810,-168836 208760,-348349 286470,-535949 77700,-187601 136790,-382383 176410,-581539 39610,-199156 59560,-401723 59560,-604780 0,-203057 -19950,-405624 -59560,-604780 -39620,-199156 -98710,-393938 -176410,-581539 -77710,-187600 -173660,-367113 -286470,-535949 -112820,-168836 -241940,-326180 -385530,-469763 -143580,-143584 -300930,-272713 -469760,-385525 -168840,-112813 -348350,-208764 -535950,-286471 -187600,-77707 -382380,-136793 -581540,-176408 -199160,-39614 -401720,-59565 -604780,-59565 z m 0,1 c 203060,0 405620,19951 604780,59565 199160,39615 393940,98701 581540,176408 187600,77707 367110,173658 535950,286471 168830,112812 326180,241941 469760,385524 143580,143584 272710,300927 385530,469764 112810,168836 208760,348348 286470,535949 77700,187600 136790,382382 176400,581538 39620,199156 59570,401723 59570,604780 0,203057 -19950,405624 -59570,604780 -39610,199156 -98700,393938 -176400,581538 -77710,187601 -173660,367113 -286470,535949 -112820,168837 -241950,326180 -385530,469764 -143580,143583 -300930,272712 -469760,385524 -168840,112813 -348350,208764 -535950,286471 -187600,77707 -382380,136793 -581540,176408 -199160,39614 -401720,59566 -604780,59566 -203060,0 -405620,-19952 -604780,-59566 -199160,-39615 -393940,-98701 -581540,-176408 -187600,-77707 -367110,-173658 -535950,-286471 -168830,-112812 -326180,-241941 -469760,-385524 -143580,-143584 -272710,-300927 -385520,-469764 -112820,-168836 -208770,-348348 -286480,-535949 -77700,-187600 -136790,-382382 -176400,-581538 -39620,-199156 -59570,-401723 -59570,-604780 0,-203057 19950,-405624 59570,-604780 39610,-199156 98700,-393938 176400,-581538 77710,-187601 173660,-367113 286480,-535949 112810,-168837 241940,-326180 385520,-469764 143580,-143583 300930,-272712 469760,-385524 168840,-112813 348350,-208764 535950,-286471 187600,-77707 382380,-136793 581540,-176408 199160,-39614 401720,-59565 604780,-59565 z"
         id="path2063" />
    </g>
  </g>
  <g
     style="fill:#00ff00;fill-opacity:1;stroke:none;stroke-width:21200;stroke-linecap:round;stroke-linejoin:round;stroke-opacity:1"
     id="g36" />
  <g
     style="fill:#00ff00;stroke:none;stroke-linecap:round;stroke-linejoin:round;fill-opacity:1"
     id="g40">
    <g
       id="circle38"
       style="fill:#00ff00;fill-opacity:1;stroke:none">
      <path
         style="color:#000000;stroke:none;stroke-linecap:butt;stroke-linejoin:miter;-inkscape-stroke:none;fill:#00ff00;fill-opacity:1"
         d="m 223102210,83410000 a 3100000,3100000 0 0 1 -3100000,3100000 3100000,3100000 0 0 1 -3100000,-3100000 3100000,3100000 0 0 1 3100000,-3100000 3100000,3100000 0 0 1 3100000,3100000 z"
         id="path2055" />
      <path
         style="color:#000000;stroke:none;stroke-linecap:butt;stroke-linejoin:miter;-inkscape-stroke:none;fill:#00ff00;fill-opacity:1"
         d="m 220002210,80310000 c -203060,0 -405620,19951 -604780,59565 -199160,39615 -393940,98701 -581540,176408 -187600,77707 -367110,173658 -535950,286471 -168830,112812 -326180,241941 -469760,385525 -143580,143583 -272710,300927 -385530,469763 -112810,168836 -208760,348349 -286470,535949 -77700,187601 -136790,382383 -176400,581539 -39620,199156 -59570,401723 -59570,604780 0,203057 19950,405624 59570,604780 39610,199156 98700,393938 176400,581539 77710,187600 173660,367113 286470,535949 112820,168836 241950,326180 385530,469763 143580,143584 300930,272713 469760,385525 168840,112813 348350,208764 535950,286471 187600,77707 382380,136793 581540,176408 199160,39614 401720,59566 604780,59566 203060,0 405620,-19952 604780,-59566 199160,-39615 393940,-98701 581540,-176408 187600,-77707 367110,-173658 535950,-286471 168830,-112812 326180,-241941 469760,-385525 143590,-143583 272710,-300927 385530,-469763 112810,-168836 208760,-348349 286470,-535949 77700,-187601 136790,-382383 176410,-581539 39610,-199156 59560,-401723 59560,-604780 0,-203057 -19950,-405624 -59560,-604780 -39620,-199156 -98710,-393938 -176410,-581539 -77710,-187600 -173660,-367113 -286470,-535949 -112820,-168836 -241940,-326180 -385530,-469763 -143580,-143584 -300930,-272713 -469760,-385525 -168840,-112813 -348350,-208764 -535950,-286471 -187600,-77707 -382380,-136793 -581540,-176408 -199160,-39614 -401720,-59565 -604780,-59565 z m 0,1 c 203060,0 405620,19951 604780,59565 199160,39615 393940,98701 581540,176408 187600,77707 367110,173658 535950,286471 168830,112812 326180,241941 469760,385524 143580,143584 272710,300927 385530,469764 112810,168836 208760,348348 286470,535949 77700,187600 136790,382382 176400,581538 39620,199156 59570,401723 59570,604780 0,203057 -19950,405624 -59570,604780 -39610,199156 -98700,393938 -176400,581538 -77710,187601 -173660,367113 -286470,535949 -112820,168837 -241950,326180 -385530,469764 -143580,143583 -300930,272712 -469760,385524 -168840,112813 -348350,208764 -535950,286471 -187600,77707 -382380,136793 -581540,176408 -199160,39614 -401720,59566 -604780,59566 -203060,0 -405620,-19952 -604780,-59566 -199160,-39615 -393940,-98701 -581540,-176408 -187600,-77707 -367110,-173658 -535950,-286471 -168830,-112812 -326180,-241941 -469760,-385524 -143580,-143584 -272710,-300927 -385520,-469764 -112820,-168836 -208770,-348348 -286480,-535949 -77700,-187600 -136790,-382382 -176400,-581538 -39620,-199156 -59570,-401723 -59570,-604780 0,-203057 19950,-405624 59570,-604780 39610,-199156 98700,-393938 176400,-581538 77710,-187601 173660,-367113 286480,-535949 112810,-168837 241940,-326180 385520,-469764 143580,-143583 300930,-272712 469760,-385524 168840,-112813 348350,-208764 535950,-286471 187600,-77707 382380,-136793 581540,-176408 199160,-39614 401720,-59565 604780,-59565 z"
         id="path2057" />
    </g>
  </g>
  <g
     style="fill:#00ff00;fill-opacity:1;stroke:none;stroke-width:21200;stroke-linecap:round;stroke-linejoin:round;stroke-opacity:1"
     id="g42" />
  <g
     style="fill:#00ff00;stroke:none;stroke-linecap:round;stroke-linejoin:round;fill-opacity:1"
     id="g46">
    <g
       id="circle44"
       style="fill:#00ff00;fill-opacity:1;stroke:none">
      <path
         style="color:#000000;stroke:none;stroke-linecap:butt;stroke-linejoin:miter;-inkscape-stroke:none;fill:#00ff00;fill-opacity:1"
         d="m 223102210,133110000 a 3100000,3100000 0 0 1 -3100000,3100000 3100000,3100000 0 0 1 -3100000,-3100000 3100000,3100000 0 0 1 3100000,-3100000 3100000,3100000 0 0 1 3100000,3100000 z"
         id="path2049" />
      <path
         style="color:#000000;stroke:none;stroke-linecap:butt;stroke-linejoin:miter;-inkscape-stroke:none;fill:#00ff00;fill-opacity:1"
         d="m 220002210,130010000 c -203060,0 -405620,19950 -604780,59570 -199160,39610 -393940,98700 -581540,176400 -187600,77710 -367110,173660 -535950,286470 -168830,112820 -326180,241950 -469760,385530 -143580,143580 -272710,300930 -385530,469760 -112810,168840 -208760,348350 -286470,535950 -77700,187600 -136790,382380 -176400,581540 -39620,199160 -59570,401720 -59570,604780 0,203060 19950,405620 59570,604780 39610,199160 98700,393940 176400,581540 77710,187600 173660,367110 286470,535950 112820,168830 241950,326180 385530,469760 143580,143590 300930,272710 469760,385530 168840,112810 348350,208760 535950,286470 187600,77700 382380,136790 581540,176410 199160,39610 401720,59560 604780,59560 203060,0 405620,-19950 604780,-59560 199160,-39620 393940,-98710 581540,-176410 187600,-77710 367110,-173660 535950,-286470 168830,-112820 326180,-241940 469760,-385530 143590,-143580 272710,-300930 385530,-469760 112810,-168840 208760,-348350 286470,-535950 77700,-187600 136790,-382380 176410,-581540 39610,-199160 59560,-401720 59560,-604780 0,-203060 -19950,-405620 -59560,-604780 -39620,-199160 -98710,-393940 -176410,-581540 -77710,-187600 -173660,-367110 -286470,-535950 -112820,-168830 -241940,-326180 -385530,-469760 -143580,-143580 -300930,-272710 -469760,-385530 -168840,-112810 -348350,-208760 -535950,-286470 -187600,-77700 -382380,-136790 -581540,-176400 -199160,-39620 -401720,-59570 -604780,-59570 z m 0,0 c 203060,0 405620,19950 604780,59570 199160,39610 393940,98700 581540,176400 187600,77710 367110,173660 535950,286480 168830,112810 326180,241940 469760,385520 143580,143580 272710,300930 385530,469760 112810,168840 208760,348350 286470,535950 77700,187600 136790,382380 176400,581540 39620,199160 59570,401720 59570,604780 0,203060 -19950,405620 -59570,604780 -39610,199160 -98700,393940 -176400,581540 -77710,187600 -173660,367110 -286470,535950 -112820,168830 -241950,326180 -385530,469760 -143580,143580 -300930,272710 -469760,385530 -168840,112810 -348350,208760 -535950,286470 -187600,77700 -382380,136790 -581540,176400 -199160,39620 -401720,59570 -604780,59570 -203060,0 -405620,-19950 -604780,-59570 -199160,-39610 -393940,-98700 -581540,-176400 -187600,-77710 -367110,-173660 -535950,-286470 -168830,-112820 -326180,-241950 -469760,-385530 -143580,-143580 -272710,-300930 -385520,-469760 -112820,-168840 -208770,-348350 -286480,-535950 -77700,-187600 -136790,-382380 -176400,-581540 -39620,-199160 -59570,-401720 -59570,-604780 0,-203060 19950,-405620 59570,-604780 39610,-199160 98700,-393940 176400,-581540 77710,-187600 173660,-367110 286480,-535950 112810,-168830 241940,-326180 385520,-469760 143580,-143580 300930,-272710 469760,-385520 168840,-112820 348350,-208770 535950,-286480 187600,-77700 382380,-136790 581540,-176400 199160,-39620 401720,-59570 604780,-59570 z"
         id="path2051" />
    </g>
  </g>
  <g
     style="fill:#00ff00;fill-opacity:1;stroke:none;stroke-width:21200;stroke-linecap:round;stroke-linejoin:round;stroke-opacity:1"
     id="g48" />
  <g
     style="fill:#00ff00;stroke:none;stroke-linecap:round;stroke-linejoin:round;fill-opacity:1"
     id="g52">
    <g
       id="circle50"
       style="fill:#00ff00;fill-opacity:1;stroke:none">
      <path
         style="color:#000000;stroke:none;stroke-linecap:butt;stroke-linejoin:miter;-inkscape-stroke:none;fill:#00ff00;fill-opacity:1"
         d="m 153102210,133110000 a 3100000,3100000 0 0 1 -3100000,3100000 3100000,3100000 0 0 1 -3100000,-3100000 3100000,3100000 0 0 1 3100000,-3100000 3100000,3100000 0 0 1 3100000,3100000 z"
         id="path2043" />
      <path
         style="color:#000000;stroke:none;stroke-linecap:butt;stroke-linejoin:miter;-inkscape-stroke:none;fill:#00ff00;fill-opacity:1"
         d="m 150002210,130010000 c -203060,0 -405620,19950 -604780,59570 -199160,39610 -393940,98700 -581540,176400 -187600,77710 -367110,173660 -535950,286470 -168830,112820 -326180,241950 -469760,385530 -143580,143580 -272710,300930 -385530,469760 -112810,168840 -208760,348350 -286470,535950 -77700,187600 -136790,382380 -176400,581540 -39620,199160 -59570,401720 -59570,604780 0,203060 19950,405620 59570,604780 39610,199160 98700,393940 176400,581540 77710,187600 173660,367110 286470,535950 112820,168830 241950,326180 385530,469760 143580,143590 300930,272710 469760,385530 168840,112810 348350,208760 535950,286470 187600,77700 382380,136790 581540,176410 199160,39610 401720,59560 604780,59560 203060,0 405620,-19950 604780,-59560 199160,-39620 393940,-98710 581540,-176410 187600,-77710 367110,-173660 535950,-286470 168830,-112820 326180,-241940 469760,-385530 143590,-143580 272710,-300930 385530,-469760 112810,-168840 208760,-348350 286470,-535950 77700,-187600 136790,-382380 176410,-581540 39610,-199160 59560,-401720 59560,-604780 0,-203060 -19950,-405620 -59560,-604780 -39620,-199160 -98710,-393940 -176410,-581540 -77710,-187600 -173660,-367110 -286470,-535950 -112820,-168830 -241940,-326180 -385530,-469760 -143580,-143580 -300930,-272710 -469760,-385530 -168840,-112810 -348350,-208760 -535950,-286470 -187600,-77700 -382380,-136790 -581540,-176400 -199160,-39620 -401720,-59570 -604780,-59570 z m 0,0 c 203060,0 405620,19950 604780,59570 199160,39610 393940,98700 581540,176400 187600,77710 367110,173660 535950,286480 168830,112810 326180,241940 469760,385520 143580,143580 272710,300930 385530,469760 112810,168840 208760,348350 286470,535950 77700,187600 136790,382380 176400,581540 39620,199160 59570,401720 59570,604780 0,203060 -19950,405620 -59570,604780 -39610,199160 -98700,393940 -176400,581540 -77710,187600 -173660,367110 -286470,535950 -112820,168830 -241950,326180 -385530,469760 -143580,143580 -300930,272710 -469760,385530 -168840,112810 -348350,208760 -535950,286470 -187600,77700 -382380,136790 -581540,176400 -199160,39620 -401720,59570 -604780,59570 -203060,0 -405620,-19950 -604780,-59570 -199160,-39610 -393940,-98700 -581540,-176400 -187600,-77710 -367110,-173660 -535950,-286470 -168830,-112820 -326180,-241950 -469760,-385530 -143580,-143580 -272710,-300930 -385520,-469760 -112820,-168840 -208770,-348350 -286480,-535950 -77700,-187600 -136790,-382380 -176400,-581540 -39620,-199160 -59570,-401720 -59570,-604780 0,-203060 19950,-405620 59570,-604780 39610,-199160 98700,-393940 176400,-581540 77710,-187600 173660,-367110 286480,-535950 112810,-168830 241940,-326180 385520,-469760 143580,-143580 300930,-272710 469760,-385520 168840,-112820 348350,-208770 535950,-286480 187600,-77700 382380,-136790 581540,-176400 199160,-39620 401720,-59570 604780,-59570 z"
         id="path2045" />
    </g>
  </g>
  <g
     style="fill:#00ff00;fill-opacity:1;stroke:none;stroke-width:21200;stroke-linecap:round;stroke-linejoin:round;stroke-opacity:1"
     id="g54" />
  <g
     style="fill:#00ff00;stroke:none;stroke-linecap:round;stroke-linejoin:round;fill-opacity:1"
     id="g58">
    <g
       id="path56"
       style="fill:#00ff00;fill-opacity:1;stroke:none">
      <path
         style="color:#000000;fill-rule:evenodd;stroke:none;-inkscape-stroke:none;fill:#00ff00;fill-opacity:1"
         d="m 208289700,134330000 h 1700000 v -2500000 h -1700000 z"
         id="path2037" />
      <path
         style="color:#000000;fill-rule:evenodd;stroke:none;-inkscape-stroke:none;fill:#00ff00;fill-opacity:1"
         d="m 208289700,131830000 a 0.50005,0.50005 0 0 0 0,0 v 2500000 a 0.50005,0.50005 0 0 0 0,0 h 1700000 a 0.50005,0.50005 0 0 0 0,0 v -2500000 a 0.50005,0.50005 0 0 0 0,0 z m 0,0 h 1700000 v 2500000 h -1700000 z"
         id="path2039" />
    </g>
  </g>
  <g
     style="fill:#00ff00;fill-opacity:1;stroke:none;stroke-width:1700000;stroke-linecap:round;stroke-linejoin:round;stroke-opacity:1"
     id="g60" />
  <g
     style="fill:#00ff00;fill-opacity:1;stroke:none;stroke-width:1700000;stroke-linecap:round;stroke-linejoin:round"
     id="g100">
    <g
       id="path62"
       style="fill:#00ff00;fill-opacity:1;stroke:none">
      <path
         style="color:#000000;stroke:none;stroke-linecap:butt;stroke-linejoin:miter;-inkscape-stroke:none;fill:#00ff00;fill-opacity:1"
         d="m 206599700,133480000 v -800000"
         id="path1923" />
      <path
         style="color:#000000;fill-opacity:1;stroke:none;stroke-linecap:butt;stroke-linejoin:miter;-inkscape-stroke:none;fill:#00ff00"
         d="m 206599700,131830000 a 850000,850000 0 0 0 -850000,850000 v 800000 a 850000,850000 0 0 0 850000,850000 850000,850000 0 0 0 850000,-850000 v -800000 a 850000,850000 0 0 0 -850000,-850000 z"
         id="path1925" />
    </g>
    <g
       id="path64"
       style="fill:#00ff00;fill-opacity:1;stroke:none">
      <path
         style="color:#000000;stroke:none;stroke-linecap:butt;stroke-linejoin:miter;-inkscape-stroke:none;fill:#00ff00;fill-opacity:1"
         d="m 204059700,133480000 v -800000"
         id="path1929" />
      <path
         style="color:#000000;fill-opacity:1;stroke:none;stroke-linecap:butt;stroke-linejoin:miter;-inkscape-stroke:none;fill:#00ff00"
         d="m 204059700,131830000 a 850000,850000 0 0 0 -850000,850000 v 800000 a 850000,850000 0 0 0 850000,850000 850000,850000 0 0 0 850000,-850000 v -800000 a 850000,850000 0 0 0 -850000,-850000 z"
         id="path1931" />
    </g>
    <g
       id="path66"
       style="fill:#00ff00;fill-opacity:1;stroke:none">
      <path
         style="color:#000000;stroke:none;stroke-linecap:butt;stroke-linejoin:miter;-inkscape-stroke:none;fill:#00ff00;fill-opacity:1"
         d="m 201519700,133480000 v -800000"
         id="path1935" />
      <path
         style="color:#000000;fill-opacity:1;stroke:none;stroke-linecap:butt;stroke-linejoin:miter;-inkscape-stroke:none;fill:#00ff00"
         d="m 201519700,131830000 a 850000,850000 0 0 0 -850000,850000 v 800000 a 850000,850000 0 0 0 850000,850000 850000,850000 0 0 0 850000,-850000 v -800000 a 850000,850000 0 0 0 -850000,-850000 z"
         id="path1937" />
    </g>
    <g
       id="path68"
       style="fill:#00ff00;fill-opacity:1;stroke:none">
      <path
         style="color:#000000;stroke:none;stroke-linecap:butt;stroke-linejoin:miter;-inkscape-stroke:none;fill:#00ff00;fill-opacity:1"
         d="m 198979700,133480000 v -800000"
         id="path1941" />
      <path
         style="color:#000000;fill-opacity:1;stroke:none;stroke-linecap:butt;stroke-linejoin:miter;-inkscape-stroke:none;fill:#00ff00"
         d="m 198979700,131830000 a 850000,850000 0 0 0 -850000,850000 v 800000 a 850000,850000 0 0 0 850000,850000 850000,850000 0 0 0 850000,-850000 v -800000 a 850000,850000 0 0 0 -850000,-850000 z"
         id="path1943" />
    </g>
    <g
       id="path70"
       style="fill:#00ff00;fill-opacity:1;stroke:none">
      <path
         style="color:#000000;stroke:none;stroke-linecap:butt;stroke-linejoin:miter;-inkscape-stroke:none;fill:#00ff00;fill-opacity:1"
         d="m 196439700,133480000 v -800000"
         id="path1947" />
      <path
         style="color:#000000;fill-opacity:1;stroke:none;stroke-linecap:butt;stroke-linejoin:miter;-inkscape-stroke:none;fill:#00ff00"
         d="m 196439700,131830000 a 850000,850000 0 0 0 -850000,850000 v 800000 a 850000,850000 0 0 0 850000,850000 850000,850000 0 0 0 850000,-850000 v -800000 a 850000,850000 0 0 0 -850000,-850000 z"
         id="path1949" />
    </g>
    <g
       id="path72"
       style="fill:#00ff00;fill-opacity:1;stroke:none">
      <path
         style="color:#000000;stroke:none;stroke-linecap:butt;stroke-linejoin:miter;-inkscape-stroke:none;fill:#00ff00;fill-opacity:1"
         d="m 193899700,133480000 v -800000"
         id="path1953" />
      <path
         style="color:#000000;fill-opacity:1;stroke:none;stroke-linecap:butt;stroke-linejoin:miter;-inkscape-stroke:none;fill:#00ff00"
         d="m 193899700,131830000 a 850000,850000 0 0 0 -850000,850000 v 800000 a 850000,850000 0 0 0 850000,850000 850000,850000 0 0 0 850000,-850000 v -800000 a 850000,850000 0 0 0 -850000,-850000 z"
         id="path1955" />
    </g>
    <g
       id="path74"
       style="fill:#00ff00;fill-opacity:1;stroke:none">
      <path
         style="color:#000000;stroke:none;stroke-linecap:butt;stroke-linejoin:miter;-inkscape-stroke:none;fill:#00ff00;fill-opacity:1"
         d="m 191359700,133480000 v -800000"
         id="path1959" />
      <path
         style="color:#000000;fill-opacity:1;stroke:none;stroke-linecap:butt;stroke-linejoin:miter;-inkscape-stroke:none;fill:#00ff00"
         d="m 191359700,131830000 a 850000,850000 0 0 0 -850000,850000 v 800000 a 850000,850000 0 0 0 850000,850000 850000,850000 0 0 0 850000,-850000 v -800000 a 850000,850000 0 0 0 -850000,-850000 z"
         id="path1961" />
    </g>
    <g
       id="path76"
       style="fill:#00ff00;fill-opacity:1;stroke:none">
      <path
         style="color:#000000;stroke:none;stroke-linecap:butt;stroke-linejoin:miter;-inkscape-stroke:none;fill:#00ff00;fill-opacity:1"
         d="m 188819700,133480000 v -800000"
         id="path1965" />
      <path
         style="color:#000000;fill-opacity:1;stroke:none;stroke-linecap:butt;stroke-linejoin:miter;-inkscape-stroke:none;fill:#00ff00"
         d="m 188819700,131830000 a 850000,850000 0 0 0 -850000,850000 v 800000 a 850000,850000 0 0 0 850000,850000 850000,850000 0 0 0 850000,-850000 v -800000 a 850000,850000 0 0 0 -850000,-850000 z"
         id="path1967" />
    </g>
    <g
       id="path78"
       style="fill:#00ff00;fill-opacity:1;stroke:none">
      <path
         style="color:#000000;stroke:none;stroke-linecap:butt;stroke-linejoin:miter;-inkscape-stroke:none;fill:#00ff00;fill-opacity:1"
         d="m 186279700,133480000 v -800000"
         id="path1971" />
      <path
         style="color:#000000;fill-opacity:1;stroke:none;stroke-linecap:butt;stroke-linejoin:miter;-inkscape-stroke:none;fill:#00ff00"
         d="m 186279700,131830000 a 850000,850000 0 0 0 -850000,850000 v 800000 a 850000,850000 0 0 0 850000,850000 850000,850000 0 0 0 850000,-850000 v -800000 a 850000,850000 0 0 0 -850000,-850000 z"
         id="path1973" />
    </g>
    <g
       id="path80"
       style="fill:#00ff00;fill-opacity:1;stroke:none">
      <path
         style="color:#000000;stroke:none;stroke-linecap:butt;stroke-linejoin:miter;-inkscape-stroke:none;fill:#00ff00;fill-opacity:1"
         d="m 183739700,133480000 v -800000"
         id="path1977" />
      <path
         style="color:#000000;fill-opacity:1;stroke:none;stroke-linecap:butt;stroke-linejoin:miter;-inkscape-stroke:none;fill:#00ff00"
         d="m 183739700,131830000 a 850000,850000 0 0 0 -850000,850000 v 800000 a 850000,850000 0 0 0 850000,850000 850000,850000 0 0 0 850000,-850000 v -800000 a 850000,850000 0 0 0 -850000,-850000 z"
         id="path1979" />
    </g>
    <g
       id="path82"
       style="fill:#00ff00;fill-opacity:1;stroke:none">
      <path
         style="color:#000000;stroke:none;stroke-linecap:butt;stroke-linejoin:miter;-inkscape-stroke:none;fill:#00ff00;fill-opacity:1"
         d="m 181199700,133480000 v -800000"
         id="path1983" />
      <path
         style="color:#000000;fill-opacity:1;stroke:none;stroke-linecap:butt;stroke-linejoin:miter;-inkscape-stroke:none;fill:#00ff00"
         d="m 181199700,131830000 a 850000,850000 0 0 0 -850000,850000 v 800000 a 850000,850000 0 0 0 850000,850000 850000,850000 0 0 0 850000,-850000 v -800000 a 850000,850000 0 0 0 -850000,-850000 z"
         id="path1985" />
    </g>
    <g
       id="path84"
       style="fill:#00ff00;fill-opacity:1;stroke:none">
      <path
         style="color:#000000;stroke:none;stroke-linecap:butt;stroke-linejoin:miter;-inkscape-stroke:none;fill:#00ff00;fill-opacity:1"
         d="m 178659700,133480000 v -800000"
         id="path1989" />
      <path
         style="color:#000000;fill-opacity:1;stroke:none;stroke-linecap:butt;stroke-linejoin:miter;-inkscape-stroke:none;fill:#00ff00"
         d="m 178659700,131830000 a 850000,850000 0 0 0 -850000,850000 v 800000 a 850000,850000 0 0 0 850000,850000 850000,850000 0 0 0 850000,-850000 v -800000 a 850000,850000 0 0 0 -850000,-850000 z"
         id="path1991" />
    </g>
    <g
       id="path86"
       style="fill:#00ff00;fill-opacity:1;stroke:none">
      <path
         style="color:#000000;stroke:none;stroke-linecap:butt;stroke-linejoin:miter;-inkscape-stroke:none;fill:#00ff00;fill-opacity:1"
         d="m 176119700,133480000 v -800000"
         id="path1995" />
      <path
         style="color:#000000;fill-opacity:1;stroke:none;stroke-linecap:butt;stroke-linejoin:miter;-inkscape-stroke:none;fill:#00ff00"
         d="m 176119700,131830000 a 850000,850000 0 0 0 -850000,850000 v 800000 a 850000,850000 0 0 0 850000,850000 850000,850000 0 0 0 850000,-850000 v -800000 a 850000,850000 0 0 0 -850000,-850000 z"
         id="path1997" />
    </g>
    <g
       id="path88"
       style="fill:#00ff00;fill-opacity:1;stroke:none">
      <path
         style="color:#000000;stroke:none;stroke-linecap:butt;stroke-linejoin:miter;-inkscape-stroke:none;fill:#00ff00;fill-opacity:1"
         d="m 173579700,133480000 v -800000"
         id="path2001" />
      <path
         style="color:#000000;fill-opacity:1;stroke:none;stroke-linecap:butt;stroke-linejoin:miter;-inkscape-stroke:none;fill:#00ff00"
         d="m 173579700,131830000 a 850000,850000 0 0 0 -850000,850000 v 800000 a 850000,850000 0 0 0 850000,850000 850000,850000 0 0 0 850000,-850000 v -800000 a 850000,850000 0 0 0 -850000,-850000 z"
         id="path2003" />
    </g>
    <g
       id="path90"
       style="fill:#00ff00;fill-opacity:1;stroke:none">
      <path
         style="color:#000000;stroke:none;stroke-linecap:butt;stroke-linejoin:miter;-inkscape-stroke:none;fill:#00ff00;fill-opacity:1"
         d="m 171039700,133480000 v -800000"
         id="path2007" />
      <path
         style="color:#000000;fill-opacity:1;stroke:none;stroke-linecap:butt;stroke-linejoin:miter;-inkscape-stroke:none;fill:#00ff00"
         d="m 171039700,131830000 a 850000,850000 0 0 0 -850000,850000 v 800000 a 850000,850000 0 0 0 850000,850000 850000,850000 0 0 0 850000,-850000 v -800000 a 850000,850000 0 0 0 -850000,-850000 z"
         id="path2009" />
    </g>
    <g
       id="path92"
       style="fill:#00ff00;fill-opacity:1;stroke:none">
      <path
         style="color:#000000;stroke:none;stroke-linecap:butt;stroke-linejoin:miter;-inkscape-stroke:none;fill:#00ff00;fill-opacity:1"
         d="m 168499700,133480000 v -800000"
         id="path2013" />
      <path
         style="color:#000000;fill-opacity:1;stroke:none;stroke-linecap:butt;stroke-linejoin:miter;-inkscape-stroke:none;fill:#00ff00"
         d="m 168499700,131830000 a 850000,850000 0 0 0 -850000,850000 v 800000 a 850000,850000 0 0 0 850000,850000 850000,850000 0 0 0 850000,-850000 v -800000 a 850000,850000 0 0 0 -850000,-850000 z"
         id="path2015" />
    </g>
    <g
       id="path94"
       style="fill:#00ff00;fill-opacity:1;stroke:none">
      <path
         style="color:#000000;stroke:none;stroke-linecap:butt;stroke-linejoin:miter;-inkscape-stroke:none;fill:#00ff00;fill-opacity:1"
         d="m 165959700,133480000 v -800000"
         id="path2019" />
      <path
         style="color:#000000;fill-opacity:1;stroke:none;stroke-linecap:butt;stroke-linejoin:miter;-inkscape-stroke:none;fill:#00ff00"
         d="m 165959700,131830000 a 850000,850000 0 0 0 -850000,850000 v 800000 a 850000,850000 0 0 0 850000,850000 850000,850000 0 0 0 850000,-850000 v -800000 a 850000,850000 0 0 0 -850000,-850000 z"
         id="path2021" />
    </g>
    <g
       id="path96"
       style="fill:#00ff00;fill-opacity:1;stroke:none">
      <path
         style="color:#000000;stroke:none;stroke-linecap:butt;stroke-linejoin:miter;-inkscape-stroke:none;fill:#00ff00;fill-opacity:1"
         d="m 163419700,133480000 v -800000"
         id="path2025" />
      <path
         style="color:#000000;fill-opacity:1;stroke:none;stroke-linecap:butt;stroke-linejoin:miter;-inkscape-stroke:none;fill:#00ff00"
         d="m 163419700,131830000 a 850000,850000 0 0 0 -850000,850000 v 800000 a 850000,850000 0 0 0 850000,850000 850000,850000 0 0 0 850000,-850000 v -800000 a 850000,850000 0 0 0 -850000,-850000 z"
         id="path2027" />
    </g>
    <g
       id="path98"
       style="fill:#00ff00;fill-opacity:1;stroke:none">
      <path
         style="color:#000000;stroke:none;stroke-linecap:butt;stroke-linejoin:miter;-inkscape-stroke:none;fill:#00ff00;fill-opacity:1"
         d="m 160879700,133480000 v -800000"
         id="path2031" />
      <path
         style="color:#000000;fill-opacity:1;stroke:none;stroke-linecap:butt;stroke-linejoin:miter;-inkscape-stroke:none;fill:#00ff00"
         d="m 160879700,131830000 a 850000,850000 0 0 0 -850000,850000 v 800000 a 850000,850000 0 0 0 850000,850000 850000,850000 0 0 0 850000,-850000 v -800000 a 850000,850000 0 0 0 -850000,-850000 z"
         id="path2033" />
    </g>
  </g>
  <g
     id="g102"
     style="fill:#00ff00;fill-opacity:1;stroke:none;stroke-width:100000;stroke-linecap:round;stroke-linejoin:round;stroke-opacity:1" />
  <g
     style="fill:#00ff00;fill-opacity:1;stroke:none;stroke-width:1700000;stroke-linecap:round;stroke-linejoin:round;stroke-opacity:1"
     id="g104" />
  <g
     style="fill:#00ff00;stroke:none;stroke-linecap:round;stroke-linejoin:round;fill-opacity:1"
     id="g108">
    <g
       id="circle106"
       style="fill:#00ff00;fill-opacity:1;stroke:none">
      <path
         style="color:#000000;stroke:none;stroke-linecap:butt;stroke-linejoin:miter;-inkscape-stroke:none;fill:#00ff00;fill-opacity:1"
         d="m 245102210,85000000 a 3100000,3100000 0 0 1 -3100000,3100000 3100000,3100000 0 0 1 -3100000,-3100000 3100000,3100000 0 0 1 3100000,-3100000 3100000,3100000 0 0 1 3100000,3100000 z"
         id="path1917" />
      <path
         style="color:#000000;stroke:none;stroke-linecap:butt;stroke-linejoin:miter;-inkscape-stroke:none;fill:#00ff00;fill-opacity:1"
         d="m 242002210,81900000 c -203060,0 -405620,19951 -604780,59565 -199160,39615 -393940,98701 -581540,176408 -187600,77707 -367110,173658 -535950,286471 -168830,112812 -326180,241941 -469760,385525 -143580,143583 -272710,300927 -385530,469763 -112810,168836 -208760,348349 -286470,535949 -77700,187601 -136790,382383 -176400,581539 -39620,199156 -59570,401723 -59570,604780 0,203057 19950,405624 59570,604780 39610,199156 98700,393938 176400,581539 77710,187600 173660,367113 286470,535949 112820,168836 241950,326180 385530,469763 143580,143584 300930,272713 469760,385525 168840,112813 348350,208764 535950,286471 187600,77707 382380,136793 581540,176408 199160,39614 401720,59566 604780,59566 203060,0 405620,-19952 604780,-59566 199160,-39615 393940,-98701 581540,-176408 187600,-77707 367110,-173658 535950,-286471 168830,-112812 326180,-241941 469760,-385525 143590,-143583 272710,-300927 385530,-469763 112810,-168836 208760,-348349 286470,-535949 77700,-187601 136790,-382383 176410,-581539 39610,-199156 59560,-401723 59560,-604780 0,-203057 -19950,-405624 -59560,-604780 -39620,-199156 -98710,-393938 -176410,-581539 -77710,-187600 -173660,-367113 -286470,-535949 -112820,-168836 -241940,-326180 -385530,-469763 -143580,-143584 -300930,-272713 -469760,-385525 -168840,-112813 -348350,-208764 -535950,-286471 -187600,-77707 -382380,-136793 -581540,-176408 -199160,-39614 -401720,-59565 -604780,-59565 z m 0,1 c 203060,0 405620,19951 604780,59565 199160,39615 393940,98701 581540,176408 187600,77707 367110,173658 535950,286471 168830,112812 326180,241941 469760,385524 143580,143584 272710,300927 385530,469764 112810,168836 208760,348348 286470,535949 77700,187600 136790,382382 176400,581538 39620,199156 59570,401723 59570,604780 0,203057 -19950,405624 -59570,604780 -39610,199156 -98700,393938 -176400,581538 -77710,187601 -173660,367113 -286470,535949 -112820,168837 -241950,326180 -385530,469764 -143580,143583 -300930,272712 -469760,385524 -168840,112813 -348350,208764 -535950,286471 -187600,77707 -382380,136793 -581540,176408 -199160,39614 -401720,59566 -604780,59566 -203060,0 -405620,-19952 -604780,-59566 -199160,-39615 -393940,-98701 -581540,-176408 -187600,-77707 -367110,-173658 -535950,-286471 -168830,-112812 -326180,-241941 -469760,-385524 -143580,-143584 -272710,-300927 -385520,-469764 -112820,-168836 -208770,-348348 -286480,-535949 -77700,-187600 -136790,-382382 -176400,-581538 -39620,-199156 -59570,-401723 -59570,-604780 0,-203057 19950,-405624 59570,-604780 39610,-199156 98700,-393938 176400,-581538 77710,-187601 173660,-367113 286480,-535949 112810,-168837 241940,-326180 385520,-469764 143580,-143583 300930,-272712 469760,-385524 168840,-112813 348350,-208764 535950,-286471 187600,-77707 382380,-136793 581540,-176408 199160,-39614 401720,-59565 604780,-59565 z"
         id="path1919" />
    </g>
  </g>
  <g
     style="fill:#00ff00;fill-opacity:1;stroke:none;stroke-width:21200;stroke-linecap:round;stroke-linejoin:round;stroke-opacity:1"
     id="g110" />
  <g
     id="g112"
     style="fill:#00ff00;fill-opacity:1;stroke:none;stroke-width:100000;stroke-linecap:round;stroke-linejoin:round;stroke-opacity:1" />
  <g
     style="fill:#00ff00;fill-opacity:1;stroke:none;stroke-width:21200;stroke-linecap:round;stroke-linejoin:round;stroke-opacity:1"
     id="g114" />
  <g
     style="fill:#00ff00;stroke:none;stroke-linecap:round;stroke-linejoin:round;fill-opacity:1"
     id="g118">
    <g
       id="circle116"
       style="fill:#00ff00;fill-opacity:1;stroke:none">
      <path
         style="color:#000000;stroke:none;stroke-linecap:butt;stroke-linejoin:miter;-inkscape-stroke:none;fill:#00ff00;fill-opacity:1"
         d="m 245102210,145000000 a 3100000,3100000 0 0 1 -3100000,3100000 3100000,3100000 0 0 1 -3100000,-3100000 3100000,3100000 0 0 1 3100000,-3100000 3100000,3100000 0 0 1 3100000,3100000 z"
         id="path1911" />
      <path
         style="color:#000000;stroke:none;stroke-linecap:butt;stroke-linejoin:miter;-inkscape-stroke:none;fill:#00ff00;fill-opacity:1"
         d="m 242002210,141900000 c -203060,0 -405620,19950 -604780,59570 -199160,39610 -393940,98700 -581540,176400 -187600,77710 -367110,173660 -535950,286470 -168830,112820 -326180,241950 -469760,385530 -143580,143580 -272710,300930 -385530,469760 -112810,168840 -208760,348350 -286470,535950 -77700,187600 -136790,382380 -176400,581540 -39620,199160 -59570,401720 -59570,604780 0,203060 19950,405620 59570,604780 39610,199160 98700,393940 176400,581540 77710,187600 173660,367110 286470,535950 112820,168830 241950,326180 385530,469760 143580,143590 300930,272710 469760,385530 168840,112810 348350,208760 535950,286470 187600,77700 382380,136790 581540,176410 199160,39610 401720,59560 604780,59560 203060,0 405620,-19950 604780,-59560 199160,-39620 393940,-98710 581540,-176410 187600,-77710 367110,-173660 535950,-286470 168830,-112820 326180,-241940 469760,-385530 143590,-143580 272710,-300930 385530,-469760 112810,-168840 208760,-348350 286470,-535950 77700,-187600 136790,-382380 176410,-581540 39610,-199160 59560,-401720 59560,-604780 0,-203060 -19950,-405620 -59560,-604780 -39620,-199160 -98710,-393940 -176410,-581540 -77710,-187600 -173660,-367110 -286470,-535950 -112820,-168830 -241940,-326180 -385530,-469760 -143580,-143580 -300930,-272710 -469760,-385530 -168840,-112810 -348350,-208760 -535950,-286470 -187600,-77700 -382380,-136790 -581540,-176400 -199160,-39620 -401720,-59570 -604780,-59570 z m 0,0 c 203060,0 405620,19950 604780,59570 199160,39610 393940,98700 581540,176400 187600,77710 367110,173660 535950,286480 168830,112810 326180,241940 469760,385520 143580,143580 272710,300930 385530,469760 112810,168840 208760,348350 286470,535950 77700,187600 136790,382380 176400,581540 39620,199160 59570,401720 59570,604780 0,203060 -19950,405620 -59570,604780 -39610,199160 -98700,393940 -176400,581540 -77710,187600 -173660,367110 -286470,535950 -112820,168830 -241950,326180 -385530,469760 -143580,143580 -300930,272710 -469760,385530 -168840,112810 -348350,208760 -535950,286470 -187600,77700 -382380,136790 -581540,176400 -199160,39620 -401720,59570 -604780,59570 -203060,0 -405620,-19950 -604780,-59570 -199160,-39610 -393940,-98700 -581540,-176400 -187600,-77710 -367110,-173660 -535950,-286470 -168830,-112820 -326180,-241950 -469760,-385530 -143580,-143580 -272710,-300930 -385520,-469760 -112820,-168840 -208770,-348350 -286480,-535950 -77700,-187600 -136790,-382380 -176400,-581540 -39620,-199160 -59570,-401720 -59570,-604780 0,-203060 19950,-405620 59570,-604780 39610,-199160 98700,-393940 176400,-581540 77710,-187600 173660,-367110 286480,-535950 112810,-168830 241940,-326180 385520,-469760 143580,-143580 300930,-272710 469760,-385520 168840,-112820 348350,-208770 535950,-286480 187600,-77700 382380,-136790 581540,-176400 199160,-39620 401720,-59570 604780,-59570 z"
         id="path1913" />
    </g>
  </g>
  <g
     style="fill:#00ff00;fill-opacity:1;stroke:none;stroke-width:21200;stroke-linecap:round;stroke-linejoin:round;stroke-opacity:1"
     id="g120" />
  <g
     id="g122"
     style="fill:#00ff00;fill-opacity:1;stroke:none;stroke-width:100000;stroke-linecap:round;stroke-linejoin:round;stroke-opacity:1" />
  <g
     style="fill:#00ff00;fill-opacity:1;stroke:none;stroke-width:21200;stroke-linecap:round;stroke-linejoin:round;stroke-opacity:1"
     id="g124" />
  <g
     style="fill:#00ff00;stroke:none;stroke-linecap:round;stroke-linejoin:round;fill-opacity:1"
     id="g128">
    <g
       id="circle126"
       style="fill:#00ff00;fill-opacity:1;stroke:none">
      <path
         style="color:#000000;stroke:none;stroke-linecap:butt;stroke-linejoin:miter;-inkscape-stroke:none;fill:#00ff00;fill-opacity:1"
         d="m 145102210,85000000 a 3100000,3100000 0 0 1 -3100000,3100000 3100000,3100000 0 0 1 -3100000,-3100000 3100000,3100000 0 0 1 3100000,-3100000 3100000,3100000 0 0 1 3100000,3100000 z"
         id="path1905" />
      <path
         style="color:#000000;stroke:none;stroke-linecap:butt;stroke-linejoin:miter;-inkscape-stroke:none;fill:#00ff00;fill-opacity:1"
         d="m 142002210,81900000 c -203060,0 -405620,19951 -604780,59565 -199160,39615 -393940,98701 -581540,176408 -187600,77707 -367110,173658 -535950,286471 -168830,112812 -326180,241941 -469760,385525 -143580,143583 -272710,300927 -385530,469763 -112810,168836 -208760,348349 -286470,535949 -77700,187601 -136790,382383 -176400,581539 -39620,199156 -59570,401723 -59570,604780 0,203057 19950,405624 59570,604780 39610,199156 98700,393938 176400,581539 77710,187600 173660,367113 286470,535949 112820,168836 241950,326180 385530,469763 143580,143584 300930,272713 469760,385525 168840,112813 348350,208764 535950,286471 187600,77707 382380,136793 581540,176408 199160,39614 401720,59566 604780,59566 203060,0 405620,-19952 604780,-59566 199160,-39615 393940,-98701 581540,-176408 187600,-77707 367110,-173658 535950,-286471 168830,-112812 326180,-241941 469760,-385525 143590,-143583 272710,-300927 385530,-469763 112810,-168836 208760,-348349 286470,-535949 77700,-187601 136790,-382383 176410,-581539 39610,-199156 59560,-401723 59560,-604780 0,-203057 -19950,-405624 -59560,-604780 -39620,-199156 -98710,-393938 -176410,-581539 -77710,-187600 -173660,-367113 -286470,-535949 -112820,-168836 -241940,-326180 -385530,-469763 -143580,-143584 -300930,-272713 -469760,-385525 -168840,-112813 -348350,-208764 -535950,-286471 -187600,-77707 -382380,-136793 -581540,-176408 -199160,-39614 -401720,-59565 -604780,-59565 z m 0,1 c 203060,0 405620,19951 604780,59565 199160,39615 393940,98701 581540,176408 187600,77707 367110,173658 535950,286471 168830,112812 326180,241941 469760,385524 143580,143584 272710,300927 385530,469764 112810,168836 208760,348348 286470,535949 77700,187600 136790,382382 176400,581538 39620,199156 59570,401723 59570,604780 0,203057 -19950,405624 -59570,604780 -39610,199156 -98700,393938 -176400,581538 -77710,187601 -173660,367113 -286470,535949 -112820,168837 -241950,326180 -385530,469764 -143580,143583 -300930,272712 -469760,385524 -168840,112813 -348350,208764 -535950,286471 -187600,77707 -382380,136793 -581540,176408 -199160,39614 -401720,59566 -604780,59566 -203060,0 -405620,-19952 -604780,-59566 -199160,-39615 -393940,-98701 -581540,-176408 -187600,-77707 -367110,-173658 -535950,-286471 -168830,-112812 -326180,-241941 -469760,-385524 -143580,-143584 -272710,-300927 -385520,-469764 -112820,-168836 -208770,-348348 -286480,-535949 -77700,-187600 -136790,-382382 -176400,-581538 -39620,-199156 -59570,-401723 -59570,-604780 0,-203057 19950,-405624 59570,-604780 39610,-199156 98700,-393938 176400,-581538 77710,-187601 173660,-367113 286480,-535949 112810,-168837 241940,-326180 385520,-469764 143580,-143583 300930,-272712 469760,-385524 168840,-112813 348350,-208764 535950,-286471 187600,-77707 382380,-136793 581540,-176408 199160,-39614 401720,-59565 604780,-59565 z"
         id="path1907" />
    </g>
  </g>
  <g
     style="fill:#00ff00;fill-opacity:1;stroke:none;stroke-width:21200;stroke-linecap:round;stroke-linejoin:round;stroke-opacity:1"
     id="g130" />
  <g
     id="g132"
     style="fill:#00ff00;fill-opacity:1;stroke:none;stroke-width:100000;stroke-linecap:round;stroke-linejoin:round;stroke-opacity:1" />
  <g
     style="fill:#00ff00;fill-opacity:1;stroke:none;stroke-width:21200;stroke-linecap:round;stroke-linejoin:round;stroke-opacity:1"
     id="g134" />
  <g
     style="fill:#00ff00;stroke:none;stroke-linecap:round;stroke-linejoin:round;fill-opacity:1"
     id="g140">
    <g
       id="path136"
       style="fill:#00ff00;fill-opacity:1;stroke:none">
      <path
         style="color:#000000;fill-rule:evenodd;stroke:none;-inkscape-stroke:none;fill:#00ff00;fill-opacity:1"
         d="m 176682200,127566000 -19030,-95670 -54190,-81110 -81110,-54190 -95670,-19030 h -700000 l -95670,19030 -81110,54190 -54190,81110 -19030,95670 v 900000 l 19030,95670 54190,81110 81110,54190 95670,19030 h 700000 l 95670,-19030 81110,-54190 54190,-81110 19030,-95670 z"
         id="path1893" />
      <path
         style="color:#000000;fill-rule:evenodd;stroke:none;-inkscape-stroke:none;fill:#00ff00;fill-opacity:1"
         d="m 175732200,127316000 a 0.50005,0.50005 0 0 0 0,0 l -95670,19030 a 0.50005,0.50005 0 0 0 0,0 l -81110,54190 a 0.50005,0.50005 0 0 0 0,0 l -54190,81110 a 0.50005,0.50005 0 0 0 0,0 l -19030,95670 a 0.50005,0.50005 0 0 0 0,0 v 900000 a 0.50005,0.50005 0 0 0 0,0 l 19030,95670 a 0.50005,0.50005 0 0 0 0,0 l 54190,81110 a 0.50005,0.50005 0 0 0 0,0 l 81110,54190 a 0.50005,0.50005 0 0 0 0,0 l 95670,19030 a 0.50005,0.50005 0 0 0 0,0 h 700000 a 0.50005,0.50005 0 0 0 0,0 l 95670,-19030 a 0.50005,0.50005 0 0 0 0,0 l 81110,-54190 a 0.50005,0.50005 0 0 0 0,0 l 54190,-81110 a 0.50005,0.50005 0 0 0 0,0 l 19030,-95670 a 0.50005,0.50005 0 0 0 0,0 v -900000 a 0.50005,0.50005 0 0 0 0,0 l -19030,-95670 a 0.50005,0.50005 0 0 0 0,0 l -54190,-81110 a 0.50005,0.50005 0 0 0 0,0 l -81110,-54190 a 0.50005,0.50005 0 0 0 0,0 l -95670,-19030 a 0.50005,0.50005 0 0 0 0,0 z m 0,0 h 700000 l 95670,19030 81110,54190 54190,81110 19030,95670 v 900000 l -19030,95670 -54190,81110 -81110,54190 -95670,19030 h -700000 l -95670,-19030 -81110,-54190 -54190,-81110 -19030,-95670 v -900000 l 19030,-95670 54190,-81110 81110,-54190 z"
         id="path1895" />
    </g>
    <g
       id="path138"
       style="fill:#00ff00;fill-opacity:1;stroke:none">
      <path
         style="color:#000000;fill-rule:evenodd;stroke:none;-inkscape-stroke:none;fill:#00ff00;fill-opacity:1"
         d="m 174682200,127566000 -19030,-95670 -54190,-81110 -81110,-54190 -95670,-19030 h -700000 l -95670,19030 -81110,54190 -54190,81110 -19030,95670 v 900000 l 19030,95670 54190,81110 81110,54190 95670,19030 h 700000 l 95670,-19030 81110,-54190 54190,-81110 19030,-95670 z"
         id="path1899" />
      <path
         style="color:#000000;fill-rule:evenodd;stroke:none;-inkscape-stroke:none;fill:#00ff00;fill-opacity:1"
         d="m 173732200,127316000 a 0.50005,0.50005 0 0 0 0,0 l -95670,19030 a 0.50005,0.50005 0 0 0 0,0 l -81110,54190 a 0.50005,0.50005 0 0 0 0,0 l -54190,81110 a 0.50005,0.50005 0 0 0 0,0 l -19030,95670 a 0.50005,0.50005 0 0 0 0,0 v 900000 a 0.50005,0.50005 0 0 0 0,0 l 19030,95670 a 0.50005,0.50005 0 0 0 0,0 l 54190,81110 a 0.50005,0.50005 0 0 0 0,0 l 81110,54190 a 0.50005,0.50005 0 0 0 0,0 l 95670,19030 a 0.50005,0.50005 0 0 0 0,0 h 700000 a 0.50005,0.50005 0 0 0 0,0 l 95670,-19030 a 0.50005,0.50005 0 0 0 0,0 l 81110,-54190 a 0.50005,0.50005 0 0 0 0,0 l 54190,-81110 a 0.50005,0.50005 0 0 0 0,0 l 19030,-95670 a 0.50005,0.50005 0 0 0 0,0 v -900000 a 0.50005,0.50005 0 0 0 0,0 l -19030,-95670 a 0.50005,0.50005 0 0 0 0,0 l -54190,-81110 a 0.50005,0.50005 0 0 0 0,0 l -81110,-54190 a 0.50005,0.50005 0 0 0 0,0 l -95670,-19030 a 0.50005,0.50005 0 0 0 0,0 z m 0,0 h 700000 l 95670,19030 81110,54190 54190,81110 19030,95670 v 900000 l -19030,95670 -54190,81110 -81110,54190 -95670,19030 h -700000 l -95670,-19030 -81110,-54190 -54190,-81110 -19030,-95670 v -900000 l 19030,-95670 54190,-81110 81110,-54190 z"
         id="path1901" />
    </g>
  </g>
  <g
     id="g142"
     style="fill:#00ff00;fill-opacity:1;stroke:none;stroke-width:100000;stroke-linecap:round;stroke-linejoin:round;stroke-opacity:1" />
  <g
     style="fill:#00ff00;stroke:none;stroke-linecap:round;stroke-linejoin:round;fill-opacity:1"
     id="g146">
    <g
       id="circle144"
       style="fill:#00ff00;fill-opacity:1;stroke:none">
      <path
         style="color:#000000;stroke:none;stroke-linecap:butt;stroke-linejoin:miter;-inkscape-stroke:none;fill:#00ff00;fill-opacity:1"
         d="m 160272190,86270000 a 1000000,1000000 0 0 1 -1000000,1000000 1000000,1000000 0 0 1 -1000000,-1000000 1000000,1000000 0 0 1 1000000,-1000000 1000000,1000000 0 0 1 1000000,1000000 z"
         id="path1887" />
      <path
         style="color:#000000;stroke:none;stroke-linecap:butt;stroke-linejoin:miter;-inkscape-stroke:none;fill:#00ff00;fill-opacity:1"
         d="m 159272190,85270000 c -131320,0 -261360,25865 -382680,76120 -121330,50255 -231570,123914 -324430,216773 -92860,92858 -166510,203098 -216770,324423 -50250,121326 -76120,251362 -76120,382684 0,131322 25870,261358 76120,382684 50260,121325 123910,231565 216770,324423 92860,92859 203100,166518 324430,216773 121320,50255 251360,76121 382680,76121 131320,0 261360,-25866 382680,-76121 121330,-50255 231570,-123914 324430,-216773 92860,-92858 166520,-203098 216770,-324423 50260,-121326 76120,-251362 76120,-382684 0,-131322 -25860,-261358 -76120,-382684 -50250,-121325 -123910,-231565 -216770,-324423 -92860,-92859 -203100,-166518 -324430,-216773 -121320,-50255 -251360,-76120 -382680,-76120 z m 0,1 c 131320,0 261360,25865 382680,76120 121330,50255 231570,123914 324430,216773 92860,92858 166510,203097 216770,324423 50250,121325 76120,251361 76120,382683 0,131322 -25870,261358 -76120,382683 -50260,121326 -123910,231565 -216770,324423 -92860,92859 -203100,166518 -324430,216773 -121320,50255 -251360,76121 -382680,76121 -131320,0 -261360,-25866 -382680,-76121 -121330,-50255 -231570,-123914 -324430,-216773 -92850,-92858 -166510,-203097 -216770,-324423 -50250,-121325 -76120,-251361 -76120,-382683 0,-131322 25870,-261358 76120,-382683 50260,-121326 123920,-231565 216770,-324423 92860,-92859 203100,-166518 324430,-216773 121320,-50255 251360,-76120 382680,-76120 z"
         id="path1889" />
    </g>
  </g>
  <g
     style="fill:#00ff00;fill-opacity:1;stroke:none;stroke-width:21200;stroke-linecap:round;stroke-linejoin:round;stroke-opacity:1"
     id="g148" />
  <g
     style="fill:#00ff00;stroke:none;stroke-linecap:round;stroke-linejoin:round;fill-opacity:1"
     id="g152">
    <g
       id="circle150"
       style="fill:#00ff00;fill-opacity:1;stroke:none">
      <path
         style="color:#000000;stroke:none;stroke-linecap:butt;stroke-linejoin:miter;-inkscape-stroke:none;fill:#00ff00;fill-opacity:1"
         d="m 157732190,86270000 a 1000000,1000000 0 0 1 -1000000,1000000 1000000,1000000 0 0 1 -1000000,-1000000 1000000,1000000 0 0 1 1000000,-1000000 1000000,1000000 0 0 1 1000000,1000000 z"
         id="path1881" />
      <path
         style="color:#000000;stroke:none;stroke-linecap:butt;stroke-linejoin:miter;-inkscape-stroke:none;fill:#00ff00;fill-opacity:1"
         d="m 156732190,85270000 c -131320,0 -261360,25865 -382680,76120 -121330,50255 -231570,123914 -324430,216773 -92860,92858 -166510,203098 -216770,324423 -50250,121326 -76120,251362 -76120,382684 0,131322 25870,261358 76120,382684 50260,121325 123910,231565 216770,324423 92860,92859 203100,166518 324430,216773 121320,50255 251360,76121 382680,76121 131320,0 261360,-25866 382680,-76121 121330,-50255 231570,-123914 324430,-216773 92860,-92858 166520,-203098 216770,-324423 50260,-121326 76120,-251362 76120,-382684 0,-131322 -25860,-261358 -76120,-382684 -50250,-121325 -123910,-231565 -216770,-324423 -92860,-92859 -203100,-166518 -324430,-216773 -121320,-50255 -251360,-76120 -382680,-76120 z m 0,1 c 131320,0 261360,25865 382680,76120 121330,50255 231570,123914 324430,216773 92860,92858 166510,203097 216770,324423 50250,121325 76120,251361 76120,382683 0,131322 -25870,261358 -76120,382683 -50260,121326 -123910,231565 -216770,324423 -92860,92859 -203100,166518 -324430,216773 -121320,50255 -251360,76121 -382680,76121 -131320,0 -261360,-25866 -382680,-76121 -121330,-50255 -231570,-123914 -324430,-216773 -92850,-92858 -166510,-203097 -216770,-324423 -50250,-121325 -76120,-251361 -76120,-382683 0,-131322 25870,-261358 76120,-382683 50260,-121326 123920,-231565 216770,-324423 92860,-92859 203100,-166518 324430,-216773 121320,-50255 251360,-76120 382680,-76120 z"
         id="path1883" />
    </g>
  </g>
  <g
     style="fill:#00ff00;fill-opacity:1;stroke:none;stroke-width:21200;stroke-linecap:round;stroke-linejoin:round;stroke-opacity:1"
     id="g154" />
  <g
     style="fill:#00ff00;stroke:none;stroke-linecap:round;stroke-linejoin:round;fill-opacity:1"
     id="g168">
    <g
       id="path156"
       style="fill:#00ff00;fill-opacity:1;stroke:none">
      <path
         style="color:#000000;fill-rule:evenodd;stroke:none;-inkscape-stroke:none;fill:#00ff00;fill-opacity:1"
         d="m 161042200,82170000 h -1000000 v 3150000 h 1000000 z"
         id="path1845" />
      <path
         style="color:#000000;fill-rule:evenodd;stroke:none;-inkscape-stroke:none;fill:#00ff00;fill-opacity:1"
         d="m 160042200,82170000 a 0.50005,0.50005 0 0 0 0,0 v 3150000 a 0.50005,0.50005 0 0 0 0,1 h 1000000 a 0.50005,0.50005 0 0 0 0,-1 v -3150000 a 0.50005,0.50005 0 0 0 0,0 z m 0,1 h 1000000 v 3149999 h -1000000 z"
         id="path1847" />
    </g>
    <g
       id="path158"
       style="fill:#00ff00;fill-opacity:1;stroke:none">
      <path
         style="color:#000000;fill-rule:evenodd;stroke:none;-inkscape-stroke:none;fill:#00ff00;fill-opacity:1"
         d="m 158502200,82170000 h -1000000 v 3150000 h 1000000 z"
         id="path1851" />
      <path
         style="color:#000000;fill-rule:evenodd;stroke:none;-inkscape-stroke:none;fill:#00ff00;fill-opacity:1"
         d="m 157502200,82170000 a 0.50005,0.50005 0 0 0 0,0 v 3150000 a 0.50005,0.50005 0 0 0 0,1 h 1000000 a 0.50005,0.50005 0 0 0 0,-1 v -3150000 a 0.50005,0.50005 0 0 0 0,0 z m 0,1 h 1000000 v 3149999 h -1000000 z"
         id="path1853" />
    </g>
    <g
       id="path160"
       style="fill:#00ff00;fill-opacity:1;stroke:none">
      <path
         style="color:#000000;fill-rule:evenodd;stroke:none;-inkscape-stroke:none;fill:#00ff00;fill-opacity:1"
         d="m 155962200,82170000 h -1000000 v 3150000 h 1000000 z"
         id="path1857" />
      <path
         style="color:#000000;fill-rule:evenodd;stroke:none;-inkscape-stroke:none;fill:#00ff00;fill-opacity:1"
         d="m 154962200,82170000 a 0.50005,0.50005 0 0 0 0,0 v 3150000 a 0.50005,0.50005 0 0 0 0,1 h 1000000 a 0.50005,0.50005 0 0 0 0,-1 v -3150000 a 0.50005,0.50005 0 0 0 0,0 z m 0,1 h 1000000 v 3149999 h -1000000 z"
         id="path1859" />
    </g>
    <g
       id="path162"
       style="fill:#00ff00;fill-opacity:1;stroke:none">
      <path
         style="color:#000000;fill-rule:evenodd;stroke:none;-inkscape-stroke:none;fill:#00ff00;fill-opacity:1"
         d="m 161042200,87220000 h -1000000 v 3150000 h 1000000 z"
         id="path1863" />
      <path
         style="color:#000000;fill-rule:evenodd;stroke:none;-inkscape-stroke:none;fill:#00ff00;fill-opacity:1"
         d="m 160042200,87220000 a 0.50005,0.50005 0 0 0 0,0 v 3150000 a 0.50005,0.50005 0 0 0 0,1 h 1000000 a 0.50005,0.50005 0 0 0 0,-1 v -3150000 a 0.50005,0.50005 0 0 0 0,0 z m 0,1 h 1000000 v 3149999 h -1000000 z"
         id="path1865" />
    </g>
    <g
       id="path164"
       style="fill:#00ff00;fill-opacity:1;stroke:none">
      <path
         style="color:#000000;fill-rule:evenodd;stroke:none;-inkscape-stroke:none;fill:#00ff00;fill-opacity:1"
         d="m 158502200,87220000 h -1000000 v 3150000 h 1000000 z"
         id="path1869" />
      <path
         style="color:#000000;fill-rule:evenodd;stroke:none;-inkscape-stroke:none;fill:#00ff00;fill-opacity:1"
         d="m 157502200,87220000 a 0.50005,0.50005 0 0 0 0,0 v 3150000 a 0.50005,0.50005 0 0 0 0,1 h 1000000 a 0.50005,0.50005 0 0 0 0,-1 v -3150000 a 0.50005,0.50005 0 0 0 0,0 z m 0,1 h 1000000 v 3149999 h -1000000 z"
         id="path1871" />
    </g>
    <g
       id="path166"
       style="fill:#00ff00;fill-opacity:1;stroke:none">
      <path
         style="color:#000000;fill-rule:evenodd;stroke:none;-inkscape-stroke:none;fill:#00ff00;fill-opacity:1"
         d="m 155962200,87220000 h -1000000 v 3150000 h 1000000 z"
         id="path1875" />
      <path
         style="color:#000000;fill-rule:evenodd;stroke:none;-inkscape-stroke:none;fill:#00ff00;fill-opacity:1"
         d="m 154962200,87220000 a 0.50005,0.50005 0 0 0 0,0 v 3150000 a 0.50005,0.50005 0 0 0 0,1 h 1000000 a 0.50005,0.50005 0 0 0 0,-1 v -3150000 a 0.50005,0.50005 0 0 0 0,0 z m 0,1 h 1000000 v 3149999 h -1000000 z"
         id="path1877" />
    </g>
  </g>
  <g
     id="g170"
     style="fill:#00ff00;fill-opacity:1;stroke:none;stroke-width:100000;stroke-linecap:round;stroke-linejoin:round;stroke-opacity:1" />
  <g
     style="fill:#00ff00;stroke:none;stroke-linecap:round;stroke-linejoin:round;fill-opacity:1"
     id="g176">
    <g
       id="path172"
       style="fill:#00ff00;fill-opacity:1;stroke:none">
      <path
         style="color:#000000;fill-rule:evenodd;stroke:none;-inkscape-stroke:none;fill:#00ff00;fill-opacity:1"
         d="m 205242200,129100000 19030,95670 54190,81110 81110,54190 95670,19030 h 825000 l 95670,-19030 81110,-54190 54190,-81110 19030,-95670 v -2200000 l -19030,-95670 -54190,-81110 -81110,-54190 -95670,-19030 h -825000 l -95670,19030 -81110,54190 -54190,81110 -19030,95670 z"
         id="path1833" />
      <path
         style="color:#000000;fill-rule:evenodd;stroke:none;-inkscape-stroke:none;fill:#00ff00;fill-opacity:1"
         d="m 205492200,126650000 a 0.50005,0.50005 0 0 0 0,0 l -95670,19030 a 0.50005,0.50005 0 0 0 0,0 l -81110,54190 a 0.50005,0.50005 0 0 0 0,0 l -54190,81110 a 0.50005,0.50005 0 0 0 0,0 l -19030,95670 a 0.50005,0.50005 0 0 0 0,0 v 2200000 a 0.50005,0.50005 0 0 0 0,0 l 19030,95670 a 0.50005,0.50005 0 0 0 0,0 l 54190,81110 a 0.50005,0.50005 0 0 0 0,0 l 81110,54190 a 0.50005,0.50005 0 0 0 0,0 l 95670,19030 a 0.50005,0.50005 0 0 0 0,0 h 825000 a 0.50005,0.50005 0 0 0 0,0 l 95670,-19030 a 0.50005,0.50005 0 0 0 0,0 l 81110,-54190 a 0.50005,0.50005 0 0 0 0,0 l 54190,-81110 a 0.50005,0.50005 0 0 0 0,0 l 19030,-95670 a 0.50005,0.50005 0 0 0 0,0 v -2200000 a 0.50005,0.50005 0 0 0 0,0 l -19030,-95670 a 0.50005,0.50005 0 0 0 0,0 l -54190,-81110 a 0.50005,0.50005 0 0 0 0,0 l -81110,-54190 a 0.50005,0.50005 0 0 0 0,0 l -95670,-19030 a 0.50005,0.50005 0 0 0 0,0 z m 0,0 h 825000 l 95670,19030 81110,54190 54190,81110 19030,95670 v 2200000 l -19030,95670 -54190,81110 -81110,54190 -95670,19030 h -825000 l -95670,-19030 -81110,-54190 -54190,-81110 -19030,-95670 v -2200000 l 19030,-95670 54190,-81110 81110,-54190 z"
         id="path1835" />
    </g>
    <g
       id="path174"
       style="fill:#00ff00;fill-opacity:1;stroke:none">
      <path
         style="color:#000000;fill-rule:evenodd;stroke:none;-inkscape-stroke:none;fill:#00ff00;fill-opacity:1"
         d="m 208367200,129100000 19030,95670 54190,81110 81110,54190 95670,19030 h 825000 l 95670,-19030 81110,-54190 54190,-81110 19030,-95670 v -2200000 l -19030,-95670 -54190,-81110 -81110,-54190 -95670,-19030 h -825000 l -95670,19030 -81110,54190 -54190,81110 -19030,95670 z"
         id="path1839" />
      <path
         style="color:#000000;fill-rule:evenodd;stroke:none;-inkscape-stroke:none;fill:#00ff00;fill-opacity:1"
         d="m 208617200,126650000 a 0.50005,0.50005 0 0 0 0,0 l -95670,19030 a 0.50005,0.50005 0 0 0 0,0 l -81110,54190 a 0.50005,0.50005 0 0 0 0,0 l -54190,81110 a 0.50005,0.50005 0 0 0 0,0 l -19030,95670 a 0.50005,0.50005 0 0 0 0,0 v 2200000 a 0.50005,0.50005 0 0 0 0,0 l 19030,95670 a 0.50005,0.50005 0 0 0 0,0 l 54190,81110 a 0.50005,0.50005 0 0 0 0,0 l 81110,54190 a 0.50005,0.50005 0 0 0 0,0 l 95670,19030 a 0.50005,0.50005 0 0 0 0,0 h 825000 a 0.50005,0.50005 0 0 0 0,0 l 95670,-19030 a 0.50005,0.50005 0 0 0 0,0 l 81110,-54190 a 0.50005,0.50005 0 0 0 0,0 l 54190,-81110 a 0.50005,0.50005 0 0 0 0,0 l 19030,-95670 a 0.50005,0.50005 0 0 0 0,0 v -2200000 a 0.50005,0.50005 0 0 0 0,0 l -19030,-95670 a 0.50005,0.50005 0 0 0 0,0 l -54190,-81110 a 0.50005,0.50005 0 0 0 0,0 l -81110,-54190 a 0.50005,0.50005 0 0 0 0,0 l -95670,-19030 a 0.50005,0.50005 0 0 0 0,0 z m 0,0 h 825000 l 95670,19030 81110,54190 54190,81110 19030,95670 v 2200000 l -19030,95670 -54190,81110 -81110,54190 -95670,19030 h -825000 l -95670,-19030 -81110,-54190 -54190,-81110 -19030,-95670 v -2200000 l 19030,-95670 54190,-81110 81110,-54190 z"
         id="path1841" />
    </g>
  </g>
  <g
     id="g178"
     style="fill:#00ff00;fill-opacity:1;stroke:none;stroke-width:100000;stroke-linecap:round;stroke-linejoin:round;stroke-opacity:1" />
  <g
     id="g180"
     style="fill:#00ff00;fill-opacity:1;stroke:none;stroke-width:100000;stroke-linecap:round;stroke-linejoin:round;stroke-opacity:1" />
  <g
     id="g182"
     style="fill:#00ff00;fill-opacity:1;stroke:none;stroke-width:100000;stroke-linecap:round;stroke-linejoin:round;stroke-opacity:1" />
  <rect
     style="fill:none;fill-opacity:1;stroke:#ff0000;stroke-width:10000;stroke-dasharray:none;stroke-opacity:1"
     id="rect2172"
     width="110009992"
     height="70010000"
     x="136997200"
     y="79995000" />
</svg>
