%TF.GenerationSoftware,KiCad,Pcbnew,6.0.6*%
%TF.CreationDate,2023-03-01T19:11:37+01:00*%
%TF.ProjectId,display,64697370-6c61-4792-9e6b-696361645f70,rev?*%
%TF.SameCoordinates,Original*%
%TF.FileFunction,Copper,L1,Top*%
%TF.FilePolarity,Positive*%
%FSLAX46Y46*%
G04 Gerber Fmt 4.6, Leading zero omitted, Abs format (unit mm)*
G04 Created by KiCad (PCBNEW 6.0.6) date 2023-03-01 19:11:37*
%MOMM*%
%LPD*%
G01*
G04 APERTURE LIST*
%TA.AperFunction,Profile*%
%ADD10C,0.100000*%
%TD*%
%TA.AperFunction,ComponentPad*%
%ADD11C,6.200000*%
%TD*%
%TA.AperFunction,ComponentPad*%
%ADD12R,1.700000X2.500000*%
%TD*%
%TA.AperFunction,ComponentPad*%
%ADD13O,1.700000X2.500000*%
%TD*%
G04 APERTURE END LIST*
D10*
X70000000Y-112500000D02*
G75*
G03*
X55000000Y-112500000I-7500000J0D01*
G01*
X55000000Y-127500000D02*
G75*
G03*
X70000000Y-127500000I7500000J0D01*
G01*
X55000000Y-112500000D02*
X55000000Y-127500000D01*
X70000000Y-112500000D02*
X70000000Y-127500000D01*
X160000000Y-150000000D02*
X150000000Y-150000000D01*
X150000000Y-136000000D01*
X89000000Y-136000000D01*
X89000000Y-150000000D01*
X50000000Y-150000000D01*
X50000000Y-80000000D01*
X160000000Y-80000000D01*
X160000000Y-150000000D01*
D11*
%TO.P,H3,1,1*%
%TO.N,GND*%
X155000000Y-145000000D03*
%TD*%
%TO.P,DI1,*%
%TO.N,*%
X147000000Y-83410000D03*
X77000000Y-83410000D03*
X77000000Y-133110000D03*
X147000000Y-133110000D03*
D12*
%TO.P,DI1,1,VDD*%
%TO.N,+5V*%
X87862500Y-133080000D03*
D13*
%TO.P,DI1,2,VSS*%
%TO.N,GND*%
X90402500Y-133080000D03*
%TO.P,DI1,3,NC*%
%TO.N,unconnected-(DI1-Pad3)*%
X92942500Y-133080000D03*
%TO.P,DI1,4,DB0*%
%TO.N,/SCL*%
X95482500Y-133080000D03*
%TO.P,DI1,5,DB1*%
%TO.N,/SDA*%
X98022500Y-133080000D03*
%TO.P,DI1,6,DB2*%
X100562500Y-133080000D03*
%TO.P,DI1,7,DB3*%
%TO.N,GND*%
X103102500Y-133080000D03*
%TO.P,DI1,8,DB4*%
X105642500Y-133080000D03*
%TO.P,DI1,9,DB5*%
X108182500Y-133080000D03*
%TO.P,DI1,10,DB6*%
X110722500Y-133080000D03*
%TO.P,DI1,11,DB7*%
X113262500Y-133080000D03*
%TO.P,DI1,12,~{CS}*%
X115802500Y-133080000D03*
%TO.P,DI1,13,NC*%
%TO.N,unconnected-(DI1-Pad13)*%
X118342500Y-133080000D03*
%TO.P,DI1,14,~{RESET}*%
%TO.N,/~{RST_DISP}*%
X120882500Y-133080000D03*
%TO.P,DI1,15,WR*%
%TO.N,GND*%
X123422500Y-133080000D03*
%TO.P,DI1,16,RS*%
X125962500Y-133080000D03*
%TO.P,DI1,17,RD*%
X128502500Y-133080000D03*
%TO.P,DI1,18,NC*%
%TO.N,unconnected-(DI1-Pad18)*%
X131042500Y-133080000D03*
%TO.P,DI1,19,DISP*%
%TO.N,unconnected-(DI1-Pad19)*%
X133582500Y-133080000D03*
%TO.P,DI1,20,NC*%
%TO.N,unconnected-(DI1-Pad20)*%
X136122500Y-133080000D03*
%TD*%
D11*
%TO.P,H2,1,1*%
%TO.N,GND*%
X55000000Y-85000000D03*
%TD*%
%TO.P,H1,1,1*%
%TO.N,GND*%
X55000000Y-145000000D03*
%TD*%
%TO.P,H4,1,1*%
%TO.N,GND*%
X155000000Y-85000000D03*
%TD*%
M02*
