<?xml version="1.0" encoding="UTF-8" standalone="no"?>
<svg
   version="1.1"
   width="29.700220cm"
   height="21.000720cm"
   viewBox="0 0 297002200 210007200"
   id="svg264"
   sodipodi:docname="display-B_Paste.svg"
   inkscape:version="1.2.1 (9c6d41e410, 2022-07-14)"
   xmlns:inkscape="http://www.inkscape.org/namespaces/inkscape"
   xmlns:sodipodi="http://sodipodi.sourceforge.net/DTD/sodipodi-0.dtd"
   xmlns="http://www.w3.org/2000/svg"
   xmlns:svg="http://www.w3.org/2000/svg">
  <defs
     id="defs268" />
  <sodipodi:namedview
     id="namedview266"
     pagecolor="#ffffff"
     bordercolor="#666666"
     borderopacity="1.0"
     inkscape:showpageshadow="2"
     inkscape:pageopacity="0.0"
     inkscape:pagecheckerboard="0"
     inkscape:deskcolor="#d1d1d1"
     inkscape:document-units="cm"
     showgrid="false"
     inkscape:zoom="2.3766842"
     inkscape:cx="724.11809"
     inkscape:cy="434.84953"
     inkscape:window-width="1466"
     inkscape:window-height="942"
     inkscape:window-x="119"
     inkscape:window-y="71"
     inkscape:window-maximized="0"
     inkscape:current-layer="svg264" />
  <title
     id="title192">SVG Picture created as display-B_Paste.svg date 2023/03/06 11:12:55 </title>
  <desc
     id="desc194">Picture generated by PCBNEW </desc>
  <g
     style="fill:#000000; fill-opacity:1.000000;stroke:#000000; stroke-opacity:1.000000; stroke-linecap:round; stroke-linejoin:round;"
     transform="translate(0 0) scale(1 1)"
     id="g196" />
  <g
     style="fill:#000000; fill-opacity:0.0;  stroke:#000000; stroke-width:0.000000; stroke-opacity:1;  stroke-linecap:round; stroke-linejoin:round;"
     id="g198" />
  <path
     d="m 242002200,112500000 a 7500000,7500000 0 0 0 -15000000,0"
     id="path200"
     style="fill:none;fill-opacity:0;stroke:#00ffff;stroke-width:100000;stroke-linecap:round;stroke-linejoin:round;stroke-opacity:1" />
  <path
     d="m 227002200,127500000 a 7500000,7500000 0 0 0 15000000,0"
     id="path202"
     style="fill:none;fill-opacity:0;stroke:#00ffff;stroke-width:100000;stroke-linecap:round;stroke-linejoin:round;stroke-opacity:1" />
  <path
     d="m 242002200,112500000 v 15000000"
     id="path204"
     style="fill:none;fill-opacity:0;stroke:#00ffff;stroke-width:100000;stroke-linecap:round;stroke-linejoin:round;stroke-opacity:1" />
  <path
     d="m 227002200,112500000 v 15000000"
     id="path206"
     style="fill:none;fill-opacity:0;stroke:#00ffff;stroke-width:100000;stroke-linecap:round;stroke-linejoin:round;stroke-opacity:1" />
  <path
     style="fill:none;fill-opacity:0;stroke:#ff0000;stroke-width:10000.00158334;stroke-linecap:round;stroke-linejoin:round;stroke-opacity:1;stroke-dasharray:none"
     d="m 137002200,150000000 h 10000000 v -14000000 h 61000000 v 14000000 h 39000000 V 80000000 H 137002200 Z"
     id="path208" />
  <g
     id="g210"
     style="fill:#000000;fill-opacity:0;stroke:#000000;stroke-width:100000;stroke-linecap:round;stroke-linejoin:round;stroke-opacity:1" />
  <g
     id="g212"
     style="fill:#000000;fill-opacity:0;stroke:#000000;stroke-width:100000;stroke-linecap:round;stroke-linejoin:round;stroke-opacity:1" />
  <g
     id="g214"
     style="fill:#000000;fill-opacity:0;stroke:#000000;stroke-width:100000;stroke-linecap:round;stroke-linejoin:round;stroke-opacity:1" />
  <g
     id="g216"
     style="fill:#000000;fill-opacity:0;stroke:#000000;stroke-width:100000;stroke-linecap:round;stroke-linejoin:round;stroke-opacity:1" />
  <g
     id="g218"
     style="fill:#000000;fill-opacity:0;stroke:#000000;stroke-width:100000;stroke-linecap:round;stroke-linejoin:round;stroke-opacity:1" />
  <g
     id="g220"
     style="fill:#000000;fill-opacity:0;stroke:#000000;stroke-width:100000;stroke-linecap:round;stroke-linejoin:round;stroke-opacity:1" />
  <g
     style="fill:#000000;fill-opacity:0;stroke:#000000;stroke-width:100000;stroke-linecap:round;stroke-linejoin:round;stroke-opacity:1"
     id="g222" />
  <g
     style="fill:#000000;fill-opacity:0;stroke:#000000;stroke-width:1;stroke-linecap:round;stroke-linejoin:round;stroke-opacity:1"
     id="g224" />
  <g
     style="fill:#000000;stroke:none;stroke-linecap:round;stroke-linejoin:round"
     id="g230">
    <g
       id="path226"
       style="stroke:none">
      <path
         style="color:#000000;fill-rule:evenodd;stroke:none;-inkscape-stroke:none"
         d="m 176682200,127566000 -19030,-95670 -54190,-81110 -81110,-54190 -95670,-19030 h -700000 l -95670,19030 -81110,54190 -54190,81110 -19030,95670 v 900000 l 19030,95670 54190,81110 81110,54190 95670,19030 h 700000 l 95670,-19030 81110,-54190 54190,-81110 19030,-95670 z"
         id="path1138" />
      <path
         style="color:#000000;fill-rule:evenodd;stroke:none;-inkscape-stroke:none"
         d="m 175732200,127316000 a 0.50005,0.50005 0 0 0 0,0 l -95670,19030 a 0.50005,0.50005 0 0 0 0,0 l -81110,54190 a 0.50005,0.50005 0 0 0 0,0 l -54190,81110 a 0.50005,0.50005 0 0 0 0,0 l -19030,95670 a 0.50005,0.50005 0 0 0 0,0 v 900000 a 0.50005,0.50005 0 0 0 0,0 l 19030,95670 a 0.50005,0.50005 0 0 0 0,0 l 54190,81110 a 0.50005,0.50005 0 0 0 0,0 l 81110,54190 a 0.50005,0.50005 0 0 0 0,0 l 95670,19030 a 0.50005,0.50005 0 0 0 0,0 h 700000 a 0.50005,0.50005 0 0 0 0,0 l 95670,-19030 a 0.50005,0.50005 0 0 0 0,0 l 81110,-54190 a 0.50005,0.50005 0 0 0 0,0 l 54190,-81110 a 0.50005,0.50005 0 0 0 0,0 l 19030,-95670 a 0.50005,0.50005 0 0 0 0,0 v -900000 a 0.50005,0.50005 0 0 0 0,0 l -19030,-95670 a 0.50005,0.50005 0 0 0 0,0 l -54190,-81110 a 0.50005,0.50005 0 0 0 0,0 l -81110,-54190 a 0.50005,0.50005 0 0 0 0,0 l -95670,-19030 a 0.50005,0.50005 0 0 0 0,0 z m 0,0 h 700000 l 95670,19030 81110,54190 54190,81110 19030,95670 v 900000 l -19030,95670 -54190,81110 -81110,54190 -95670,19030 h -700000 l -95670,-19030 -81110,-54190 -54190,-81110 -19030,-95670 v -900000 l 19030,-95670 54190,-81110 81110,-54190 z"
         id="path1140" />
    </g>
    <g
       id="path228"
       style="stroke:none">
      <path
         style="color:#000000;fill-rule:evenodd;stroke:none;-inkscape-stroke:none"
         d="m 174682200,127566000 -19030,-95670 -54190,-81110 -81110,-54190 -95670,-19030 h -700000 l -95670,19030 -81110,54190 -54190,81110 -19030,95670 v 900000 l 19030,95670 54190,81110 81110,54190 95670,19030 h 700000 l 95670,-19030 81110,-54190 54190,-81110 19030,-95670 z"
         id="path1144" />
      <path
         style="color:#000000;fill-rule:evenodd;stroke:none;-inkscape-stroke:none"
         d="m 173732200,127316000 a 0.50005,0.50005 0 0 0 0,0 l -95670,19030 a 0.50005,0.50005 0 0 0 0,0 l -81110,54190 a 0.50005,0.50005 0 0 0 0,0 l -54190,81110 a 0.50005,0.50005 0 0 0 0,0 l -19030,95670 a 0.50005,0.50005 0 0 0 0,0 v 900000 a 0.50005,0.50005 0 0 0 0,0 l 19030,95670 a 0.50005,0.50005 0 0 0 0,0 l 54190,81110 a 0.50005,0.50005 0 0 0 0,0 l 81110,54190 a 0.50005,0.50005 0 0 0 0,0 l 95670,19030 a 0.50005,0.50005 0 0 0 0,0 h 700000 a 0.50005,0.50005 0 0 0 0,0 l 95670,-19030 a 0.50005,0.50005 0 0 0 0,0 l 81110,-54190 a 0.50005,0.50005 0 0 0 0,0 l 54190,-81110 a 0.50005,0.50005 0 0 0 0,0 l 19030,-95670 a 0.50005,0.50005 0 0 0 0,0 v -900000 a 0.50005,0.50005 0 0 0 0,0 l -19030,-95670 a 0.50005,0.50005 0 0 0 0,0 l -54190,-81110 a 0.50005,0.50005 0 0 0 0,0 l -81110,-54190 a 0.50005,0.50005 0 0 0 0,0 l -95670,-19030 a 0.50005,0.50005 0 0 0 0,0 z m 0,0 h 700000 l 95670,19030 81110,54190 54190,81110 19030,95670 v 900000 l -19030,95670 -54190,81110 -81110,54190 -95670,19030 h -700000 l -95670,-19030 -81110,-54190 -54190,-81110 -19030,-95670 v -900000 l 19030,-95670 54190,-81110 81110,-54190 z"
         id="path1146" />
    </g>
  </g>
  <g
     id="g232"
     style="fill:#000000;fill-opacity:0;stroke:#000000;stroke-width:100000;stroke-linecap:round;stroke-linejoin:round;stroke-opacity:1" />
  <g
     style="fill:#000000;stroke:none;stroke-linecap:round;stroke-linejoin:round"
     id="g246">
    <g
       id="path234"
       style="stroke:none">
      <path
         style="color:#000000;fill-rule:evenodd;stroke:none;-inkscape-stroke:none"
         d="m 161042200,82170000 h -1000000 v 3150000 h 1000000 z"
         id="path1150" />
      <path
         style="color:#000000;fill-rule:evenodd;stroke:none;-inkscape-stroke:none"
         d="m 160042200,82170000 a 0.50005,0.50005 0 0 0 0,0 v 3150000 a 0.50005,0.50005 0 0 0 0,1 h 1000000 a 0.50005,0.50005 0 0 0 0,-1 v -3150000 a 0.50005,0.50005 0 0 0 0,0 z m 0,1 h 1000000 v 3149999 h -1000000 z"
         id="path1152" />
    </g>
    <g
       id="path236"
       style="stroke:none">
      <path
         style="color:#000000;fill-rule:evenodd;stroke:none;-inkscape-stroke:none"
         d="m 158502200,82170000 h -1000000 v 3150000 h 1000000 z"
         id="path1156" />
      <path
         style="color:#000000;fill-rule:evenodd;stroke:none;-inkscape-stroke:none"
         d="m 157502200,82170000 a 0.50005,0.50005 0 0 0 0,0 v 3150000 a 0.50005,0.50005 0 0 0 0,1 h 1000000 a 0.50005,0.50005 0 0 0 0,-1 v -3150000 a 0.50005,0.50005 0 0 0 0,0 z m 0,1 h 1000000 v 3149999 h -1000000 z"
         id="path1158" />
    </g>
    <g
       id="path238"
       style="stroke:none">
      <path
         style="color:#000000;fill-rule:evenodd;stroke:none;-inkscape-stroke:none"
         d="m 155962200,82170000 h -1000000 v 3150000 h 1000000 z"
         id="path1162" />
      <path
         style="color:#000000;fill-rule:evenodd;stroke:none;-inkscape-stroke:none"
         d="m 154962200,82170000 a 0.50005,0.50005 0 0 0 0,0 v 3150000 a 0.50005,0.50005 0 0 0 0,1 h 1000000 a 0.50005,0.50005 0 0 0 0,-1 v -3150000 a 0.50005,0.50005 0 0 0 0,0 z m 0,1 h 1000000 v 3149999 h -1000000 z"
         id="path1164" />
    </g>
    <g
       id="path240"
       style="stroke:none">
      <path
         style="color:#000000;fill-rule:evenodd;stroke:none;-inkscape-stroke:none"
         d="m 161042200,87220000 h -1000000 v 3150000 h 1000000 z"
         id="path1168" />
      <path
         style="color:#000000;fill-rule:evenodd;stroke:none;-inkscape-stroke:none"
         d="m 160042200,87220000 a 0.50005,0.50005 0 0 0 0,0 v 3150000 a 0.50005,0.50005 0 0 0 0,1 h 1000000 a 0.50005,0.50005 0 0 0 0,-1 v -3150000 a 0.50005,0.50005 0 0 0 0,0 z m 0,1 h 1000000 v 3149999 h -1000000 z"
         id="path1170" />
    </g>
    <g
       id="path242"
       style="stroke:none">
      <path
         style="color:#000000;fill-rule:evenodd;stroke:none;-inkscape-stroke:none"
         d="m 158502200,87220000 h -1000000 v 3150000 h 1000000 z"
         id="path1174" />
      <path
         style="color:#000000;fill-rule:evenodd;stroke:none;-inkscape-stroke:none"
         d="m 157502200,87220000 a 0.50005,0.50005 0 0 0 0,0 v 3150000 a 0.50005,0.50005 0 0 0 0,1 h 1000000 a 0.50005,0.50005 0 0 0 0,-1 v -3150000 a 0.50005,0.50005 0 0 0 0,0 z m 0,1 h 1000000 v 3149999 h -1000000 z"
         id="path1176" />
    </g>
    <g
       id="path244"
       style="stroke:none">
      <path
         style="color:#000000;fill-rule:evenodd;stroke:none;-inkscape-stroke:none"
         d="m 155962200,87220000 h -1000000 v 3150000 h 1000000 z"
         id="path1180" />
      <path
         style="color:#000000;fill-rule:evenodd;stroke:none;-inkscape-stroke:none"
         d="m 154962200,87220000 a 0.50005,0.50005 0 0 0 0,0 v 3150000 a 0.50005,0.50005 0 0 0 0,1 h 1000000 a 0.50005,0.50005 0 0 0 0,-1 v -3150000 a 0.50005,0.50005 0 0 0 0,0 z m 0,1 h 1000000 v 3149999 h -1000000 z"
         id="path1182" />
    </g>
  </g>
  <g
     id="g248"
     style="fill:#000000;fill-opacity:0;stroke:#000000;stroke-width:100000;stroke-linecap:round;stroke-linejoin:round;stroke-opacity:1" />
  <g
     style="fill:#000000;stroke:none;stroke-linecap:round;stroke-linejoin:round"
     id="g254">
    <g
       id="path250"
       style="stroke:none">
      <path
         style="color:#000000;fill-rule:evenodd;stroke:none;-inkscape-stroke:none"
         d="m 205242200,129100000 19030,95670 54190,81110 81110,54190 95670,19030 h 825000 l 95670,-19030 81110,-54190 54190,-81110 19030,-95670 v -2200000 l -19030,-95670 -54190,-81110 -81110,-54190 -95670,-19030 h -825000 l -95670,19030 -81110,54190 -54190,81110 -19030,95670 z"
         id="path1186" />
      <path
         style="color:#000000;fill-rule:evenodd;stroke:none;-inkscape-stroke:none"
         d="m 205492200,126650000 a 0.50005,0.50005 0 0 0 0,0 l -95670,19030 a 0.50005,0.50005 0 0 0 0,0 l -81110,54190 a 0.50005,0.50005 0 0 0 0,0 l -54190,81110 a 0.50005,0.50005 0 0 0 0,0 l -19030,95670 a 0.50005,0.50005 0 0 0 0,0 v 2200000 a 0.50005,0.50005 0 0 0 0,0 l 19030,95670 a 0.50005,0.50005 0 0 0 0,0 l 54190,81110 a 0.50005,0.50005 0 0 0 0,0 l 81110,54190 a 0.50005,0.50005 0 0 0 0,0 l 95670,19030 a 0.50005,0.50005 0 0 0 0,0 h 825000 a 0.50005,0.50005 0 0 0 0,0 l 95670,-19030 a 0.50005,0.50005 0 0 0 0,0 l 81110,-54190 a 0.50005,0.50005 0 0 0 0,0 l 54190,-81110 a 0.50005,0.50005 0 0 0 0,0 l 19030,-95670 a 0.50005,0.50005 0 0 0 0,0 v -2200000 a 0.50005,0.50005 0 0 0 0,0 l -19030,-95670 a 0.50005,0.50005 0 0 0 0,0 l -54190,-81110 a 0.50005,0.50005 0 0 0 0,0 l -81110,-54190 a 0.50005,0.50005 0 0 0 0,0 l -95670,-19030 a 0.50005,0.50005 0 0 0 0,0 z m 0,0 h 825000 l 95670,19030 81110,54190 54190,81110 19030,95670 v 2200000 l -19030,95670 -54190,81110 -81110,54190 -95670,19030 h -825000 l -95670,-19030 -81110,-54190 -54190,-81110 -19030,-95670 v -2200000 l 19030,-95670 54190,-81110 81110,-54190 z"
         id="path1188" />
    </g>
    <g
       id="path252"
       style="stroke:none">
      <path
         style="color:#000000;fill-rule:evenodd;stroke:none;-inkscape-stroke:none"
         d="m 208367200,129100000 19030,95670 54190,81110 81110,54190 95670,19030 h 825000 l 95670,-19030 81110,-54190 54190,-81110 19030,-95670 v -2200000 l -19030,-95670 -54190,-81110 -81110,-54190 -95670,-19030 h -825000 l -95670,19030 -81110,54190 -54190,81110 -19030,95670 z"
         id="path1192" />
      <path
         style="color:#000000;fill-rule:evenodd;stroke:none;-inkscape-stroke:none"
         d="m 208617200,126650000 a 0.50005,0.50005 0 0 0 0,0 l -95670,19030 a 0.50005,0.50005 0 0 0 0,0 l -81110,54190 a 0.50005,0.50005 0 0 0 0,0 l -54190,81110 a 0.50005,0.50005 0 0 0 0,0 l -19030,95670 a 0.50005,0.50005 0 0 0 0,0 v 2200000 a 0.50005,0.50005 0 0 0 0,0 l 19030,95670 a 0.50005,0.50005 0 0 0 0,0 l 54190,81110 a 0.50005,0.50005 0 0 0 0,0 l 81110,54190 a 0.50005,0.50005 0 0 0 0,0 l 95670,19030 a 0.50005,0.50005 0 0 0 0,0 h 825000 a 0.50005,0.50005 0 0 0 0,0 l 95670,-19030 a 0.50005,0.50005 0 0 0 0,0 l 81110,-54190 a 0.50005,0.50005 0 0 0 0,0 l 54190,-81110 a 0.50005,0.50005 0 0 0 0,0 l 19030,-95670 a 0.50005,0.50005 0 0 0 0,0 v -2200000 a 0.50005,0.50005 0 0 0 0,0 l -19030,-95670 a 0.50005,0.50005 0 0 0 0,0 l -54190,-81110 a 0.50005,0.50005 0 0 0 0,0 l -81110,-54190 a 0.50005,0.50005 0 0 0 0,0 l -95670,-19030 a 0.50005,0.50005 0 0 0 0,0 z m 0,0 h 825000 l 95670,19030 81110,54190 54190,81110 19030,95670 v 2200000 l -19030,95670 -54190,81110 -81110,54190 -95670,19030 h -825000 l -95670,-19030 -81110,-54190 -54190,-81110 -19030,-95670 v -2200000 l 19030,-95670 54190,-81110 81110,-54190 z"
         id="path1194" />
    </g>
  </g>
  <g
     id="g256"
     style="fill:#000000;fill-opacity:0;stroke:#000000;stroke-width:100000;stroke-linecap:round;stroke-linejoin:round;stroke-opacity:1" />
  <g
     id="g258"
     style="fill:#000000;fill-opacity:0;stroke:#000000;stroke-width:100000;stroke-linecap:round;stroke-linejoin:round;stroke-opacity:1" />
  <g
     id="g260"
     style="fill:#000000;fill-opacity:0;stroke:#000000;stroke-width:100000;stroke-linecap:round;stroke-linejoin:round;stroke-opacity:1" />
</svg>
