M48
; DRILL file {KiCad 6.0.6} date Wed Mar  1 19:11:47 2023
; FORMAT={-:-/ absolute / inch / decimal}
; #@! TF.CreationDate,2023-03-01T19:11:47+01:00
; #@! TF.GenerationSoftware,Kicad,Pcbnew,6.0.6
; #@! TF.FileFunction,MixedPlating,1,2
FMAT,2
INCH
; #@! TA.AperFunction,Plated,PTH,ComponentDrill
T1C0.0354
; #@! TA.AperFunction,Plated,PTH,ComponentDrill
T2C0.1260
; #@! TA.AperFunction,Plated,PTH,ComponentDrill
T3C0.1457
; #@! TA.AperFunction,NonPlated,NPTH,ComponentDrill
T4C0.0787
%
G90
G05
T1
X3.4592Y-5.2394
X3.5592Y-5.2394
X3.6592Y-5.2394
X3.7592Y-5.2394
X3.8592Y-5.2394
X3.9592Y-5.2394
X4.0592Y-5.2394
X4.1592Y-5.2394
X4.2592Y-5.2394
X4.3592Y-5.2394
X4.4592Y-5.2394
X4.5592Y-5.2394
X4.6592Y-5.2394
X4.7592Y-5.2394
X4.8592Y-5.2394
X4.9592Y-5.2394
X5.0592Y-5.2394
X5.1592Y-5.2394
X5.2592Y-5.2394
X5.3592Y-5.2394
T2
X2.1654Y-3.3465
X2.1654Y-5.7087
X6.1024Y-3.3465
X6.1024Y-5.7087
T3
X3.0315Y-3.2839
X3.0315Y-5.2406
X5.7874Y-3.2839
X5.7874Y-5.2406
T4
X5.4224Y-3.3965
X5.5224Y-3.3965
T0
M30
