  0
SECTION
  2
HEADER
  9
$ANGBASE
  50
0.0
  9
$ANGDIR
  70
1
  9
$MEASUREMENT
  70
1
  0
ENDSEC
  0
SECTION
  2
TABLES
  0
TABLE
  2
LTYPE
  70
4
  0
LTYPE
  5
40F
  2
CONTINUOUS
  70
0
  3
Solid line
  72
65
  73
0
  40
0.0
  0
LTYPE
  5
410
  2
DASHDOT
 70
0
  3
Dash Dot ____ _ ____ _
 72
65
 73
4
 40
2.0
 49
1.25
 49
-0.25
 49
0.25
 49
-0.25
  0
LTYPE
  5
411
  2
DASHED
 70
0
  3
Dashed __ __ __ __ __
 72
65
 73
2
 40
0.75
 49
0.5
 49
-0.25
  0
LTYPE
  5
43B
  2
DOTTED
 70
0
  3
Dotted .  .  .  .
 72
65
 73
2
 40
0.2
 49
0.0
 49
-0.2
  0
ENDTAB
  0
TABLE
  2
STYLE
  70
4
  0
STYLE
  2
KICAD
  70
0
  40
0
  41
1
  42
1
  50
0
  71
0
  3
isocp.shx
  0
STYLE
  2
KICADB
  70
0
  40
0
  41
1
  42
1
  50
0
  71
0
  3
isocp.shx
  0
STYLE
  2
KICADI
  70
0
  40
0
  41
1
  42
1
  50
15
  71
0
  3
isocp.shx
  0
STYLE
  2
KICADBI
  70
0
  40
0
  41
1
  42
1
  50
15
  71
0
  3
isocp.shx
  0
ENDTAB
  0
TABLE
  2
LAYER
  70
1
  0
LAYER
  2
BLACK
  70
0
  62
7
  6
CONTINUOUS
  0
ENDTAB
  0
ENDSEC
  0
SECTION
  2
ENTITIES
0
LINE
8
BLACK
6
CONTINUOUS
10
149.965
20
-150.035
11
149.95
21
-150
0
LINE
8
BLACK
6
CONTINUOUS
10
149.95
20
-150
11
149.95
21
-136.05
0
LINE
8
BLACK
6
CONTINUOUS
10
149.95
20
-136.05
11
89.05
21
-136.05
0
LINE
8
BLACK
6
CONTINUOUS
10
89.05
20
-136.05
11
89.05
21
-150
0
LINE
8
BLACK
6
CONTINUOUS
10
89.05
20
-150
11
89.0354
21
-150.035
0
LINE
8
BLACK
6
CONTINUOUS
10
89.0354
20
-150.035
11
89
21
-150.05
0
LINE
8
BLACK
6
CONTINUOUS
10
89
20
-150.05
11
50
21
-150.05
0
LINE
8
BLACK
6
CONTINUOUS
10
50
20
-150.05
11
49.9646
21
-150.035
0
LINE
8
BLACK
6
CONTINUOUS
10
49.9646
20
-150.035
11
49.95
21
-150
0
LINE
8
BLACK
6
CONTINUOUS
10
49.95
20
-150
11
49.95
21
-80
0
LINE
8
BLACK
6
CONTINUOUS
10
49.95
20
-80
11
49.9646
21
-79.9646
0
LINE
8
BLACK
6
CONTINUOUS
10
49.9646
20
-79.9646
11
50
21
-79.95
0
LINE
8
BLACK
6
CONTINUOUS
10
50
20
-79.95
11
160
21
-79.95
0
LINE
8
BLACK
6
CONTINUOUS
10
160
20
-79.95
11
160.035
21
-79.9646
0
LINE
8
BLACK
6
CONTINUOUS
10
160.035
20
-79.9646
11
160.05
21
-80
0
LINE
8
BLACK
6
CONTINUOUS
10
160.05
20
-80
11
160.05
21
-150
0
LINE
8
BLACK
6
CONTINUOUS
10
160.05
20
-150
11
160.035
21
-150.035
0
LINE
8
BLACK
6
CONTINUOUS
10
160.035
20
-150.035
11
160
21
-150.05
0
LINE
8
BLACK
6
CONTINUOUS
10
160
20
-150.05
11
150
21
-150.05
0
LINE
8
BLACK
6
CONTINUOUS
10
150
20
-150.05
11
149.965
21
-150.035
0
LINE
8
BLACK
6
CONTINUOUS
10
150.05
20
-136
11
150.05
21
-149.95
0
LINE
8
BLACK
6
CONTINUOUS
10
150.05
20
-149.95
11
159.95
21
-149.95
0
LINE
8
BLACK
6
CONTINUOUS
10
159.95
20
-149.95
11
159.95
21
-80.05
0
LINE
8
BLACK
6
CONTINUOUS
10
159.95
20
-80.05
11
50.05
21
-80.05
0
LINE
8
BLACK
6
CONTINUOUS
10
50.05
20
-80.05
11
50.05
21
-149.95
0
LINE
8
BLACK
6
CONTINUOUS
10
50.05
20
-149.95
11
88.95
21
-149.95
0
LINE
8
BLACK
6
CONTINUOUS
10
88.95
20
-149.95
11
88.95
21
-136
0
LINE
8
BLACK
6
CONTINUOUS
10
88.95
20
-136
11
88.9646
21
-135.965
0
LINE
8
BLACK
6
CONTINUOUS
10
88.9646
20
-135.965
11
89
21
-135.95
0
LINE
8
BLACK
6
CONTINUOUS
10
89
20
-135.95
11
150
21
-135.95
0
LINE
8
BLACK
6
CONTINUOUS
10
150
20
-135.95
11
150.035
21
-135.965
0
LINE
8
BLACK
6
CONTINUOUS
10
150.035
20
-135.965
11
150.05
21
-136
  0
ENDSEC
  0
EOF
