<?xml version="1.0" encoding="UTF-8" standalone="no"?>
<svg
   version="1.1"
   width="29.700220cm"
   height="21.000720cm"
   viewBox="0 0 297002200 210007200"
   id="svg1295"
   sodipodi:docname="control-B_Paste.svg"
   inkscape:version="1.2.1 (9c6d41e410, 2022-07-14)"
   xmlns:inkscape="http://www.inkscape.org/namespaces/inkscape"
   xmlns:sodipodi="http://sodipodi.sourceforge.net/DTD/sodipodi-0.dtd"
   xmlns="http://www.w3.org/2000/svg"
   xmlns:svg="http://www.w3.org/2000/svg">
  <defs
     id="defs1299" />
  <sodipodi:namedview
     id="namedview1297"
     pagecolor="#ffffff"
     bordercolor="#666666"
     borderopacity="1.0"
     inkscape:showpageshadow="2"
     inkscape:pageopacity="0.0"
     inkscape:pagecheckerboard="0"
     inkscape:deskcolor="#d1d1d1"
     inkscape:document-units="cm"
     showgrid="false"
     inkscape:zoom="2.1589648"
     inkscape:cx="723.49488"
     inkscape:cy="434.69907"
     inkscape:window-width="1447"
     inkscape:window-height="1080"
     inkscape:window-x="109"
     inkscape:window-y="0"
     inkscape:window-maximized="0"
     inkscape:current-layer="svg1295" />
  <title
     id="title1023">SVG Picture created as control-B_Paste.svg date 2023/02/28 16:17:17 </title>
  <desc
     id="desc1025">Picture generated by PCBNEW </desc>
  <g
     style="fill:#000000; fill-opacity:1.000000;stroke:#000000; stroke-opacity:1.000000; stroke-linecap:round; stroke-linejoin:round;"
     transform="translate(0 0) scale(1 1)"
     id="g1027" />
  <g
     style="fill:#000000; fill-opacity:0.0;  stroke:#000000; stroke-width:0.000000; stroke-opacity:1;  stroke-linecap:round; stroke-linejoin:round;"
     id="g1029" />
  <path
     d="M 252002200,70000000 H 132002200"
     id="path1031"
     style="fill:none;fill-opacity:0;stroke:#ff0000;stroke-width:10000.00158334;stroke-linecap:round;stroke-linejoin:round;stroke-opacity:1;stroke-dasharray:none" />
  <path
     d="m 132002200,70000000 v 90000000"
     id="path1033"
     style="fill:none;fill-opacity:0;stroke:#ff0000;stroke-width:10000.00158334;stroke-linecap:round;stroke-linejoin:round;stroke-opacity:1;stroke-dasharray:none" />
  <path
     d="M 132002200,160000000 H 252002200"
     id="path1035"
     style="fill:none;fill-opacity:0;stroke:#ff0000;stroke-width:10000.00158334;stroke-linecap:round;stroke-linejoin:round;stroke-opacity:1;stroke-dasharray:none" />
  <path
     d="M 252002200,160000000 V 70000000"
     id="path1037"
     style="fill:none;fill-opacity:0;stroke:#ff0000;stroke-width:10000.00158334;stroke-linecap:round;stroke-linejoin:round;stroke-opacity:1;stroke-dasharray:none" />
  <path
     style="fill:none;fill-opacity:0;stroke:#00ffff;stroke-width:100000;stroke-linecap:round;stroke-linejoin:round;stroke-opacity:1"
     d="m 137002200,150000000 h 10000000 v -14000000 h 61000000 v 14000000 h 39000000 V 80000000 H 137002200 Z"
     id="path1039" />
  <g
     id="g1041"
     style="fill:#000000;fill-opacity:0;stroke:#000000;stroke-width:100000;stroke-linecap:round;stroke-linejoin:round;stroke-opacity:1" />
  <g
     id="g1043"
     style="fill:#000000;fill-opacity:0;stroke:#000000;stroke-width:100000;stroke-linecap:round;stroke-linejoin:round;stroke-opacity:1" />
  <g
     id="g1045"
     style="fill:#000000;fill-opacity:0;stroke:#000000;stroke-width:100000;stroke-linecap:round;stroke-linejoin:round;stroke-opacity:1" />
  <g
     id="g1047"
     style="fill:#000000;fill-opacity:0;stroke:#000000;stroke-width:100000;stroke-linecap:round;stroke-linejoin:round;stroke-opacity:1" />
  <g
     id="g1049"
     style="fill:#000000;fill-opacity:0;stroke:#000000;stroke-width:100000;stroke-linecap:round;stroke-linejoin:round;stroke-opacity:1" />
  <g
     id="g1051"
     style="fill:#000000;fill-opacity:0;stroke:#000000;stroke-width:100000;stroke-linecap:round;stroke-linejoin:round;stroke-opacity:1" />
  <g
     id="g1053"
     style="fill:#000000;fill-opacity:0;stroke:#000000;stroke-width:100000;stroke-linecap:round;stroke-linejoin:round;stroke-opacity:1" />
  <g
     id="g1055"
     style="fill:#000000;fill-opacity:0;stroke:#000000;stroke-width:100000;stroke-linecap:round;stroke-linejoin:round;stroke-opacity:1" />
  <g
     id="g1057"
     style="fill:#000000;fill-opacity:0;stroke:#000000;stroke-width:100000;stroke-linecap:round;stroke-linejoin:round;stroke-opacity:1" />
  <g
     id="g1059"
     style="fill:#000000;fill-opacity:0;stroke:#000000;stroke-width:100000;stroke-linecap:round;stroke-linejoin:round;stroke-opacity:1" />
  <g
     id="g1061"
     style="fill:#000000;fill-opacity:0;stroke:#000000;stroke-width:100000;stroke-linecap:round;stroke-linejoin:round;stroke-opacity:1" />
  <g
     id="g1063"
     style="fill:#000000;fill-opacity:0;stroke:#000000;stroke-width:100000;stroke-linecap:round;stroke-linejoin:round;stroke-opacity:1" />
  <g
     id="g1065"
     style="fill:#000000;fill-opacity:0;stroke:#000000;stroke-width:100000;stroke-linecap:round;stroke-linejoin:round;stroke-opacity:1" />
  <g
     id="g1067"
     style="fill:#000000;fill-opacity:0;stroke:#000000;stroke-width:100000;stroke-linecap:round;stroke-linejoin:round;stroke-opacity:1" />
  <g
     id="g1069"
     style="fill:#000000;fill-opacity:0;stroke:#000000;stroke-width:100000;stroke-linecap:round;stroke-linejoin:round;stroke-opacity:1" />
  <g
     id="g1071"
     style="fill:#000000;fill-opacity:0;stroke:#000000;stroke-width:100000;stroke-linecap:round;stroke-linejoin:round;stroke-opacity:1" />
  <g
     id="g1073"
     style="fill:#000000;fill-opacity:0;stroke:#000000;stroke-width:100000;stroke-linecap:round;stroke-linejoin:round;stroke-opacity:1" />
  <g
     id="g1075"
     style="fill:#000000;fill-opacity:0;stroke:#000000;stroke-width:100000;stroke-linecap:round;stroke-linejoin:round;stroke-opacity:1" />
  <g
     id="g1077"
     style="fill:#000000;fill-opacity:0;stroke:#000000;stroke-width:100000;stroke-linecap:round;stroke-linejoin:round;stroke-opacity:1" />
  <g
     id="g1079"
     style="fill:#000000;fill-opacity:0;stroke:#000000;stroke-width:100000;stroke-linecap:round;stroke-linejoin:round;stroke-opacity:1" />
  <g
     id="g1081"
     style="fill:#000000;fill-opacity:0;stroke:#000000;stroke-width:100000;stroke-linecap:round;stroke-linejoin:round;stroke-opacity:1" />
  <g
     id="g1083"
     style="fill:#000000;fill-opacity:0;stroke:#000000;stroke-width:100000;stroke-linecap:round;stroke-linejoin:round;stroke-opacity:1" />
  <g
     id="g1085"
     style="fill:#000000;fill-opacity:0;stroke:#000000;stroke-width:100000;stroke-linecap:round;stroke-linejoin:round;stroke-opacity:1" />
  <g
     id="g1087"
     style="fill:#000000;fill-opacity:0;stroke:#000000;stroke-width:100000;stroke-linecap:round;stroke-linejoin:round;stroke-opacity:1" />
  <g
     id="g1089"
     style="fill:#000000;fill-opacity:0;stroke:#000000;stroke-width:100000;stroke-linecap:round;stroke-linejoin:round;stroke-opacity:1" />
  <g
     id="g1091"
     style="fill:#000000;fill-opacity:0;stroke:#000000;stroke-width:100000;stroke-linecap:round;stroke-linejoin:round;stroke-opacity:1" />
  <g
     id="g1093"
     style="fill:#000000;fill-opacity:0;stroke:#000000;stroke-width:100000;stroke-linecap:round;stroke-linejoin:round;stroke-opacity:1" />
  <g
     id="g1095"
     style="fill:#000000;fill-opacity:0;stroke:#000000;stroke-width:100000;stroke-linecap:round;stroke-linejoin:round;stroke-opacity:1" />
  <g
     id="g1097"
     style="fill:#000000;fill-opacity:0;stroke:#000000;stroke-width:100000;stroke-linecap:round;stroke-linejoin:round;stroke-opacity:1" />
  <g
     style="fill:#000000;fill-opacity:0;stroke:#000000;stroke-width:100000;stroke-linecap:round;stroke-linejoin:round;stroke-opacity:1"
     id="g1099" />
  <g
     style="fill:#000000;fill-opacity:0;stroke:#000000;stroke-width:1;stroke-linecap:round;stroke-linejoin:round;stroke-opacity:1"
     id="g1101" />
  <g
     style="fill:#000000;stroke:none;stroke-linecap:round;stroke-linejoin:round"
     id="g1107">
    <g
       id="path1103"
       style="stroke:none">
      <path
         style="color:#000000;fill-rule:evenodd;stroke:none;-inkscape-stroke:none"
         d="m 219389200,123840000 19030,95670 54190,81110 81110,54190 95670,19030 h 825000 l 95670,-19030 81110,-54190 54190,-81110 19030,-95670 v -1300000 l -19030,-95670 -54190,-81110 -81110,-54190 -95670,-19030 h -825000 l -95670,19030 -81110,54190 -54190,81110 -19030,95670 z"
         id="path8015" />
      <path
         style="color:#000000;fill-rule:evenodd;stroke:none;-inkscape-stroke:none"
         d="m 219639200,122290000 a 0.50005,0.50005 0 0 0 0,0 l -95670,19030 a 0.50005,0.50005 0 0 0 0,0 l -81110,54190 a 0.50005,0.50005 0 0 0 0,0 l -54190,81110 a 0.50005,0.50005 0 0 0 0,0 l -19030,95670 a 0.50005,0.50005 0 0 0 0,0 v 1300000 a 0.50005,0.50005 0 0 0 0,0 l 19030,95670 a 0.50005,0.50005 0 0 0 0,0 l 54190,81110 a 0.50005,0.50005 0 0 0 0,0 l 81110,54190 a 0.50005,0.50005 0 0 0 0,0 l 95670,19030 a 0.50005,0.50005 0 0 0 0,0 h 825000 a 0.50005,0.50005 0 0 0 0,0 l 95670,-19030 a 0.50005,0.50005 0 0 0 0,0 l 81110,-54190 a 0.50005,0.50005 0 0 0 0,0 l 54190,-81110 a 0.50005,0.50005 0 0 0 0,0 l 19030,-95670 a 0.50005,0.50005 0 0 0 0,0 v -1300000 a 0.50005,0.50005 0 0 0 0,0 l -19030,-95670 a 0.50005,0.50005 0 0 0 0,0 l -54190,-81110 a 0.50005,0.50005 0 0 0 0,0 l -81110,-54190 a 0.50005,0.50005 0 0 0 0,0 l -95670,-19030 a 0.50005,0.50005 0 0 0 0,0 z m 0,0 h 825000 l 95670,19030 81110,54190 54190,81110 19030,95670 v 1300000 l -19030,95670 -54190,81110 -81110,54190 -95670,19030 h -825000 l -95670,-19030 -81110,-54190 -54190,-81110 -19030,-95670 v -1300000 l 19030,-95670 54190,-81110 81110,-54190 z"
         id="path8017" />
    </g>
    <g
       id="path1105"
       style="stroke:none">
      <path
         style="color:#000000;fill-rule:evenodd;stroke:none;-inkscape-stroke:none"
         d="m 222514200,123840000 19030,95670 54190,81110 81110,54190 95670,19030 h 825000 l 95670,-19030 81110,-54190 54190,-81110 19030,-95670 v -1300000 l -19030,-95670 -54190,-81110 -81110,-54190 -95670,-19030 h -825000 l -95670,19030 -81110,54190 -54190,81110 -19030,95670 z"
         id="path8021" />
      <path
         style="color:#000000;fill-rule:evenodd;stroke:none;-inkscape-stroke:none"
         d="m 222764200,122290000 a 0.50005,0.50005 0 0 0 0,0 l -95670,19030 a 0.50005,0.50005 0 0 0 0,0 l -81110,54190 a 0.50005,0.50005 0 0 0 0,0 l -54190,81110 a 0.50005,0.50005 0 0 0 0,0 l -19030,95670 a 0.50005,0.50005 0 0 0 0,0 v 1300000 a 0.50005,0.50005 0 0 0 0,0 l 19030,95670 a 0.50005,0.50005 0 0 0 0,0 l 54190,81110 a 0.50005,0.50005 0 0 0 0,0 l 81110,54190 a 0.50005,0.50005 0 0 0 0,0 l 95670,19030 a 0.50005,0.50005 0 0 0 0,0 h 825000 a 0.50005,0.50005 0 0 0 0,0 l 95670,-19030 a 0.50005,0.50005 0 0 0 0,0 l 81110,-54190 a 0.50005,0.50005 0 0 0 0,0 l 54190,-81110 a 0.50005,0.50005 0 0 0 0,0 l 19030,-95670 a 0.50005,0.50005 0 0 0 0,0 v -1300000 a 0.50005,0.50005 0 0 0 0,0 l -19030,-95670 a 0.50005,0.50005 0 0 0 0,0 l -54190,-81110 a 0.50005,0.50005 0 0 0 0,0 l -81110,-54190 a 0.50005,0.50005 0 0 0 0,0 l -95670,-19030 a 0.50005,0.50005 0 0 0 0,0 z m 0,0 h 825000 l 95670,19030 81110,54190 54190,81110 19030,95670 v 1300000 l -19030,95670 -54190,81110 -81110,54190 -95670,19030 h -825000 l -95670,-19030 -81110,-54190 -54190,-81110 -19030,-95670 v -1300000 l 19030,-95670 54190,-81110 81110,-54190 z"
         id="path8023" />
    </g>
  </g>
  <g
     id="g1109"
     style="fill:#000000;fill-opacity:0;stroke:#000000;stroke-width:100000;stroke-linecap:round;stroke-linejoin:round;stroke-opacity:1" />
  <g
     id="g1111"
     style="fill:#000000;fill-opacity:0;stroke:#000000;stroke-width:100000;stroke-linecap:round;stroke-linejoin:round;stroke-opacity:1" />
  <g
     id="g1113"
     style="fill:#000000;fill-opacity:0;stroke:#000000;stroke-width:100000;stroke-linecap:round;stroke-linejoin:round;stroke-opacity:1" />
  <g
     style="fill:#000000;stroke:none;stroke-linecap:round;stroke-linejoin:round"
     id="g1119">
    <g
       id="path1115"
       style="stroke:none">
      <path
         style="color:#000000;fill-rule:evenodd;stroke:none;-inkscape-stroke:none"
         d="m 221259200,133825000 19030,95670 54190,81110 81110,54190 95670,19030 h 675000 l 95670,-19030 81110,-54190 54190,-81110 19030,-95670 v -950000 l -19030,-95670 -54190,-81110 -81110,-54190 -95670,-19030 h -675000 l -95670,19030 -81110,54190 -54190,81110 -19030,95670 z"
         id="path8027" />
      <path
         style="color:#000000;fill-rule:evenodd;stroke:none;-inkscape-stroke:none"
         d="m 221509200,132625000 a 0.50005,0.50005 0 0 0 0,0 l -95670,19030 a 0.50005,0.50005 0 0 0 0,0 l -81110,54190 a 0.50005,0.50005 0 0 0 0,0 l -54190,81110 a 0.50005,0.50005 0 0 0 0,0 l -19030,95670 a 0.50005,0.50005 0 0 0 0,0 v 950000 a 0.50005,0.50005 0 0 0 0,0 l 19030,95670 a 0.50005,0.50005 0 0 0 0,0 l 54190,81110 a 0.50005,0.50005 0 0 0 0,0 l 81110,54190 a 0.50005,0.50005 0 0 0 0,0 l 95670,19030 a 0.50005,0.50005 0 0 0 0,0 h 675000 a 0.50005,0.50005 0 0 0 0,0 l 95670,-19030 a 0.50005,0.50005 0 0 0 0,0 l 81110,-54190 a 0.50005,0.50005 0 0 0 0,0 l 54190,-81110 a 0.50005,0.50005 0 0 0 0,0 l 19030,-95670 a 0.50005,0.50005 0 0 0 0,0 v -950000 a 0.50005,0.50005 0 0 0 0,0 l -19030,-95670 a 0.50005,0.50005 0 0 0 0,0 l -54190,-81110 a 0.50005,0.50005 0 0 0 0,0 l -81110,-54190 a 0.50005,0.50005 0 0 0 0,0 l -95670,-19030 a 0.50005,0.50005 0 0 0 0,0 z m 0,0 h 675000 l 95670,19030 81110,54190 54190,81110 19030,95670 v 950000 l -19030,95670 -54190,81110 -81110,54190 -95670,19030 h -675000 l -95670,-19030 -81110,-54190 -54190,-81110 -19030,-95670 v -950000 l 19030,-95670 54190,-81110 81110,-54190 z"
         id="path8029" />
    </g>
    <g
       id="path1117"
       style="stroke:none">
      <path
         style="color:#000000;fill-rule:evenodd;stroke:none;-inkscape-stroke:none"
         d="m 223334200,133825000 19030,95670 54190,81110 81110,54190 95670,19030 h 675000 l 95670,-19030 81110,-54190 54190,-81110 19030,-95670 v -950000 l -19030,-95670 -54190,-81110 -81110,-54190 -95670,-19030 h -675000 l -95670,19030 -81110,54190 -54190,81110 -19030,95670 z"
         id="path8033" />
      <path
         style="color:#000000;fill-rule:evenodd;stroke:none;-inkscape-stroke:none"
         d="m 223584200,132625000 a 0.50005,0.50005 0 0 0 0,0 l -95670,19030 a 0.50005,0.50005 0 0 0 0,0 l -81110,54190 a 0.50005,0.50005 0 0 0 0,0 l -54190,81110 a 0.50005,0.50005 0 0 0 0,0 l -19030,95670 a 0.50005,0.50005 0 0 0 0,0 v 950000 a 0.50005,0.50005 0 0 0 0,0 l 19030,95670 a 0.50005,0.50005 0 0 0 0,0 l 54190,81110 a 0.50005,0.50005 0 0 0 0,0 l 81110,54190 a 0.50005,0.50005 0 0 0 0,0 l 95670,19030 a 0.50005,0.50005 0 0 0 0,0 h 675000 a 0.50005,0.50005 0 0 0 0,0 l 95670,-19030 a 0.50005,0.50005 0 0 0 0,0 l 81110,-54190 a 0.50005,0.50005 0 0 0 0,0 l 54190,-81110 a 0.50005,0.50005 0 0 0 0,0 l 19030,-95670 a 0.50005,0.50005 0 0 0 0,0 v -950000 a 0.50005,0.50005 0 0 0 0,0 l -19030,-95670 a 0.50005,0.50005 0 0 0 0,0 l -54190,-81110 a 0.50005,0.50005 0 0 0 0,0 l -81110,-54190 a 0.50005,0.50005 0 0 0 0,0 l -95670,-19030 a 0.50005,0.50005 0 0 0 0,0 z m 0,0 h 675000 l 95670,19030 81110,54190 54190,81110 19030,95670 v 950000 l -19030,95670 -54190,81110 -81110,54190 -95670,19030 h -675000 l -95670,-19030 -81110,-54190 -54190,-81110 -19030,-95670 v -950000 l 19030,-95670 54190,-81110 81110,-54190 z"
         id="path8035" />
    </g>
  </g>
  <g
     id="g1121"
     style="fill:#000000;fill-opacity:0;stroke:#000000;stroke-width:100000;stroke-linecap:round;stroke-linejoin:round;stroke-opacity:1" />
  <g
     id="g1123"
     style="fill:#000000;fill-opacity:0;stroke:#000000;stroke-width:100000;stroke-linecap:round;stroke-linejoin:round;stroke-opacity:1" />
  <g
     style="fill:#000000;stroke:none;stroke-linecap:round;stroke-linejoin:round"
     id="g1129">
    <g
       id="path1125"
       style="stroke:none">
      <path
         style="color:#000000;fill-rule:evenodd;stroke:none;-inkscape-stroke:none"
         d="m 237388200,102166000 -19030,-95670 -54190,-81110 -81110,-54190 -95670,-19030 h -700000 l -95670,19030 -81110,54190 -54190,81110 -19030,95670 v 900000 l 19030,95670 54190,81110 81110,54190 95670,19030 h 700000 l 95670,-19030 81110,-54190 54190,-81110 19030,-95670 z"
         id="path8039" />
      <path
         style="color:#000000;fill-rule:evenodd;stroke:none;-inkscape-stroke:none"
         d="m 236438200,101916000 a 0.50005,0.50005 0 0 0 0,0 l -95670,19030 a 0.50005,0.50005 0 0 0 0,0 l -81110,54190 a 0.50005,0.50005 0 0 0 0,0 l -54190,81110 a 0.50005,0.50005 0 0 0 0,0 l -19030,95670 a 0.50005,0.50005 0 0 0 0,0 v 900000 a 0.50005,0.50005 0 0 0 0,0 l 19030,95670 a 0.50005,0.50005 0 0 0 0,0 l 54190,81110 a 0.50005,0.50005 0 0 0 0,0 l 81110,54190 a 0.50005,0.50005 0 0 0 0,0 l 95670,19030 a 0.50005,0.50005 0 0 0 0,0 h 700000 a 0.50005,0.50005 0 0 0 0,0 l 95670,-19030 a 0.50005,0.50005 0 0 0 0,0 l 81110,-54190 a 0.50005,0.50005 0 0 0 0,0 l 54190,-81110 a 0.50005,0.50005 0 0 0 0,0 l 19030,-95670 a 0.50005,0.50005 0 0 0 0,0 v -900000 a 0.50005,0.50005 0 0 0 0,0 l -19030,-95670 a 0.50005,0.50005 0 0 0 0,0 l -54190,-81110 a 0.50005,0.50005 0 0 0 0,0 l -81110,-54190 a 0.50005,0.50005 0 0 0 0,0 l -95670,-19030 a 0.50005,0.50005 0 0 0 0,0 z m 0,0 h 700000 l 95670,19030 81110,54190 54190,81110 19030,95670 v 900000 l -19030,95670 -54190,81110 -81110,54190 -95670,19030 h -700000 l -95670,-19030 -81110,-54190 -54190,-81110 -19030,-95670 v -900000 l 19030,-95670 54190,-81110 81110,-54190 z"
         id="path8041" />
    </g>
    <g
       id="path1127"
       style="stroke:none">
      <path
         style="color:#000000;fill-rule:evenodd;stroke:none;-inkscape-stroke:none"
         d="m 235388200,102166000 -19030,-95670 -54190,-81110 -81110,-54190 -95670,-19030 h -700000 l -95670,19030 -81110,54190 -54190,81110 -19030,95670 v 900000 l 19030,95670 54190,81110 81110,54190 95670,19030 h 700000 l 95670,-19030 81110,-54190 54190,-81110 19030,-95670 z"
         id="path8045" />
      <path
         style="color:#000000;fill-rule:evenodd;stroke:none;-inkscape-stroke:none"
         d="m 234438200,101916000 a 0.50005,0.50005 0 0 0 0,0 l -95670,19030 a 0.50005,0.50005 0 0 0 0,0 l -81110,54190 a 0.50005,0.50005 0 0 0 0,0 l -54190,81110 a 0.50005,0.50005 0 0 0 0,0 l -19030,95670 a 0.50005,0.50005 0 0 0 0,0 v 900000 a 0.50005,0.50005 0 0 0 0,0 l 19030,95670 a 0.50005,0.50005 0 0 0 0,0 l 54190,81110 a 0.50005,0.50005 0 0 0 0,0 l 81110,54190 a 0.50005,0.50005 0 0 0 0,0 l 95670,19030 a 0.50005,0.50005 0 0 0 0,0 h 700000 a 0.50005,0.50005 0 0 0 0,0 l 95670,-19030 a 0.50005,0.50005 0 0 0 0,0 l 81110,-54190 a 0.50005,0.50005 0 0 0 0,0 l 54190,-81110 a 0.50005,0.50005 0 0 0 0,0 l 19030,-95670 a 0.50005,0.50005 0 0 0 0,0 v -900000 a 0.50005,0.50005 0 0 0 0,0 l -19030,-95670 a 0.50005,0.50005 0 0 0 0,0 l -54190,-81110 a 0.50005,0.50005 0 0 0 0,0 l -81110,-54190 a 0.50005,0.50005 0 0 0 0,0 l -95670,-19030 a 0.50005,0.50005 0 0 0 0,0 z m 0,0 h 700000 l 95670,19030 81110,54190 54190,81110 19030,95670 v 900000 l -19030,95670 -54190,81110 -81110,54190 -95670,19030 h -700000 l -95670,-19030 -81110,-54190 -54190,-81110 -19030,-95670 v -900000 l 19030,-95670 54190,-81110 81110,-54190 z"
         id="path8047" />
    </g>
  </g>
  <g
     id="g1131"
     style="fill:#000000;fill-opacity:0;stroke:#000000;stroke-width:100000;stroke-linecap:round;stroke-linejoin:round;stroke-opacity:1" />
  <g
     style="fill:#000000;stroke:none;stroke-linecap:round;stroke-linejoin:round"
     id="g1137">
    <g
       id="path1133"
       style="stroke:none">
      <path
         style="color:#000000;fill-rule:evenodd;stroke:none;-inkscape-stroke:none"
         d="m 198515200,130025500 95670,-19030 81110,-54190 54190,-81110 19030,-95670 v -825000 l -19030,-95670 -54190,-81110 -81110,-54190 -95670,-19030 h -1300000 l -95670,19030 -81110,54190 -54190,81110 -19030,95670 v 825000 l 19030,95670 54190,81110 81110,54190 95670,19030 z"
         id="path8051" />
      <path
         style="color:#000000;fill-rule:evenodd;stroke:none;-inkscape-stroke:none"
         d="m 197215200,128700500 a 0.50005,0.50005 0 0 0 0,0 l -95670,19030 a 0.50005,0.50005 0 0 0 0,0 l -81110,54190 a 0.50005,0.50005 0 0 0 0,0 l -54190,81110 a 0.50005,0.50005 0 0 0 0,0 l -19030,95670 a 0.50005,0.50005 0 0 0 0,0 v 825000 a 0.50005,0.50005 0 0 0 0,0 l 19030,95670 a 0.50005,0.50005 0 0 0 0,0 l 54190,81110 a 0.50005,0.50005 0 0 0 0,0 l 81110,54190 a 0.50005,0.50005 0 0 0 0,0 l 95670,19030 a 0.50005,0.50005 0 0 0 0,0 h 1300000 a 0.50005,0.50005 0 0 0 0,0 l 95670,-19030 a 0.50005,0.50005 0 0 0 0,0 l 81110,-54190 a 0.50005,0.50005 0 0 0 0,0 l 54190,-81110 a 0.50005,0.50005 0 0 0 0,0 l 19030,-95670 a 0.50005,0.50005 0 0 0 0,0 v -825000 a 0.50005,0.50005 0 0 0 0,0 l -19030,-95670 a 0.50005,0.50005 0 0 0 0,0 l -54190,-81110 a 0.50005,0.50005 0 0 0 0,0 l -81110,-54190 a 0.50005,0.50005 0 0 0 0,0 l -95670,-19030 a 0.50005,0.50005 0 0 0 0,0 z m 0,0 h 1300000 l 95670,19030 81110,54190 54190,81110 19030,95670 v 825000 l -19030,95670 -54190,81110 -81110,54190 -95670,19030 h -1300000 l -95670,-19030 -81110,-54190 -54190,-81110 -19030,-95670 v -825000 l 19030,-95670 54190,-81110 81110,-54190 z"
         id="path8053" />
    </g>
    <g
       id="path1135"
       style="stroke:none">
      <path
         style="color:#000000;fill-rule:evenodd;stroke:none;-inkscape-stroke:none"
         d="m 198515200,126900500 95670,-19030 81110,-54190 54190,-81110 19030,-95670 v -825000 l -19030,-95670 -54190,-81110 -81110,-54190 -95670,-19030 h -1300000 l -95670,19030 -81110,54190 -54190,81110 -19030,95670 v 825000 l 19030,95670 54190,81110 81110,54190 95670,19030 z"
         id="path8057" />
      <path
         style="color:#000000;fill-rule:evenodd;stroke:none;-inkscape-stroke:none"
         d="m 197215200,125575500 a 0.50005,0.50005 0 0 0 0,0 l -95670,19030 a 0.50005,0.50005 0 0 0 0,0 l -81110,54190 a 0.50005,0.50005 0 0 0 0,0 l -54190,81110 a 0.50005,0.50005 0 0 0 0,0 l -19030,95670 a 0.50005,0.50005 0 0 0 0,0 v 825000 a 0.50005,0.50005 0 0 0 0,0 l 19030,95670 a 0.50005,0.50005 0 0 0 0,0 l 54190,81110 a 0.50005,0.50005 0 0 0 0,0 l 81110,54190 a 0.50005,0.50005 0 0 0 0,0 l 95670,19030 a 0.50005,0.50005 0 0 0 0,0 h 1300000 a 0.50005,0.50005 0 0 0 0,0 l 95670,-19030 a 0.50005,0.50005 0 0 0 0,0 l 81110,-54190 a 0.50005,0.50005 0 0 0 0,0 l 54190,-81110 a 0.50005,0.50005 0 0 0 0,0 l 19030,-95670 a 0.50005,0.50005 0 0 0 0,0 v -825000 a 0.50005,0.50005 0 0 0 0,0 l -19030,-95670 a 0.50005,0.50005 0 0 0 0,0 l -54190,-81110 a 0.50005,0.50005 0 0 0 0,0 l -81110,-54190 a 0.50005,0.50005 0 0 0 0,0 l -95670,-19030 a 0.50005,0.50005 0 0 0 0,0 z m 0,0 h 1300000 l 95670,19030 81110,54190 54190,81110 19030,95670 v 825000 l -19030,95670 -54190,81110 -81110,54190 -95670,19030 h -1300000 l -95670,-19030 -81110,-54190 -54190,-81110 -19030,-95670 v -825000 l 19030,-95670 54190,-81110 81110,-54190 z"
         id="path8059" />
    </g>
  </g>
  <g
     id="g1139"
     style="fill:#000000;fill-opacity:0;stroke:#000000;stroke-width:100000;stroke-linecap:round;stroke-linejoin:round;stroke-opacity:1" />
  <g
     id="g1141"
     style="fill:#000000;fill-opacity:0;stroke:#000000;stroke-width:100000;stroke-linecap:round;stroke-linejoin:round;stroke-opacity:1" />
  <g
     id="g1143"
     style="fill:#000000;fill-opacity:0;stroke:#000000;stroke-width:100000;stroke-linecap:round;stroke-linejoin:round;stroke-opacity:1" />
  <g
     id="g1145"
     style="fill:#000000;fill-opacity:0;stroke:#000000;stroke-width:100000;stroke-linecap:round;stroke-linejoin:round;stroke-opacity:1" />
  <g
     style="fill:#000000;stroke:none;stroke-linecap:round;stroke-linejoin:round"
     id="g1151">
    <g
       id="path1147"
       style="stroke:none">
      <path
         style="color:#000000;fill-rule:evenodd;stroke:none;-inkscape-stroke:none"
         d="m 226205700,133020000 -95670,19030 -81110,54190 -54190,81110 -19030,95670 v 700000 l 19030,95670 54190,81110 81110,54190 95670,19030 h 900000 l 95670,-19030 81110,-54190 54190,-81110 19030,-95670 v -700000 l -19030,-95670 -54190,-81110 -81110,-54190 -95670,-19030 z"
         id="path8063" />
      <path
         style="color:#000000;fill-rule:evenodd;stroke:none;-inkscape-stroke:none"
         d="m 226205700,133020000 a 0.50005,0.50005 0 0 0 0,0 l -95670,19030 a 0.50005,0.50005 0 0 0 0,0 l -81110,54190 a 0.50005,0.50005 0 0 0 0,0 l -54190,81110 a 0.50005,0.50005 0 0 0 0,0 l -19030,95670 a 0.50005,0.50005 0 0 0 0,0 v 700000 a 0.50005,0.50005 0 0 0 0,0 l 19030,95670 a 0.50005,0.50005 0 0 0 0,0 l 54190,81110 a 0.50005,0.50005 0 0 0 0,0 l 81110,54190 a 0.50005,0.50005 0 0 0 0,0 l 95670,19030 a 0.50005,0.50005 0 0 0 0,0 h 900000 a 0.50005,0.50005 0 0 0 0,0 l 95670,-19030 a 0.50005,0.50005 0 0 0 0,0 l 81110,-54190 a 0.50005,0.50005 0 0 0 0,0 l 54190,-81110 a 0.50005,0.50005 0 0 0 0,0 l 19030,-95670 a 0.50005,0.50005 0 0 0 0,0 v -700000 a 0.50005,0.50005 0 0 0 0,0 l -19030,-95670 a 0.50005,0.50005 0 0 0 0,0 l -54190,-81110 a 0.50005,0.50005 0 0 0 0,0 l -81110,-54190 a 0.50005,0.50005 0 0 0 0,0 l -95670,-19030 a 0.50005,0.50005 0 0 0 0,0 z m 0,0 h 900000 l 95670,19030 81110,54190 54190,81110 19030,95670 v 700000 l -19030,95670 -54190,81110 -81110,54190 -95670,19030 h -900000 l -95670,-19030 -81110,-54190 -54190,-81110 -19030,-95670 v -700000 l 19030,-95670 54190,-81110 81110,-54190 z"
         id="path8065" />
    </g>
    <g
       id="path1149"
       style="stroke:none">
      <path
         style="color:#000000;fill-rule:evenodd;stroke:none;-inkscape-stroke:none"
         d="m 226205700,135020000 -95670,19030 -81110,54190 -54190,81110 -19030,95670 v 700000 l 19030,95670 54190,81110 81110,54190 95670,19030 h 900000 l 95670,-19030 81110,-54190 54190,-81110 19030,-95670 v -700000 l -19030,-95670 -54190,-81110 -81110,-54190 -95670,-19030 z"
         id="path8069" />
      <path
         style="color:#000000;fill-rule:evenodd;stroke:none;-inkscape-stroke:none"
         d="m 226205700,135020000 a 0.50005,0.50005 0 0 0 0,0 l -95670,19030 a 0.50005,0.50005 0 0 0 0,0 l -81110,54190 a 0.50005,0.50005 0 0 0 0,0 l -54190,81110 a 0.50005,0.50005 0 0 0 0,0 l -19030,95670 a 0.50005,0.50005 0 0 0 0,0 v 700000 a 0.50005,0.50005 0 0 0 0,0 l 19030,95670 a 0.50005,0.50005 0 0 0 0,0 l 54190,81110 a 0.50005,0.50005 0 0 0 0,0 l 81110,54190 a 0.50005,0.50005 0 0 0 0,0 l 95670,19030 a 0.50005,0.50005 0 0 0 0,0 h 900000 a 0.50005,0.50005 0 0 0 0,0 l 95670,-19030 a 0.50005,0.50005 0 0 0 0,0 l 81110,-54190 a 0.50005,0.50005 0 0 0 0,0 l 54190,-81110 a 0.50005,0.50005 0 0 0 0,0 l 19030,-95670 a 0.50005,0.50005 0 0 0 0,0 v -700000 a 0.50005,0.50005 0 0 0 0,0 l -19030,-95670 a 0.50005,0.50005 0 0 0 0,0 l -54190,-81110 a 0.50005,0.50005 0 0 0 0,0 l -81110,-54190 a 0.50005,0.50005 0 0 0 0,0 l -95670,-19030 a 0.50005,0.50005 0 0 0 0,0 z m 0,0 h 900000 l 95670,19030 81110,54190 54190,81110 19030,95670 v 700000 l -19030,95670 -54190,81110 -81110,54190 -95670,19030 h -900000 l -95670,-19030 -81110,-54190 -54190,-81110 -19030,-95670 v -700000 l 19030,-95670 54190,-81110 81110,-54190 z"
         id="path8071" />
    </g>
  </g>
  <g
     id="g1153"
     style="fill:#000000;fill-opacity:0;stroke:#000000;stroke-width:100000;stroke-linecap:round;stroke-linejoin:round;stroke-opacity:1" />
  <g
     id="g1155"
     style="fill:#000000;fill-opacity:0;stroke:#000000;stroke-width:100000;stroke-linecap:round;stroke-linejoin:round;stroke-opacity:1" />
  <g
     style="fill:#000000;stroke:none;stroke-linecap:round;stroke-linejoin:round"
     id="g1161">
    <g
       id="path1157"
       style="stroke:none">
      <path
         style="color:#000000;fill-rule:evenodd;stroke:none;-inkscape-stroke:none"
         d="m 226244200,128321000 -95670,19030 -81110,54190 -54190,81110 -19030,95670 v 700000 l 19030,95670 54190,81110 81110,54190 95670,19030 h 900000 l 95670,-19030 81110,-54190 54190,-81110 19030,-95670 v -700000 l -19030,-95670 -54190,-81110 -81110,-54190 -95670,-19030 z"
         id="path8075" />
      <path
         style="color:#000000;fill-rule:evenodd;stroke:none;-inkscape-stroke:none"
         d="m 226244200,128321000 a 0.50005,0.50005 0 0 0 0,0 l -95670,19030 a 0.50005,0.50005 0 0 0 0,0 l -81110,54190 a 0.50005,0.50005 0 0 0 0,0 l -54190,81110 a 0.50005,0.50005 0 0 0 0,0 l -19030,95670 a 0.50005,0.50005 0 0 0 0,0 v 700000 a 0.50005,0.50005 0 0 0 0,0 l 19030,95670 a 0.50005,0.50005 0 0 0 0,0 l 54190,81110 a 0.50005,0.50005 0 0 0 0,0 l 81110,54190 a 0.50005,0.50005 0 0 0 0,0 l 95670,19030 a 0.50005,0.50005 0 0 0 0,0 h 900000 a 0.50005,0.50005 0 0 0 0,0 l 95670,-19030 a 0.50005,0.50005 0 0 0 0,0 l 81110,-54190 a 0.50005,0.50005 0 0 0 0,0 l 54190,-81110 a 0.50005,0.50005 0 0 0 0,0 l 19030,-95670 a 0.50005,0.50005 0 0 0 0,0 v -700000 a 0.50005,0.50005 0 0 0 0,0 l -19030,-95670 a 0.50005,0.50005 0 0 0 0,0 l -54190,-81110 a 0.50005,0.50005 0 0 0 0,0 l -81110,-54190 a 0.50005,0.50005 0 0 0 0,0 l -95670,-19030 a 0.50005,0.50005 0 0 0 0,0 z m 0,0 h 900000 l 95670,19030 81110,54190 54190,81110 19030,95670 v 700000 l -19030,95670 -54190,81110 -81110,54190 -95670,19030 h -900000 l -95670,-19030 -81110,-54190 -54190,-81110 -19030,-95670 v -700000 l 19030,-95670 54190,-81110 81110,-54190 z"
         id="path8077" />
    </g>
    <g
       id="path1159"
       style="stroke:none">
      <path
         style="color:#000000;fill-rule:evenodd;stroke:none;-inkscape-stroke:none"
         d="m 226244200,130321000 -95670,19030 -81110,54190 -54190,81110 -19030,95670 v 700000 l 19030,95670 54190,81110 81110,54190 95670,19030 h 900000 l 95670,-19030 81110,-54190 54190,-81110 19030,-95670 v -700000 l -19030,-95670 -54190,-81110 -81110,-54190 -95670,-19030 z"
         id="path8081" />
      <path
         style="color:#000000;fill-rule:evenodd;stroke:none;-inkscape-stroke:none"
         d="m 226244200,130321000 a 0.50005,0.50005 0 0 0 0,0 l -95670,19030 a 0.50005,0.50005 0 0 0 0,0 l -81110,54190 a 0.50005,0.50005 0 0 0 0,0 l -54190,81110 a 0.50005,0.50005 0 0 0 0,0 l -19030,95670 a 0.50005,0.50005 0 0 0 0,0 v 700000 a 0.50005,0.50005 0 0 0 0,0 l 19030,95670 a 0.50005,0.50005 0 0 0 0,0 l 54190,81110 a 0.50005,0.50005 0 0 0 0,0 l 81110,54190 a 0.50005,0.50005 0 0 0 0,0 l 95670,19030 a 0.50005,0.50005 0 0 0 0,0 h 900000 a 0.50005,0.50005 0 0 0 0,0 l 95670,-19030 a 0.50005,0.50005 0 0 0 0,0 l 81110,-54190 a 0.50005,0.50005 0 0 0 0,0 l 54190,-81110 a 0.50005,0.50005 0 0 0 0,0 l 19030,-95670 a 0.50005,0.50005 0 0 0 0,0 v -700000 a 0.50005,0.50005 0 0 0 0,0 l -19030,-95670 a 0.50005,0.50005 0 0 0 0,0 l -54190,-81110 a 0.50005,0.50005 0 0 0 0,0 l -81110,-54190 a 0.50005,0.50005 0 0 0 0,0 l -95670,-19030 a 0.50005,0.50005 0 0 0 0,0 z m 0,0 h 900000 l 95670,19030 81110,54190 54190,81110 19030,95670 v 700000 l -19030,95670 -54190,81110 -81110,54190 -95670,19030 h -900000 l -95670,-19030 -81110,-54190 -54190,-81110 -19030,-95670 v -700000 l 19030,-95670 54190,-81110 81110,-54190 z"
         id="path8083" />
    </g>
  </g>
  <g
     id="g1163"
     style="fill:#000000;fill-opacity:0;stroke:#000000;stroke-width:100000;stroke-linecap:round;stroke-linejoin:round;stroke-opacity:1" />
  <g
     id="g1165"
     style="fill:#000000;fill-opacity:0;stroke:#000000;stroke-width:100000;stroke-linecap:round;stroke-linejoin:round;stroke-opacity:1" />
  <g
     style="fill:#000000;stroke:none;stroke-linecap:round;stroke-linejoin:round"
     id="g1171">
    <g
       id="path1167"
       style="stroke:none">
      <path
         style="color:#000000;fill-rule:evenodd;stroke:none;-inkscape-stroke:none"
         d="m 189563200,122698500 -18080,-90890 -51480,-77050 -77050,-51480 -90890,-18080 h -600000 l -90890,18080 -77050,51480 -51480,77050 -18080,90890 v 475000 l 18080,90890 51480,77050 77050,51480 90890,18080 h 600000 l 90890,-18080 77050,-51480 51480,-77050 18080,-90890 z"
         id="path8087" />
      <path
         style="color:#000000;fill-rule:evenodd;stroke:none;-inkscape-stroke:none"
         d="m 188725700,122461000 a 0.50005,0.50005 0 0 0 0,0 l -90890,18080 a 0.50005,0.50005 0 0 0 0,0 l -77050,51480 a 0.50005,0.50005 0 0 0 0,0 l -51480,77050 a 0.50005,0.50005 0 0 0 0,0 l -18080,90890 a 0.50005,0.50005 0 0 0 0,0 v 475000 a 0.50005,0.50005 0 0 0 0,0 l 18080,90890 a 0.50005,0.50005 0 0 0 0,0 l 51480,77050 a 0.50005,0.50005 0 0 0 0,0 l 77050,51480 a 0.50005,0.50005 0 0 0 0,0 l 90890,18080 a 0.50005,0.50005 0 0 0 0,0 h 600000 a 0.50005,0.50005 0 0 0 0,0 l 90890,-18080 a 0.50005,0.50005 0 0 0 0,0 l 77050,-51480 a 0.50005,0.50005 0 0 0 0,0 l 51480,-77050 a 0.50005,0.50005 0 0 0 0,0 l 18080,-90890 a 0.50005,0.50005 0 0 0 0,0 v -475000 a 0.50005,0.50005 0 0 0 0,0 l -18080,-90890 a 0.50005,0.50005 0 0 0 0,0 l -51480,-77050 a 0.50005,0.50005 0 0 0 0,0 l -77050,-51480 a 0.50005,0.50005 0 0 0 0,0 l -90890,-18080 a 0.50005,0.50005 0 0 0 0,0 z m 0,0 h 600000 l 90890,18080 77050,51480 51480,77050 18080,90890 v 475000 l -18080,90890 -51480,77050 -77050,51480 -90890,18080 h -600000 l -90890,-18080 -77050,-51480 -51480,-77050 -18080,-90890 v -475000 l 18080,-90890 51480,-77050 77050,-51480 z"
         id="path8089" />
    </g>
    <g
       id="path1169"
       style="stroke:none">
      <path
         style="color:#000000;fill-rule:evenodd;stroke:none;-inkscape-stroke:none"
         d="m 187838200,122698500 -18080,-90890 -51480,-77050 -77050,-51480 -90890,-18080 h -600000 l -90890,18080 -77050,51480 -51480,77050 -18080,90890 v 475000 l 18080,90890 51480,77050 77050,51480 90890,18080 h 600000 l 90890,-18080 77050,-51480 51480,-77050 18080,-90890 z"
         id="path8093" />
      <path
         style="color:#000000;fill-rule:evenodd;stroke:none;-inkscape-stroke:none"
         d="m 187000700,122461000 a 0.50005,0.50005 0 0 0 0,0 l -90890,18080 a 0.50005,0.50005 0 0 0 0,0 l -77050,51480 a 0.50005,0.50005 0 0 0 0,0 l -51480,77050 a 0.50005,0.50005 0 0 0 0,0 l -18080,90890 a 0.50005,0.50005 0 0 0 0,0 v 475000 a 0.50005,0.50005 0 0 0 0,0 l 18080,90890 a 0.50005,0.50005 0 0 0 0,0 l 51480,77050 a 0.50005,0.50005 0 0 0 0,0 l 77050,51480 a 0.50005,0.50005 0 0 0 0,0 l 90890,18080 a 0.50005,0.50005 0 0 0 0,0 h 600000 a 0.50005,0.50005 0 0 0 0,0 l 90890,-18080 a 0.50005,0.50005 0 0 0 0,0 l 77050,-51480 a 0.50005,0.50005 0 0 0 0,0 l 51480,-77050 a 0.50005,0.50005 0 0 0 0,0 l 18080,-90890 a 0.50005,0.50005 0 0 0 0,0 v -475000 a 0.50005,0.50005 0 0 0 0,0 l -18080,-90890 a 0.50005,0.50005 0 0 0 0,0 l -51480,-77050 a 0.50005,0.50005 0 0 0 0,0 l -77050,-51480 a 0.50005,0.50005 0 0 0 0,0 l -90890,-18080 a 0.50005,0.50005 0 0 0 0,0 z m 0,0 h 600000 l 90890,18080 77050,51480 51480,77050 18080,90890 v 475000 l -18080,90890 -51480,77050 -77050,51480 -90890,18080 h -600000 l -90890,-18080 -77050,-51480 -51480,-77050 -18080,-90890 v -475000 l 18080,-90890 51480,-77050 77050,-51480 z"
         id="path8095" />
    </g>
  </g>
  <g
     id="g1173"
     style="fill:#000000;fill-opacity:0;stroke:#000000;stroke-width:100000;stroke-linecap:round;stroke-linejoin:round;stroke-opacity:1" />
  <g
     style="fill:#000000;stroke:none;stroke-linecap:round;stroke-linejoin:round"
     id="g1179">
    <g
       id="path1175"
       style="stroke:none">
      <path
         style="color:#000000;fill-rule:evenodd;stroke:none;-inkscape-stroke:none"
         d="m 226244200,123733000 -95670,19030 -81110,54190 -54190,81110 -19030,95670 v 700000 l 19030,95670 54190,81110 81110,54190 95670,19030 h 900000 l 95670,-19030 81110,-54190 54190,-81110 19030,-95670 v -700000 l -19030,-95670 -54190,-81110 -81110,-54190 -95670,-19030 z"
         id="path8099" />
      <path
         style="color:#000000;fill-rule:evenodd;stroke:none;-inkscape-stroke:none"
         d="m 226244200,123733000 a 0.50005,0.50005 0 0 0 0,0 l -95670,19030 a 0.50005,0.50005 0 0 0 0,0 l -81110,54190 a 0.50005,0.50005 0 0 0 0,0 l -54190,81110 a 0.50005,0.50005 0 0 0 0,0 l -19030,95670 a 0.50005,0.50005 0 0 0 0,0 v 700000 a 0.50005,0.50005 0 0 0 0,0 l 19030,95670 a 0.50005,0.50005 0 0 0 0,0 l 54190,81110 a 0.50005,0.50005 0 0 0 0,0 l 81110,54190 a 0.50005,0.50005 0 0 0 0,0 l 95670,19030 a 0.50005,0.50005 0 0 0 0,0 h 900000 a 0.50005,0.50005 0 0 0 0,0 l 95670,-19030 a 0.50005,0.50005 0 0 0 0,0 l 81110,-54190 a 0.50005,0.50005 0 0 0 0,0 l 54190,-81110 a 0.50005,0.50005 0 0 0 0,0 l 19030,-95670 a 0.50005,0.50005 0 0 0 0,0 v -700000 a 0.50005,0.50005 0 0 0 0,0 l -19030,-95670 a 0.50005,0.50005 0 0 0 0,0 l -54190,-81110 a 0.50005,0.50005 0 0 0 0,0 l -81110,-54190 a 0.50005,0.50005 0 0 0 0,0 l -95670,-19030 a 0.50005,0.50005 0 0 0 0,0 z m 0,0 h 900000 l 95670,19030 81110,54190 54190,81110 19030,95670 v 700000 l -19030,95670 -54190,81110 -81110,54190 -95670,19030 h -900000 l -95670,-19030 -81110,-54190 -54190,-81110 -19030,-95670 v -700000 l 19030,-95670 54190,-81110 81110,-54190 z"
         id="path8101" />
    </g>
    <g
       id="path1177"
       style="stroke:none">
      <path
         style="color:#000000;fill-rule:evenodd;stroke:none;-inkscape-stroke:none"
         d="m 226244200,125733000 -95670,19030 -81110,54190 -54190,81110 -19030,95670 v 700000 l 19030,95670 54190,81110 81110,54190 95670,19030 h 900000 l 95670,-19030 81110,-54190 54190,-81110 19030,-95670 v -700000 l -19030,-95670 -54190,-81110 -81110,-54190 -95670,-19030 z"
         id="path8105" />
      <path
         style="color:#000000;fill-rule:evenodd;stroke:none;-inkscape-stroke:none"
         d="m 226244200,125733000 a 0.50005,0.50005 0 0 0 0,0 l -95670,19030 a 0.50005,0.50005 0 0 0 0,0 l -81110,54190 a 0.50005,0.50005 0 0 0 0,0 l -54190,81110 a 0.50005,0.50005 0 0 0 0,0 l -19030,95670 a 0.50005,0.50005 0 0 0 0,0 v 700000 a 0.50005,0.50005 0 0 0 0,0 l 19030,95670 a 0.50005,0.50005 0 0 0 0,0 l 54190,81110 a 0.50005,0.50005 0 0 0 0,0 l 81110,54190 a 0.50005,0.50005 0 0 0 0,0 l 95670,19030 a 0.50005,0.50005 0 0 0 0,0 h 900000 a 0.50005,0.50005 0 0 0 0,0 l 95670,-19030 a 0.50005,0.50005 0 0 0 0,0 l 81110,-54190 a 0.50005,0.50005 0 0 0 0,0 l 54190,-81110 a 0.50005,0.50005 0 0 0 0,0 l 19030,-95670 a 0.50005,0.50005 0 0 0 0,0 v -700000 a 0.50005,0.50005 0 0 0 0,0 l -19030,-95670 a 0.50005,0.50005 0 0 0 0,0 l -54190,-81110 a 0.50005,0.50005 0 0 0 0,0 l -81110,-54190 a 0.50005,0.50005 0 0 0 0,0 l -95670,-19030 a 0.50005,0.50005 0 0 0 0,0 z m 0,0 h 900000 l 95670,19030 81110,54190 54190,81110 19030,95670 v 700000 l -19030,95670 -54190,81110 -81110,54190 -95670,19030 h -900000 l -95670,-19030 -81110,-54190 -54190,-81110 -19030,-95670 v -700000 l 19030,-95670 54190,-81110 81110,-54190 z"
         id="path8107" />
    </g>
  </g>
  <g
     id="g1181"
     style="fill:#000000;fill-opacity:0;stroke:#000000;stroke-width:100000;stroke-linecap:round;stroke-linejoin:round;stroke-opacity:1" />
  <g
     style="fill:#000000;stroke:none;stroke-linecap:round;stroke-linejoin:round"
     id="g1187">
    <g
       id="path1183"
       style="stroke:none">
      <path
         style="color:#000000;fill-rule:evenodd;stroke:none;-inkscape-stroke:none"
         d="m 234213600,134968400 19030,95670 54190,81110 81110,54190 95670,19030 h 700000 l 95670,-19030 81110,-54190 54190,-81110 19030,-95670 v -900000 l -19030,-95670 -54190,-81110 -81110,-54190 -95670,-19030 h -700000 l -95670,19030 -81110,54190 -54190,81110 -19030,95670 z"
         id="path8111" />
      <path
         style="color:#000000;fill-rule:evenodd;stroke:none;-inkscape-stroke:none"
         d="m 234463600,133818400 a 0.50005,0.50005 0 0 0 0,0 l -95670,19030 a 0.50005,0.50005 0 0 0 0,0 l -81110,54190 a 0.50005,0.50005 0 0 0 0,0 l -54190,81110 a 0.50005,0.50005 0 0 0 0,0 l -19030,95670 a 0.50005,0.50005 0 0 0 0,0 v 900000 a 0.50005,0.50005 0 0 0 0,0 l 19030,95670 a 0.50005,0.50005 0 0 0 0,0 l 54190,81110 a 0.50005,0.50005 0 0 0 0,0 l 81110,54190 a 0.50005,0.50005 0 0 0 0,0 l 95670,19030 a 0.50005,0.50005 0 0 0 0,0 h 700000 a 0.50005,0.50005 0 0 0 0,0 l 95670,-19030 a 0.50005,0.50005 0 0 0 0,0 l 81110,-54190 a 0.50005,0.50005 0 0 0 0,0 l 54190,-81110 a 0.50005,0.50005 0 0 0 0,0 l 19030,-95670 a 0.50005,0.50005 0 0 0 0,0 v -900000 a 0.50005,0.50005 0 0 0 0,0 l -19030,-95670 a 0.50005,0.50005 0 0 0 0,0 l -54190,-81110 a 0.50005,0.50005 0 0 0 0,0 l -81110,-54190 a 0.50005,0.50005 0 0 0 0,0 l -95670,-19030 a 0.50005,0.50005 0 0 0 0,0 z m 0,0 h 700000 l 95670,19030 81110,54190 54190,81110 19030,95670 v 900000 l -19030,95670 -54190,81110 -81110,54190 -95670,19030 h -700000 l -95670,-19030 -81110,-54190 -54190,-81110 -19030,-95670 v -900000 l 19030,-95670 54190,-81110 81110,-54190 z"
         id="path8113" />
    </g>
    <g
       id="path1185"
       style="stroke:none">
      <path
         style="color:#000000;fill-rule:evenodd;stroke:none;-inkscape-stroke:none"
         d="m 236213600,134968400 19030,95670 54190,81110 81110,54190 95670,19030 h 700000 l 95670,-19030 81110,-54190 54190,-81110 19030,-95670 v -900000 l -19030,-95670 -54190,-81110 -81110,-54190 -95670,-19030 h -700000 l -95670,19030 -81110,54190 -54190,81110 -19030,95670 z"
         id="path8117" />
      <path
         style="color:#000000;fill-rule:evenodd;stroke:none;-inkscape-stroke:none"
         d="m 236463600,133818400 a 0.50005,0.50005 0 0 0 0,0 l -95670,19030 a 0.50005,0.50005 0 0 0 0,0 l -81110,54190 a 0.50005,0.50005 0 0 0 0,0 l -54190,81110 a 0.50005,0.50005 0 0 0 0,0 l -19030,95670 a 0.50005,0.50005 0 0 0 0,0 v 900000 a 0.50005,0.50005 0 0 0 0,0 l 19030,95670 a 0.50005,0.50005 0 0 0 0,0 l 54190,81110 a 0.50005,0.50005 0 0 0 0,0 l 81110,54190 a 0.50005,0.50005 0 0 0 0,0 l 95670,19030 a 0.50005,0.50005 0 0 0 0,0 h 700000 a 0.50005,0.50005 0 0 0 0,0 l 95670,-19030 a 0.50005,0.50005 0 0 0 0,0 l 81110,-54190 a 0.50005,0.50005 0 0 0 0,0 l 54190,-81110 a 0.50005,0.50005 0 0 0 0,0 l 19030,-95670 a 0.50005,0.50005 0 0 0 0,0 v -900000 a 0.50005,0.50005 0 0 0 0,0 l -19030,-95670 a 0.50005,0.50005 0 0 0 0,0 l -54190,-81110 a 0.50005,0.50005 0 0 0 0,0 l -81110,-54190 a 0.50005,0.50005 0 0 0 0,0 l -95670,-19030 a 0.50005,0.50005 0 0 0 0,0 z m 0,0 h 700000 l 95670,19030 81110,54190 54190,81110 19030,95670 v 900000 l -19030,95670 -54190,81110 -81110,54190 -95670,19030 h -700000 l -95670,-19030 -81110,-54190 -54190,-81110 -19030,-95670 v -900000 l 19030,-95670 54190,-81110 81110,-54190 z"
         id="path8119" />
    </g>
  </g>
  <g
     id="g1189"
     style="fill:#000000;fill-opacity:0;stroke:#000000;stroke-width:100000;stroke-linecap:round;stroke-linejoin:round;stroke-opacity:1" />
  <g
     style="fill:#000000;stroke:none;stroke-linecap:round;stroke-linejoin:round"
     id="g1195">
    <g
       id="path1191"
       style="stroke:none">
      <path
         style="color:#000000;fill-rule:evenodd;stroke:none;-inkscape-stroke:none"
         d="m 219851200,133162000 95670,-19030 81110,-54190 54190,-81110 19030,-95670 v -825000 l -19030,-95670 -54190,-81110 -81110,-54190 -95670,-19030 h -1300000 l -95670,19030 -81110,54190 -54190,81110 -19030,95670 v 825000 l 19030,95670 54190,81110 81110,54190 95670,19030 z"
         id="path8123" />
      <path
         style="color:#000000;fill-rule:evenodd;stroke:none;-inkscape-stroke:none"
         d="m 218551200,131837000 a 0.50005,0.50005 0 0 0 0,0 l -95670,19030 a 0.50005,0.50005 0 0 0 0,0 l -81110,54190 a 0.50005,0.50005 0 0 0 0,0 l -54190,81110 a 0.50005,0.50005 0 0 0 0,0 l -19030,95670 a 0.50005,0.50005 0 0 0 0,0 v 825000 a 0.50005,0.50005 0 0 0 0,0 l 19030,95670 a 0.50005,0.50005 0 0 0 0,0 l 54190,81110 a 0.50005,0.50005 0 0 0 0,0 l 81110,54190 a 0.50005,0.50005 0 0 0 0,0 l 95670,19030 a 0.50005,0.50005 0 0 0 0,0 h 1300000 a 0.50005,0.50005 0 0 0 0,0 l 95670,-19030 a 0.50005,0.50005 0 0 0 0,0 l 81110,-54190 a 0.50005,0.50005 0 0 0 0,0 l 54190,-81110 a 0.50005,0.50005 0 0 0 0,0 l 19030,-95670 a 0.50005,0.50005 0 0 0 0,0 v -825000 a 0.50005,0.50005 0 0 0 0,0 l -19030,-95670 a 0.50005,0.50005 0 0 0 0,0 l -54190,-81110 a 0.50005,0.50005 0 0 0 0,0 l -81110,-54190 a 0.50005,0.50005 0 0 0 0,0 l -95670,-19030 a 0.50005,0.50005 0 0 0 0,0 z m 0,0 h 1300000 l 95670,19030 81110,54190 54190,81110 19030,95670 v 825000 l -19030,95670 -54190,81110 -81110,54190 -95670,19030 h -1300000 l -95670,-19030 -81110,-54190 -54190,-81110 -19030,-95670 v -825000 l 19030,-95670 54190,-81110 81110,-54190 z"
         id="path8125" />
    </g>
    <g
       id="path1193"
       style="stroke:none">
      <path
         style="color:#000000;fill-rule:evenodd;stroke:none;-inkscape-stroke:none"
         d="m 219851200,130037000 95670,-19030 81110,-54190 54190,-81110 19030,-95670 v -825000 l -19030,-95670 -54190,-81110 -81110,-54190 -95670,-19030 h -1300000 l -95670,19030 -81110,54190 -54190,81110 -19030,95670 v 825000 l 19030,95670 54190,81110 81110,54190 95670,19030 z"
         id="path8129" />
      <path
         style="color:#000000;fill-rule:evenodd;stroke:none;-inkscape-stroke:none"
         d="m 218551200,128712000 a 0.50005,0.50005 0 0 0 0,0 l -95670,19030 a 0.50005,0.50005 0 0 0 0,0 l -81110,54190 a 0.50005,0.50005 0 0 0 0,0 l -54190,81110 a 0.50005,0.50005 0 0 0 0,0 l -19030,95670 a 0.50005,0.50005 0 0 0 0,0 v 825000 a 0.50005,0.50005 0 0 0 0,0 l 19030,95670 a 0.50005,0.50005 0 0 0 0,0 l 54190,81110 a 0.50005,0.50005 0 0 0 0,0 l 81110,54190 a 0.50005,0.50005 0 0 0 0,0 l 95670,19030 a 0.50005,0.50005 0 0 0 0,0 h 1300000 a 0.50005,0.50005 0 0 0 0,0 l 95670,-19030 a 0.50005,0.50005 0 0 0 0,0 l 81110,-54190 a 0.50005,0.50005 0 0 0 0,0 l 54190,-81110 a 0.50005,0.50005 0 0 0 0,0 l 19030,-95670 a 0.50005,0.50005 0 0 0 0,0 v -825000 a 0.50005,0.50005 0 0 0 0,0 l -19030,-95670 a 0.50005,0.50005 0 0 0 0,0 l -54190,-81110 a 0.50005,0.50005 0 0 0 0,0 l -81110,-54190 a 0.50005,0.50005 0 0 0 0,0 l -95670,-19030 a 0.50005,0.50005 0 0 0 0,0 z m 0,0 h 1300000 l 95670,19030 81110,54190 54190,81110 19030,95670 v 825000 l -19030,95670 -54190,81110 -81110,54190 -95670,19030 h -1300000 l -95670,-19030 -81110,-54190 -54190,-81110 -19030,-95670 v -825000 l 19030,-95670 54190,-81110 81110,-54190 z"
         id="path8131" />
    </g>
  </g>
  <g
     id="g1197"
     style="fill:#000000;fill-opacity:0;stroke:#000000;stroke-width:100000;stroke-linecap:round;stroke-linejoin:round;stroke-opacity:1" />
  <g
     style="fill:#000000;stroke:none;stroke-linecap:round;stroke-linejoin:round"
     id="g1203">
    <g
       id="path1199"
       style="stroke:none">
      <path
         style="color:#000000;fill-rule:evenodd;stroke:none;-inkscape-stroke:none"
         d="m 221284200,130625000 19030,95670 54190,81110 81110,54190 95670,19030 h 700000 l 95670,-19030 81110,-54190 54190,-81110 19030,-95670 v -900000 l -19030,-95670 -54190,-81110 -81110,-54190 -95670,-19030 h -700000 l -95670,19030 -81110,54190 -54190,81110 -19030,95670 z"
         id="path8135" />
      <path
         style="color:#000000;fill-rule:evenodd;stroke:none;-inkscape-stroke:none"
         d="m 221534200,129475000 a 0.50005,0.50005 0 0 0 0,0 l -95670,19030 a 0.50005,0.50005 0 0 0 0,0 l -81110,54190 a 0.50005,0.50005 0 0 0 0,0 l -54190,81110 a 0.50005,0.50005 0 0 0 0,0 l -19030,95670 a 0.50005,0.50005 0 0 0 0,0 v 900000 a 0.50005,0.50005 0 0 0 0,0 l 19030,95670 a 0.50005,0.50005 0 0 0 0,0 l 54190,81110 a 0.50005,0.50005 0 0 0 0,0 l 81110,54190 a 0.50005,0.50005 0 0 0 0,0 l 95670,19030 a 0.50005,0.50005 0 0 0 0,0 h 700000 a 0.50005,0.50005 0 0 0 0,0 l 95670,-19030 a 0.50005,0.50005 0 0 0 0,0 l 81110,-54190 a 0.50005,0.50005 0 0 0 0,0 l 54190,-81110 a 0.50005,0.50005 0 0 0 0,0 l 19030,-95670 a 0.50005,0.50005 0 0 0 0,0 v -900000 a 0.50005,0.50005 0 0 0 0,0 l -19030,-95670 a 0.50005,0.50005 0 0 0 0,0 l -54190,-81110 a 0.50005,0.50005 0 0 0 0,0 l -81110,-54190 a 0.50005,0.50005 0 0 0 0,0 l -95670,-19030 a 0.50005,0.50005 0 0 0 0,0 z m 0,0 h 700000 l 95670,19030 81110,54190 54190,81110 19030,95670 v 900000 l -19030,95670 -54190,81110 -81110,54190 -95670,19030 h -700000 l -95670,-19030 -81110,-54190 -54190,-81110 -19030,-95670 v -900000 l 19030,-95670 54190,-81110 81110,-54190 z"
         id="path8137" />
    </g>
    <g
       id="path1201"
       style="stroke:none">
      <path
         style="color:#000000;fill-rule:evenodd;stroke:none;-inkscape-stroke:none"
         d="m 223284200,130625000 19030,95670 54190,81110 81110,54190 95670,19030 h 700000 l 95670,-19030 81110,-54190 54190,-81110 19030,-95670 v -900000 l -19030,-95670 -54190,-81110 -81110,-54190 -95670,-19030 h -700000 l -95670,19030 -81110,54190 -54190,81110 -19030,95670 z"
         id="path8141" />
      <path
         style="color:#000000;fill-rule:evenodd;stroke:none;-inkscape-stroke:none"
         d="m 223534200,129475000 a 0.50005,0.50005 0 0 0 0,0 l -95670,19030 a 0.50005,0.50005 0 0 0 0,0 l -81110,54190 a 0.50005,0.50005 0 0 0 0,0 l -54190,81110 a 0.50005,0.50005 0 0 0 0,0 l -19030,95670 a 0.50005,0.50005 0 0 0 0,0 v 900000 a 0.50005,0.50005 0 0 0 0,0 l 19030,95670 a 0.50005,0.50005 0 0 0 0,0 l 54190,81110 a 0.50005,0.50005 0 0 0 0,0 l 81110,54190 a 0.50005,0.50005 0 0 0 0,0 l 95670,19030 a 0.50005,0.50005 0 0 0 0,0 h 700000 a 0.50005,0.50005 0 0 0 0,0 l 95670,-19030 a 0.50005,0.50005 0 0 0 0,0 l 81110,-54190 a 0.50005,0.50005 0 0 0 0,0 l 54190,-81110 a 0.50005,0.50005 0 0 0 0,0 l 19030,-95670 a 0.50005,0.50005 0 0 0 0,0 v -900000 a 0.50005,0.50005 0 0 0 0,0 l -19030,-95670 a 0.50005,0.50005 0 0 0 0,0 l -54190,-81110 a 0.50005,0.50005 0 0 0 0,0 l -81110,-54190 a 0.50005,0.50005 0 0 0 0,0 l -95670,-19030 a 0.50005,0.50005 0 0 0 0,0 z m 0,0 h 700000 l 95670,19030 81110,54190 54190,81110 19030,95670 v 900000 l -19030,95670 -54190,81110 -81110,54190 -95670,19030 h -700000 l -95670,-19030 -81110,-54190 -54190,-81110 -19030,-95670 v -900000 l 19030,-95670 54190,-81110 81110,-54190 z"
         id="path8143" />
    </g>
  </g>
  <g
     id="g1205"
     style="fill:#000000;fill-opacity:0;stroke:#000000;stroke-width:100000;stroke-linecap:round;stroke-linejoin:round;stroke-opacity:1" />
  <g
     id="g1207"
     style="fill:#000000;fill-opacity:0;stroke:#000000;stroke-width:100000;stroke-linecap:round;stroke-linejoin:round;stroke-opacity:1" />
  <g
     style="fill:#000000;stroke:none;stroke-linecap:round;stroke-linejoin:round"
     id="g1213">
    <g
       id="path1209"
       style="stroke:none">
      <path
         style="color:#000000;fill-rule:evenodd;stroke:none;-inkscape-stroke:none"
         d="m 234188200,106622000 19030,95670 54190,81110 81110,54190 95670,19030 h 700000 l 95670,-19030 81110,-54190 54190,-81110 19030,-95670 v -900000 l -19030,-95670 -54190,-81110 -81110,-54190 -95670,-19030 h -700000 l -95670,19030 -81110,54190 -54190,81110 -19030,95670 z"
         id="path8147" />
      <path
         style="color:#000000;fill-rule:evenodd;stroke:none;-inkscape-stroke:none"
         d="m 234438200,105472000 a 0.50005,0.50005 0 0 0 0,0 l -95670,19030 a 0.50005,0.50005 0 0 0 0,0 l -81110,54190 a 0.50005,0.50005 0 0 0 0,0 l -54190,81110 a 0.50005,0.50005 0 0 0 0,0 l -19030,95670 a 0.50005,0.50005 0 0 0 0,0 v 900000 a 0.50005,0.50005 0 0 0 0,0 l 19030,95670 a 0.50005,0.50005 0 0 0 0,0 l 54190,81110 a 0.50005,0.50005 0 0 0 0,0 l 81110,54190 a 0.50005,0.50005 0 0 0 0,0 l 95670,19030 a 0.50005,0.50005 0 0 0 0,0 h 700000 a 0.50005,0.50005 0 0 0 0,0 l 95670,-19030 a 0.50005,0.50005 0 0 0 0,0 l 81110,-54190 a 0.50005,0.50005 0 0 0 0,0 l 54190,-81110 a 0.50005,0.50005 0 0 0 0,0 l 19030,-95670 a 0.50005,0.50005 0 0 0 0,0 v -900000 a 0.50005,0.50005 0 0 0 0,0 l -19030,-95670 a 0.50005,0.50005 0 0 0 0,0 l -54190,-81110 a 0.50005,0.50005 0 0 0 0,0 l -81110,-54190 a 0.50005,0.50005 0 0 0 0,0 l -95670,-19030 a 0.50005,0.50005 0 0 0 0,0 z m 0,0 h 700000 l 95670,19030 81110,54190 54190,81110 19030,95670 v 900000 l -19030,95670 -54190,81110 -81110,54190 -95670,19030 h -700000 l -95670,-19030 -81110,-54190 -54190,-81110 -19030,-95670 v -900000 l 19030,-95670 54190,-81110 81110,-54190 z"
         id="path8149" />
    </g>
    <g
       id="path1211"
       style="stroke:none">
      <path
         style="color:#000000;fill-rule:evenodd;stroke:none;-inkscape-stroke:none"
         d="m 236188200,106622000 19030,95670 54190,81110 81110,54190 95670,19030 h 700000 l 95670,-19030 81110,-54190 54190,-81110 19030,-95670 v -900000 l -19030,-95670 -54190,-81110 -81110,-54190 -95670,-19030 h -700000 l -95670,19030 -81110,54190 -54190,81110 -19030,95670 z"
         id="path8153" />
      <path
         style="color:#000000;fill-rule:evenodd;stroke:none;-inkscape-stroke:none"
         d="m 236438200,105472000 a 0.50005,0.50005 0 0 0 0,0 l -95670,19030 a 0.50005,0.50005 0 0 0 0,0 l -81110,54190 a 0.50005,0.50005 0 0 0 0,0 l -54190,81110 a 0.50005,0.50005 0 0 0 0,0 l -19030,95670 a 0.50005,0.50005 0 0 0 0,0 v 900000 a 0.50005,0.50005 0 0 0 0,0 l 19030,95670 a 0.50005,0.50005 0 0 0 0,0 l 54190,81110 a 0.50005,0.50005 0 0 0 0,0 l 81110,54190 a 0.50005,0.50005 0 0 0 0,0 l 95670,19030 a 0.50005,0.50005 0 0 0 0,0 h 700000 a 0.50005,0.50005 0 0 0 0,0 l 95670,-19030 a 0.50005,0.50005 0 0 0 0,0 l 81110,-54190 a 0.50005,0.50005 0 0 0 0,0 l 54190,-81110 a 0.50005,0.50005 0 0 0 0,0 l 19030,-95670 a 0.50005,0.50005 0 0 0 0,0 v -900000 a 0.50005,0.50005 0 0 0 0,0 l -19030,-95670 a 0.50005,0.50005 0 0 0 0,0 l -54190,-81110 a 0.50005,0.50005 0 0 0 0,0 l -81110,-54190 a 0.50005,0.50005 0 0 0 0,0 l -95670,-19030 a 0.50005,0.50005 0 0 0 0,0 z m 0,0 h 700000 l 95670,19030 81110,54190 54190,81110 19030,95670 v 900000 l -19030,95670 -54190,81110 -81110,54190 -95670,19030 h -700000 l -95670,-19030 -81110,-54190 -54190,-81110 -19030,-95670 v -900000 l 19030,-95670 54190,-81110 81110,-54190 z"
         id="path8155" />
    </g>
  </g>
  <g
     id="g1215"
     style="fill:#000000;fill-opacity:0;stroke:#000000;stroke-width:100000;stroke-linecap:round;stroke-linejoin:round;stroke-opacity:1" />
  <g
     style="fill:#000000;stroke:none;stroke-linecap:round;stroke-linejoin:round"
     id="g1229">
    <g
       id="path1217"
       style="stroke:none">
      <path
         style="color:#000000;fill-rule:evenodd;stroke:none;-inkscape-stroke:none"
         d="m 223414200,127165000 -11420,-57400 -32510,-48670 -48670,-32510 -57400,-11420 h -1025000 l -57400,11420 -48670,32510 -32510,48670 -11420,57400 v 300000 l 11420,57400 32510,48670 48670,32510 57400,11420 h 1025000 l 57400,-11420 48670,-32510 32510,-48670 11420,-57400 z"
         id="path8159" />
      <path
         style="color:#000000;fill-rule:evenodd;stroke:none;-inkscape-stroke:none"
         d="m 222239200,127015000 a 0.50005,0.50005 0 0 0 0,0 l -57400,11420 a 0.50005,0.50005 0 0 0 0,0 l -48670,32510 a 0.50005,0.50005 0 0 0 0,0 l -32510,48670 a 0.50005,0.50005 0 0 0 0,0 l -11420,57400 a 0.50005,0.50005 0 0 0 0,0 v 300000 a 0.50005,0.50005 0 0 0 0,0 l 11420,57400 a 0.50005,0.50005 0 0 0 0,0 l 32510,48670 a 0.50005,0.50005 0 0 0 0,0 l 48670,32510 a 0.50005,0.50005 0 0 0 0,0 l 57400,11420 a 0.50005,0.50005 0 0 0 0,0 h 1025000 a 0.50005,0.50005 0 0 0 0,0 l 57400,-11420 a 0.50005,0.50005 0 0 0 0,0 l 48670,-32510 a 0.50005,0.50005 0 0 0 0,0 l 32510,-48670 a 0.50005,0.50005 0 0 0 0,0 l 11420,-57400 a 0.50005,0.50005 0 0 0 0,0 v -300000 a 0.50005,0.50005 0 0 0 0,0 l -11420,-57400 a 0.50005,0.50005 0 0 0 0,0 l -32510,-48670 a 0.50005,0.50005 0 0 0 0,0 l -48670,-32510 a 0.50005,0.50005 0 0 0 0,0 l -57400,-11420 a 0.50005,0.50005 0 0 0 0,0 z m 0,0 h 1025000 l 57400,11420 48670,32510 32510,48670 11420,57400 v 300000 l -11420,57400 -32510,48670 -48670,32510 -57400,11420 h -1025000 l -57400,-11420 -48670,-32510 -32510,-48670 -11420,-57400 v -300000 l 11420,-57400 32510,-48670 48670,-32510 z"
         id="path8161" />
    </g>
    <g
       id="path1219"
       style="stroke:none">
      <path
         style="color:#000000;fill-rule:evenodd;stroke:none;-inkscape-stroke:none"
         d="m 223414200,126215000 -11420,-57400 -32510,-48670 -48670,-32510 -57400,-11420 h -1025000 l -57400,11420 -48670,32510 -32510,48670 -11420,57400 v 300000 l 11420,57400 32510,48670 48670,32510 57400,11420 h 1025000 l 57400,-11420 48670,-32510 32510,-48670 11420,-57400 z"
         id="path8165" />
      <path
         style="color:#000000;fill-rule:evenodd;stroke:none;-inkscape-stroke:none"
         d="m 222239200,126065000 a 0.50005,0.50005 0 0 0 0,0 l -57400,11420 a 0.50005,0.50005 0 0 0 0,0 l -48670,32510 a 0.50005,0.50005 0 0 0 0,0 l -32510,48670 a 0.50005,0.50005 0 0 0 0,0 l -11420,57400 a 0.50005,0.50005 0 0 0 0,0 v 300000 a 0.50005,0.50005 0 0 0 0,0 l 11420,57400 a 0.50005,0.50005 0 0 0 0,0 l 32510,48670 a 0.50005,0.50005 0 0 0 0,0 l 48670,32510 a 0.50005,0.50005 0 0 0 0,0 l 57400,11420 a 0.50005,0.50005 0 0 0 0,0 h 1025000 a 0.50005,0.50005 0 0 0 0,0 l 57400,-11420 a 0.50005,0.50005 0 0 0 0,0 l 48670,-32510 a 0.50005,0.50005 0 0 0 0,0 l 32510,-48670 a 0.50005,0.50005 0 0 0 0,0 l 11420,-57400 a 0.50005,0.50005 0 0 0 0,0 v -300000 a 0.50005,0.50005 0 0 0 0,0 l -11420,-57400 a 0.50005,0.50005 0 0 0 0,0 l -32510,-48670 a 0.50005,0.50005 0 0 0 0,0 l -48670,-32510 a 0.50005,0.50005 0 0 0 0,0 l -57400,-11420 a 0.50005,0.50005 0 0 0 0,0 z m 0,0 h 1025000 l 57400,11420 48670,32510 32510,48670 11420,57400 v 300000 l -11420,57400 -32510,48670 -48670,32510 -57400,11420 h -1025000 l -57400,-11420 -48670,-32510 -32510,-48670 -11420,-57400 v -300000 l 11420,-57400 32510,-48670 48670,-32510 z"
         id="path8167" />
    </g>
    <g
       id="path1221"
       style="stroke:none">
      <path
         style="color:#000000;fill-rule:evenodd;stroke:none;-inkscape-stroke:none"
         d="m 223414200,125265000 -11420,-57400 -32510,-48670 -48670,-32510 -57400,-11420 h -1025000 l -57400,11420 -48670,32510 -32510,48670 -11420,57400 v 300000 l 11420,57400 32510,48670 48670,32510 57400,11420 h 1025000 l 57400,-11420 48670,-32510 32510,-48670 11420,-57400 z"
         id="path8171" />
      <path
         style="color:#000000;fill-rule:evenodd;stroke:none;-inkscape-stroke:none"
         d="m 222239200,125115000 a 0.50005,0.50005 0 0 0 0,0 l -57400,11420 a 0.50005,0.50005 0 0 0 0,0 l -48670,32510 a 0.50005,0.50005 0 0 0 0,0 l -32510,48670 a 0.50005,0.50005 0 0 0 0,0 l -11420,57400 a 0.50005,0.50005 0 0 0 0,0 v 300000 a 0.50005,0.50005 0 0 0 0,0 l 11420,57400 a 0.50005,0.50005 0 0 0 0,0 l 32510,48670 a 0.50005,0.50005 0 0 0 0,0 l 48670,32510 a 0.50005,0.50005 0 0 0 0,0 l 57400,11420 a 0.50005,0.50005 0 0 0 0,0 h 1025000 a 0.50005,0.50005 0 0 0 0,0 l 57400,-11420 a 0.50005,0.50005 0 0 0 0,0 l 48670,-32510 a 0.50005,0.50005 0 0 0 0,0 l 32510,-48670 a 0.50005,0.50005 0 0 0 0,0 l 11420,-57400 a 0.50005,0.50005 0 0 0 0,0 v -300000 a 0.50005,0.50005 0 0 0 0,0 l -11420,-57400 a 0.50005,0.50005 0 0 0 0,0 l -32510,-48670 a 0.50005,0.50005 0 0 0 0,0 l -48670,-32510 a 0.50005,0.50005 0 0 0 0,0 l -57400,-11420 a 0.50005,0.50005 0 0 0 0,0 z m 0,0 h 1025000 l 57400,11420 48670,32510 32510,48670 11420,57400 v 300000 l -11420,57400 -32510,48670 -48670,32510 -57400,11420 h -1025000 l -57400,-11420 -48670,-32510 -32510,-48670 -11420,-57400 v -300000 l 11420,-57400 32510,-48670 48670,-32510 z"
         id="path8173" />
    </g>
    <g
       id="path1223"
       style="stroke:none">
      <path
         style="color:#000000;fill-rule:evenodd;stroke:none;-inkscape-stroke:none"
         d="m 221139200,125265000 -11420,-57400 -32510,-48670 -48670,-32510 -57400,-11420 h -1025000 l -57400,11420 -48670,32510 -32510,48670 -11420,57400 v 300000 l 11420,57400 32510,48670 48670,32510 57400,11420 h 1025000 l 57400,-11420 48670,-32510 32510,-48670 11420,-57400 z"
         id="path8177" />
      <path
         style="color:#000000;fill-rule:evenodd;stroke:none;-inkscape-stroke:none"
         d="m 219964200,125115000 a 0.50005,0.50005 0 0 0 0,0 l -57400,11420 a 0.50005,0.50005 0 0 0 0,0 l -48670,32510 a 0.50005,0.50005 0 0 0 0,0 l -32510,48670 a 0.50005,0.50005 0 0 0 0,0 l -11420,57400 a 0.50005,0.50005 0 0 0 0,0 v 300000 a 0.50005,0.50005 0 0 0 0,0 l 11420,57400 a 0.50005,0.50005 0 0 0 0,0 l 32510,48670 a 0.50005,0.50005 0 0 0 0,0 l 48670,32510 a 0.50005,0.50005 0 0 0 0,0 l 57400,11420 a 0.50005,0.50005 0 0 0 0,0 h 1025000 a 0.50005,0.50005 0 0 0 0,0 l 57400,-11420 a 0.50005,0.50005 0 0 0 0,0 l 48670,-32510 a 0.50005,0.50005 0 0 0 0,0 l 32510,-48670 a 0.50005,0.50005 0 0 0 0,0 l 11420,-57400 a 0.50005,0.50005 0 0 0 0,0 v -300000 a 0.50005,0.50005 0 0 0 0,0 l -11420,-57400 a 0.50005,0.50005 0 0 0 0,0 l -32510,-48670 a 0.50005,0.50005 0 0 0 0,0 l -48670,-32510 a 0.50005,0.50005 0 0 0 0,0 l -57400,-11420 a 0.50005,0.50005 0 0 0 0,0 z m 0,0 h 1025000 l 57400,11420 48670,32510 32510,48670 11420,57400 v 300000 l -11420,57400 -32510,48670 -48670,32510 -57400,11420 h -1025000 l -57400,-11420 -48670,-32510 -32510,-48670 -11420,-57400 v -300000 l 11420,-57400 32510,-48670 48670,-32510 z"
         id="path8179" />
    </g>
    <g
       id="path1225"
       style="stroke:none">
      <path
         style="color:#000000;fill-rule:evenodd;stroke:none;-inkscape-stroke:none"
         d="m 221139200,126215000 -11420,-57400 -32510,-48670 -48670,-32510 -57400,-11420 h -1025000 l -57400,11420 -48670,32510 -32510,48670 -11420,57400 v 300000 l 11420,57400 32510,48670 48670,32510 57400,11420 h 1025000 l 57400,-11420 48670,-32510 32510,-48670 11420,-57400 z"
         id="path8183" />
      <path
         style="color:#000000;fill-rule:evenodd;stroke:none;-inkscape-stroke:none"
         d="m 219964200,126065000 a 0.50005,0.50005 0 0 0 0,0 l -57400,11420 a 0.50005,0.50005 0 0 0 0,0 l -48670,32510 a 0.50005,0.50005 0 0 0 0,0 l -32510,48670 a 0.50005,0.50005 0 0 0 0,0 l -11420,57400 a 0.50005,0.50005 0 0 0 0,0 v 300000 a 0.50005,0.50005 0 0 0 0,0 l 11420,57400 a 0.50005,0.50005 0 0 0 0,0 l 32510,48670 a 0.50005,0.50005 0 0 0 0,0 l 48670,32510 a 0.50005,0.50005 0 0 0 0,0 l 57400,11420 a 0.50005,0.50005 0 0 0 0,0 h 1025000 a 0.50005,0.50005 0 0 0 0,0 l 57400,-11420 a 0.50005,0.50005 0 0 0 0,0 l 48670,-32510 a 0.50005,0.50005 0 0 0 0,0 l 32510,-48670 a 0.50005,0.50005 0 0 0 0,0 l 11420,-57400 a 0.50005,0.50005 0 0 0 0,0 v -300000 a 0.50005,0.50005 0 0 0 0,0 l -11420,-57400 a 0.50005,0.50005 0 0 0 0,0 l -32510,-48670 a 0.50005,0.50005 0 0 0 0,0 l -48670,-32510 a 0.50005,0.50005 0 0 0 0,0 l -57400,-11420 a 0.50005,0.50005 0 0 0 0,0 z m 0,0 h 1025000 l 57400,11420 48670,32510 32510,48670 11420,57400 v 300000 l -11420,57400 -32510,48670 -48670,32510 -57400,11420 h -1025000 l -57400,-11420 -48670,-32510 -32510,-48670 -11420,-57400 v -300000 l 11420,-57400 32510,-48670 48670,-32510 z"
         id="path8185" />
    </g>
    <g
       id="path1227"
       style="stroke:none">
      <path
         style="color:#000000;fill-rule:evenodd;stroke:none;-inkscape-stroke:none"
         d="m 221139200,127165000 -11420,-57400 -32510,-48670 -48670,-32510 -57400,-11420 h -1025000 l -57400,11420 -48670,32510 -32510,48670 -11420,57400 v 300000 l 11420,57400 32510,48670 48670,32510 57400,11420 h 1025000 l 57400,-11420 48670,-32510 32510,-48670 11420,-57400 z"
         id="path8189" />
      <path
         style="color:#000000;fill-rule:evenodd;stroke:none;-inkscape-stroke:none"
         d="m 219964200,127015000 a 0.50005,0.50005 0 0 0 0,0 l -57400,11420 a 0.50005,0.50005 0 0 0 0,0 l -48670,32510 a 0.50005,0.50005 0 0 0 0,0 l -32510,48670 a 0.50005,0.50005 0 0 0 0,0 l -11420,57400 a 0.50005,0.50005 0 0 0 0,0 v 300000 a 0.50005,0.50005 0 0 0 0,0 l 11420,57400 a 0.50005,0.50005 0 0 0 0,0 l 32510,48670 a 0.50005,0.50005 0 0 0 0,0 l 48670,32510 a 0.50005,0.50005 0 0 0 0,0 l 57400,11420 a 0.50005,0.50005 0 0 0 0,0 h 1025000 a 0.50005,0.50005 0 0 0 0,0 l 57400,-11420 a 0.50005,0.50005 0 0 0 0,0 l 48670,-32510 a 0.50005,0.50005 0 0 0 0,0 l 32510,-48670 a 0.50005,0.50005 0 0 0 0,0 l 11420,-57400 a 0.50005,0.50005 0 0 0 0,0 v -300000 a 0.50005,0.50005 0 0 0 0,0 l -11420,-57400 a 0.50005,0.50005 0 0 0 0,0 l -32510,-48670 a 0.50005,0.50005 0 0 0 0,0 l -48670,-32510 a 0.50005,0.50005 0 0 0 0,0 l -57400,-11420 a 0.50005,0.50005 0 0 0 0,0 z m 0,0 h 1025000 l 57400,11420 48670,32510 32510,48670 11420,57400 v 300000 l -11420,57400 -32510,48670 -48670,32510 -57400,11420 h -1025000 l -57400,-11420 -48670,-32510 -32510,-48670 -11420,-57400 v -300000 l 11420,-57400 32510,-48670 48670,-32510 z"
         id="path8191" />
    </g>
  </g>
  <g
     id="g1231"
     style="fill:#000000;fill-opacity:0;stroke:#000000;stroke-width:100000;stroke-linecap:round;stroke-linejoin:round;stroke-opacity:1" />
  <g
     style="fill:#000000;stroke:none;stroke-linecap:round;stroke-linejoin:round"
     id="g1237">
    <g
       id="path1233"
       style="stroke:none">
      <path
         style="color:#000000;fill-rule:evenodd;stroke:none;-inkscape-stroke:none"
         d="m 216965200,129065000 v -5400000 h -2900000 v 5400000 z"
         id="path8195" />
      <path
         style="color:#000000;fill-rule:evenodd;stroke:none;-inkscape-stroke:none"
         d="m 214065200,123665000 a 0.50005,0.50005 0 0 0 0,0 v 5400000 a 0.50005,0.50005 0 0 0 0,0 h 2900000 a 0.50005,0.50005 0 0 0 0,0 v -5400000 a 0.50005,0.50005 0 0 0 0,0 z m 0,0 h 2900000 v 5400000 h -2900000 z"
         id="path8197" />
    </g>
    <g
       id="path1235"
       style="stroke:none">
      <path
         style="color:#000000;fill-rule:evenodd;stroke:none;-inkscape-stroke:none"
         d="m 207065200,129065000 v -5400000 h -2900000 v 5400000 z"
         id="path8201" />
      <path
         style="color:#000000;fill-rule:evenodd;stroke:none;-inkscape-stroke:none"
         d="m 204165200,123665000 a 0.50005,0.50005 0 0 0 0,0 v 5400000 a 0.50005,0.50005 0 0 0 0,0 h 2900000 a 0.50005,0.50005 0 0 0 0,0 v -5400000 a 0.50005,0.50005 0 0 0 0,0 z m 0,0 h 2900000 v 5400000 h -2900000 z"
         id="path8203" />
    </g>
  </g>
  <g
     id="g1239"
     style="fill:#000000;fill-opacity:0;stroke:#000000;stroke-width:100000;stroke-linecap:round;stroke-linejoin:round;stroke-opacity:1" />
  <g
     id="g1241"
     style="fill:#000000;fill-opacity:0;stroke:#000000;stroke-width:100000;stroke-linecap:round;stroke-linejoin:round;stroke-opacity:1" />
  <g
     style="fill:#000000;stroke:none;stroke-linecap:round;stroke-linejoin:round"
     id="g1247">
    <g
       id="path1243"
       style="stroke:none">
      <path
         style="color:#000000;fill-rule:evenodd;stroke:none;-inkscape-stroke:none"
         d="m 223839200,116190000 -19030,-95670 -54190,-81110 -81110,-54190 -95670,-19030 h -825000 l -95670,19030 -81110,54190 -54190,81110 -19030,95670 v 1300000 l 19030,95670 54190,81110 81110,54190 95670,19030 h 825000 l 95670,-19030 81110,-54190 54190,-81110 19030,-95670 z"
         id="path8207" />
      <path
         style="color:#000000;fill-rule:evenodd;stroke:none;-inkscape-stroke:none"
         d="m 222764200,115940000 a 0.50005,0.50005 0 0 0 0,0 l -95670,19030 a 0.50005,0.50005 0 0 0 0,0 l -81110,54190 a 0.50005,0.50005 0 0 0 0,0 l -54190,81110 a 0.50005,0.50005 0 0 0 0,0 l -19030,95670 a 0.50005,0.50005 0 0 0 0,0 v 1300000 a 0.50005,0.50005 0 0 0 0,0 l 19030,95670 a 0.50005,0.50005 0 0 0 0,0 l 54190,81110 a 0.50005,0.50005 0 0 0 0,0 l 81110,54190 a 0.50005,0.50005 0 0 0 0,0 l 95670,19030 a 0.50005,0.50005 0 0 0 0,0 h 825000 a 0.50005,0.50005 0 0 0 0,0 l 95670,-19030 a 0.50005,0.50005 0 0 0 0,0 l 81110,-54190 a 0.50005,0.50005 0 0 0 0,0 l 54190,-81110 a 0.50005,0.50005 0 0 0 0,0 l 19030,-95670 a 0.50005,0.50005 0 0 0 0,0 v -1300000 a 0.50005,0.50005 0 0 0 0,0 l -19030,-95670 a 0.50005,0.50005 0 0 0 0,0 l -54190,-81110 a 0.50005,0.50005 0 0 0 0,0 l -81110,-54190 a 0.50005,0.50005 0 0 0 0,0 l -95670,-19030 a 0.50005,0.50005 0 0 0 0,0 z m 0,0 h 825000 l 95670,19030 81110,54190 54190,81110 19030,95670 v 1300000 l -19030,95670 -54190,81110 -81110,54190 -95670,19030 h -825000 l -95670,-19030 -81110,-54190 -54190,-81110 -19030,-95670 v -1300000 l 19030,-95670 54190,-81110 81110,-54190 z"
         id="path8209" />
    </g>
    <g
       id="path1245"
       style="stroke:none">
      <path
         style="color:#000000;fill-rule:evenodd;stroke:none;-inkscape-stroke:none"
         d="m 220714200,116190000 -19030,-95670 -54190,-81110 -81110,-54190 -95670,-19030 h -825000 l -95670,19030 -81110,54190 -54190,81110 -19030,95670 v 1300000 l 19030,95670 54190,81110 81110,54190 95670,19030 h 825000 l 95670,-19030 81110,-54190 54190,-81110 19030,-95670 z"
         id="path8213" />
      <path
         style="color:#000000;fill-rule:evenodd;stroke:none;-inkscape-stroke:none"
         d="m 219639200,115940000 a 0.50005,0.50005 0 0 0 0,0 l -95670,19030 a 0.50005,0.50005 0 0 0 0,0 l -81110,54190 a 0.50005,0.50005 0 0 0 0,0 l -54190,81110 a 0.50005,0.50005 0 0 0 0,0 l -19030,95670 a 0.50005,0.50005 0 0 0 0,0 v 1300000 a 0.50005,0.50005 0 0 0 0,0 l 19030,95670 a 0.50005,0.50005 0 0 0 0,0 l 54190,81110 a 0.50005,0.50005 0 0 0 0,0 l 81110,54190 a 0.50005,0.50005 0 0 0 0,0 l 95670,19030 a 0.50005,0.50005 0 0 0 0,0 h 825000 a 0.50005,0.50005 0 0 0 0,0 l 95670,-19030 a 0.50005,0.50005 0 0 0 0,0 l 81110,-54190 a 0.50005,0.50005 0 0 0 0,0 l 54190,-81110 a 0.50005,0.50005 0 0 0 0,0 l 19030,-95670 a 0.50005,0.50005 0 0 0 0,0 v -1300000 a 0.50005,0.50005 0 0 0 0,0 l -19030,-95670 a 0.50005,0.50005 0 0 0 0,0 l -54190,-81110 a 0.50005,0.50005 0 0 0 0,0 l -81110,-54190 a 0.50005,0.50005 0 0 0 0,0 l -95670,-19030 a 0.50005,0.50005 0 0 0 0,0 z m 0,0 h 825000 l 95670,19030 81110,54190 54190,81110 19030,95670 v 1300000 l -19030,95670 -54190,81110 -81110,54190 -95670,19030 h -825000 l -95670,-19030 -81110,-54190 -54190,-81110 -19030,-95670 v -1300000 l 19030,-95670 54190,-81110 81110,-54190 z"
         id="path8215" />
    </g>
  </g>
  <g
     id="g1249"
     style="fill:#000000;fill-opacity:0;stroke:#000000;stroke-width:100000;stroke-linecap:round;stroke-linejoin:round;stroke-opacity:1" />
  <g
     style="fill:#000000;stroke:none;stroke-linecap:round;stroke-linejoin:round"
     id="g1255">
    <g
       id="path1251"
       style="stroke:none">
      <path
         style="color:#000000;fill-rule:evenodd;stroke:none;-inkscape-stroke:none"
         d="m 202071200,129987000 95670,-19030 81110,-54190 54190,-81110 19030,-95670 v -825000 l -19030,-95670 -54190,-81110 -81110,-54190 -95670,-19030 h -1300000 l -95670,19030 -81110,54190 -54190,81110 -19030,95670 v 825000 l 19030,95670 54190,81110 81110,54190 95670,19030 z"
         id="path8219" />
      <path
         style="color:#000000;fill-rule:evenodd;stroke:none;-inkscape-stroke:none"
         d="m 200771200,128662000 a 0.50005,0.50005 0 0 0 0,0 l -95670,19030 a 0.50005,0.50005 0 0 0 0,0 l -81110,54190 a 0.50005,0.50005 0 0 0 0,0 l -54190,81110 a 0.50005,0.50005 0 0 0 0,0 l -19030,95670 a 0.50005,0.50005 0 0 0 0,0 v 825000 a 0.50005,0.50005 0 0 0 0,0 l 19030,95670 a 0.50005,0.50005 0 0 0 0,0 l 54190,81110 a 0.50005,0.50005 0 0 0 0,0 l 81110,54190 a 0.50005,0.50005 0 0 0 0,0 l 95670,19030 a 0.50005,0.50005 0 0 0 0,0 h 1300000 a 0.50005,0.50005 0 0 0 0,0 l 95670,-19030 a 0.50005,0.50005 0 0 0 0,0 l 81110,-54190 a 0.50005,0.50005 0 0 0 0,0 l 54190,-81110 a 0.50005,0.50005 0 0 0 0,0 l 19030,-95670 a 0.50005,0.50005 0 0 0 0,0 v -825000 a 0.50005,0.50005 0 0 0 0,0 l -19030,-95670 a 0.50005,0.50005 0 0 0 0,0 l -54190,-81110 a 0.50005,0.50005 0 0 0 0,0 l -81110,-54190 a 0.50005,0.50005 0 0 0 0,0 l -95670,-19030 a 0.50005,0.50005 0 0 0 0,0 z m 0,0 h 1300000 l 95670,19030 81110,54190 54190,81110 19030,95670 v 825000 l -19030,95670 -54190,81110 -81110,54190 -95670,19030 h -1300000 l -95670,-19030 -81110,-54190 -54190,-81110 -19030,-95670 v -825000 l 19030,-95670 54190,-81110 81110,-54190 z"
         id="path8221" />
    </g>
    <g
       id="path1253"
       style="stroke:none">
      <path
         style="color:#000000;fill-rule:evenodd;stroke:none;-inkscape-stroke:none"
         d="m 202071200,126862000 95670,-19030 81110,-54190 54190,-81110 19030,-95670 v -825000 l -19030,-95670 -54190,-81110 -81110,-54190 -95670,-19030 h -1300000 l -95670,19030 -81110,54190 -54190,81110 -19030,95670 v 825000 l 19030,95670 54190,81110 81110,54190 95670,19030 z"
         id="path8225" />
      <path
         style="color:#000000;fill-rule:evenodd;stroke:none;-inkscape-stroke:none"
         d="m 200771200,125537000 a 0.50005,0.50005 0 0 0 0,0 l -95670,19030 a 0.50005,0.50005 0 0 0 0,0 l -81110,54190 a 0.50005,0.50005 0 0 0 0,0 l -54190,81110 a 0.50005,0.50005 0 0 0 0,0 l -19030,95670 a 0.50005,0.50005 0 0 0 0,0 v 825000 a 0.50005,0.50005 0 0 0 0,0 l 19030,95670 a 0.50005,0.50005 0 0 0 0,0 l 54190,81110 a 0.50005,0.50005 0 0 0 0,0 l 81110,54190 a 0.50005,0.50005 0 0 0 0,0 l 95670,19030 a 0.50005,0.50005 0 0 0 0,0 h 1300000 a 0.50005,0.50005 0 0 0 0,0 l 95670,-19030 a 0.50005,0.50005 0 0 0 0,0 l 81110,-54190 a 0.50005,0.50005 0 0 0 0,0 l 54190,-81110 a 0.50005,0.50005 0 0 0 0,0 l 19030,-95670 a 0.50005,0.50005 0 0 0 0,0 v -825000 a 0.50005,0.50005 0 0 0 0,0 l -19030,-95670 a 0.50005,0.50005 0 0 0 0,0 l -54190,-81110 a 0.50005,0.50005 0 0 0 0,0 l -81110,-54190 a 0.50005,0.50005 0 0 0 0,0 l -95670,-19030 a 0.50005,0.50005 0 0 0 0,0 z m 0,0 h 1300000 l 95670,19030 81110,54190 54190,81110 19030,95670 v 825000 l -19030,95670 -54190,81110 -81110,54190 -95670,19030 h -1300000 l -95670,-19030 -81110,-54190 -54190,-81110 -19030,-95670 v -825000 l 19030,-95670 54190,-81110 81110,-54190 z"
         id="path8227" />
    </g>
  </g>
  <g
     id="g1257"
     style="fill:#000000;fill-opacity:0;stroke:#000000;stroke-width:100000;stroke-linecap:round;stroke-linejoin:round;stroke-opacity:1" />
  <g
     id="g1259"
     style="fill:#000000;fill-opacity:0;stroke:#000000;stroke-width:100000;stroke-linecap:round;stroke-linejoin:round;stroke-opacity:1" />
  <g
     id="g1261"
     style="fill:#000000;fill-opacity:0;stroke:#000000;stroke-width:100000;stroke-linecap:round;stroke-linejoin:round;stroke-opacity:1" />
  <g
     style="fill:#000000;stroke:none;stroke-linecap:round;stroke-linejoin:round"
     id="g1267">
    <g
       id="path1263"
       style="stroke:none">
      <path
         style="color:#000000;fill-rule:evenodd;stroke:none;-inkscape-stroke:none"
         d="m 223839200,119365000 -19030,-95670 -54190,-81110 -81110,-54190 -95670,-19030 h -825000 l -95670,19030 -81110,54190 -54190,81110 -19030,95670 v 1300000 l 19030,95670 54190,81110 81110,54190 95670,19030 h 825000 l 95670,-19030 81110,-54190 54190,-81110 19030,-95670 z"
         id="path8231" />
      <path
         style="color:#000000;fill-rule:evenodd;stroke:none;-inkscape-stroke:none"
         d="m 222764200,119115000 a 0.50005,0.50005 0 0 0 0,0 l -95670,19030 a 0.50005,0.50005 0 0 0 0,0 l -81110,54190 a 0.50005,0.50005 0 0 0 0,0 l -54190,81110 a 0.50005,0.50005 0 0 0 0,0 l -19030,95670 a 0.50005,0.50005 0 0 0 0,0 v 1300000 a 0.50005,0.50005 0 0 0 0,0 l 19030,95670 a 0.50005,0.50005 0 0 0 0,0 l 54190,81110 a 0.50005,0.50005 0 0 0 0,0 l 81110,54190 a 0.50005,0.50005 0 0 0 0,0 l 95670,19030 a 0.50005,0.50005 0 0 0 0,0 h 825000 a 0.50005,0.50005 0 0 0 0,0 l 95670,-19030 a 0.50005,0.50005 0 0 0 0,0 l 81110,-54190 a 0.50005,0.50005 0 0 0 0,0 l 54190,-81110 a 0.50005,0.50005 0 0 0 0,0 l 19030,-95670 a 0.50005,0.50005 0 0 0 0,0 v -1300000 a 0.50005,0.50005 0 0 0 0,0 l -19030,-95670 a 0.50005,0.50005 0 0 0 0,0 l -54190,-81110 a 0.50005,0.50005 0 0 0 0,0 l -81110,-54190 a 0.50005,0.50005 0 0 0 0,0 l -95670,-19030 a 0.50005,0.50005 0 0 0 0,0 z m 0,0 h 825000 l 95670,19030 81110,54190 54190,81110 19030,95670 v 1300000 l -19030,95670 -54190,81110 -81110,54190 -95670,19030 h -825000 l -95670,-19030 -81110,-54190 -54190,-81110 -19030,-95670 v -1300000 l 19030,-95670 54190,-81110 81110,-54190 z"
         id="path8233" />
    </g>
    <g
       id="path1265"
       style="stroke:none">
      <path
         style="color:#000000;fill-rule:evenodd;stroke:none;-inkscape-stroke:none"
         d="m 220714200,119365000 -19030,-95670 -54190,-81110 -81110,-54190 -95670,-19030 h -825000 l -95670,19030 -81110,54190 -54190,81110 -19030,95670 v 1300000 l 19030,95670 54190,81110 81110,54190 95670,19030 h 825000 l 95670,-19030 81110,-54190 54190,-81110 19030,-95670 z"
         id="path8237" />
      <path
         style="color:#000000;fill-rule:evenodd;stroke:none;-inkscape-stroke:none"
         d="m 219639200,119115000 a 0.50005,0.50005 0 0 0 0,0 l -95670,19030 a 0.50005,0.50005 0 0 0 0,0 l -81110,54190 a 0.50005,0.50005 0 0 0 0,0 l -54190,81110 a 0.50005,0.50005 0 0 0 0,0 l -19030,95670 a 0.50005,0.50005 0 0 0 0,0 v 1300000 a 0.50005,0.50005 0 0 0 0,0 l 19030,95670 a 0.50005,0.50005 0 0 0 0,0 l 54190,81110 a 0.50005,0.50005 0 0 0 0,0 l 81110,54190 a 0.50005,0.50005 0 0 0 0,0 l 95670,19030 a 0.50005,0.50005 0 0 0 0,0 h 825000 a 0.50005,0.50005 0 0 0 0,0 l 95670,-19030 a 0.50005,0.50005 0 0 0 0,0 l 81110,-54190 a 0.50005,0.50005 0 0 0 0,0 l 54190,-81110 a 0.50005,0.50005 0 0 0 0,0 l 19030,-95670 a 0.50005,0.50005 0 0 0 0,0 v -1300000 a 0.50005,0.50005 0 0 0 0,0 l -19030,-95670 a 0.50005,0.50005 0 0 0 0,0 l -54190,-81110 a 0.50005,0.50005 0 0 0 0,0 l -81110,-54190 a 0.50005,0.50005 0 0 0 0,0 l -95670,-19030 a 0.50005,0.50005 0 0 0 0,0 z m 0,0 h 825000 l 95670,19030 81110,54190 54190,81110 19030,95670 v 1300000 l -19030,95670 -54190,81110 -81110,54190 -95670,19030 h -825000 l -95670,-19030 -81110,-54190 -54190,-81110 -19030,-95670 v -1300000 l 19030,-95670 54190,-81110 81110,-54190 z"
         id="path8239" />
    </g>
  </g>
  <g
     id="g1269"
     style="fill:#000000;fill-opacity:0;stroke:#000000;stroke-width:100000;stroke-linecap:round;stroke-linejoin:round;stroke-opacity:1" />
  <g
     style="fill:#000000;stroke:none;stroke-linecap:round;stroke-linejoin:round"
     id="g1283">
    <g
       id="path1271"
       style="stroke:none">
      <path
         style="color:#000000;fill-rule:evenodd;stroke:none;-inkscape-stroke:none"
         d="m 161052200,82470000 h -1020000 v 1780000 h 1020000 z"
         id="path8243" />
      <path
         style="color:#000000;fill-rule:evenodd;stroke:none;-inkscape-stroke:none"
         d="m 160032200,82470000 a 0.50005,0.50005 0 0 0 0,0 v 1780000 a 0.50005,0.50005 0 0 0 0,1 h 1020000 a 0.50005,0.50005 0 0 0 0,-1 v -1780000 a 0.50005,0.50005 0 0 0 0,0 z m 0,1 h 1020000 v 1779999 h -1020000 z"
         id="path8245" />
    </g>
    <g
       id="path1273"
       style="stroke:none">
      <path
         style="color:#000000;fill-rule:evenodd;stroke:none;-inkscape-stroke:none"
         d="m 158512200,82470000 h -1020000 v 1780000 h 1020000 z"
         id="path8249" />
      <path
         style="color:#000000;fill-rule:evenodd;stroke:none;-inkscape-stroke:none"
         d="m 157492200,82470000 a 0.50005,0.50005 0 0 0 0,0 v 1780000 a 0.50005,0.50005 0 0 0 0,1 h 1020000 a 0.50005,0.50005 0 0 0 0,-1 v -1780000 a 0.50005,0.50005 0 0 0 0,0 z m 0,1 h 1020000 v 1779999 h -1020000 z"
         id="path8251" />
    </g>
    <g
       id="path1275"
       style="stroke:none">
      <path
         style="color:#000000;fill-rule:evenodd;stroke:none;-inkscape-stroke:none"
         d="m 155972200,82470000 h -1020000 v 1780000 h 1020000 z"
         id="path8255" />
      <path
         style="color:#000000;fill-rule:evenodd;stroke:none;-inkscape-stroke:none"
         d="m 154952200,82470000 a 0.50005,0.50005 0 0 0 0,0 v 1780000 a 0.50005,0.50005 0 0 0 0,1 h 1020000 a 0.50005,0.50005 0 0 0 0,-1 v -1780000 a 0.50005,0.50005 0 0 0 0,0 z m 0,1 h 1020000 v 1779999 h -1020000 z"
         id="path8257" />
    </g>
    <g
       id="path1277"
       style="stroke:none">
      <path
         style="color:#000000;fill-rule:evenodd;stroke:none;-inkscape-stroke:none"
         d="m 161052200,88290000 h -1020000 v 1780000 h 1020000 z"
         id="path8261" />
      <path
         style="color:#000000;fill-rule:evenodd;stroke:none;-inkscape-stroke:none"
         d="m 160032200,88290000 a 0.50005,0.50005 0 0 0 0,0 v 1780000 a 0.50005,0.50005 0 0 0 0,1 h 1020000 a 0.50005,0.50005 0 0 0 0,-1 v -1780000 a 0.50005,0.50005 0 0 0 0,0 z m 0,1 h 1020000 v 1779999 h -1020000 z"
         id="path8263" />
    </g>
    <g
       id="path1279"
       style="stroke:none">
      <path
         style="color:#000000;fill-rule:evenodd;stroke:none;-inkscape-stroke:none"
         d="m 158512200,88290000 h -1020000 v 1780000 h 1020000 z"
         id="path8267" />
      <path
         style="color:#000000;fill-rule:evenodd;stroke:none;-inkscape-stroke:none"
         d="m 157492200,88290000 a 0.50005,0.50005 0 0 0 0,0 v 1780000 a 0.50005,0.50005 0 0 0 0,1 h 1020000 a 0.50005,0.50005 0 0 0 0,-1 v -1780000 a 0.50005,0.50005 0 0 0 0,0 z m 0,1 h 1020000 v 1779999 h -1020000 z"
         id="path8269" />
    </g>
    <g
       id="path1281"
       style="stroke:none">
      <path
         style="color:#000000;fill-rule:evenodd;stroke:none;-inkscape-stroke:none"
         d="m 155972200,88290000 h -1020000 v 1780000 h 1020000 z"
         id="path8273" />
      <path
         style="color:#000000;fill-rule:evenodd;stroke:none;-inkscape-stroke:none"
         d="m 154952200,88290000 a 0.50005,0.50005 0 0 0 0,0 v 1780000 a 0.50005,0.50005 0 0 0 0,1 h 1020000 a 0.50005,0.50005 0 0 0 0,-1 v -1780000 a 0.50005,0.50005 0 0 0 0,0 z m 0,1 h 1020000 v 1779999 h -1020000 z"
         id="path8275" />
    </g>
  </g>
  <g
     id="g1285"
     style="fill:#000000;fill-opacity:0;stroke:#000000;stroke-width:100000;stroke-linecap:round;stroke-linejoin:round;stroke-opacity:1" />
  <g
     id="g1287"
     style="fill:#000000;fill-opacity:0;stroke:#000000;stroke-width:100000;stroke-linecap:round;stroke-linejoin:round;stroke-opacity:1" />
  <g
     id="g1289"
     style="fill:#000000;fill-opacity:0;stroke:#000000;stroke-width:100000;stroke-linecap:round;stroke-linejoin:round;stroke-opacity:1" />
  <g
     id="g1291"
     style="fill:#000000;fill-opacity:0;stroke:#000000;stroke-width:100000;stroke-linecap:round;stroke-linejoin:round;stroke-opacity:1" />
</svg>
