M48
; DRILL file {KiCad 6.0.6} date Wed Mar  1 18:03:44 2023
; FORMAT={-:-/ absolute / inch / decimal}
; #@! TF.CreationDate,2023-03-01T18:03:44+01:00
; #@! TF.GenerationSoftware,Kicad,Pcbnew,6.0.6
; #@! TF.FileFunction,MixedPlating,1,2
FMAT,2
INCH
; #@! TA.AperFunction,Plated,PTH,ViaDrill
T1C0.0236
; #@! TA.AperFunction,Plated,PTH,ComponentDrill
T2C0.0236
; #@! TA.AperFunction,Plated,PTH,ComponentDrill
T3C0.0276
; #@! TA.AperFunction,Plated,PTH,ComponentDrill
T4C0.0315
; #@! TA.AperFunction,Plated,PTH,ComponentDrill
T5C0.0394
; #@! TA.AperFunction,Plated,PTH,ComponentDrill
T6C0.0472
; #@! TA.AperFunction,Plated,PTH,ComponentDrill
T7C0.1260
; #@! TA.AperFunction,NonPlated,NPTH,ComponentDrill
T8C0.0472
; #@! TA.AperFunction,NonPlated,NPTH,ComponentDrill
T9C0.0709
; #@! TA.AperFunction,NonPlated,NPTH,ComponentDrill
T10C0.1260
%
G90
G05
T1
X2.09Y-3.63
X2.3Y-3.63
X2.705Y-4.74
X2.74Y-3.545
X2.745Y-3.275
X2.85Y-3.44
X2.85Y-3.65
X2.906Y-4.36
X3.425Y-3.535
X3.605Y-4.1184
X3.625Y-4.215
X3.63Y-4.44
X3.64Y-4.35
X3.69Y-4.5056
X3.765Y-4.4431
X3.795Y-3.9748
X3.825Y-5.17
X4.13Y-4.805
X4.1726Y-4.8771
X4.243Y-4.7671
X4.465Y-3.5055
X4.56Y-3.5731
X4.82Y-4.27
X4.82Y-4.6208
X4.905Y-3.96
X4.935Y-4.815
X4.94Y-4.31
X5.0Y-3.6751
X5.014Y-4.63
X5.125Y-3.6084
X5.145Y-3.945
X5.2384Y-3.51
X5.29Y-3.67
X5.43Y-3.97
X5.745Y-3.275
T2
X4.45Y-4.1661
X4.45Y-4.359
X4.63Y-4.0698
X4.63Y-4.1682
X4.63Y-4.3598
X4.63Y-4.4582
T3
X3.31Y-4.15
X3.31Y-4.65
X3.48Y-4.15
X3.48Y-4.65
X4.355Y-3.32
X4.355Y-3.72
T4
X5.63Y-4.16
X5.63Y-4.26
X5.63Y-4.36
X5.63Y-4.46
X5.63Y-4.82
X5.63Y-4.92
X5.63Y-5.02
X5.63Y-5.12
X5.73Y-4.11
X5.73Y-4.21
X5.73Y-4.31
X5.73Y-4.41
X5.73Y-4.77
X5.73Y-4.87
X5.73Y-4.97
X5.73Y-5.07
T5
X2.4591Y-3.3465
X2.4591Y-3.4465
X2.4591Y-3.5465
X2.4591Y-3.6465
X2.4591Y-3.7465
X2.5591Y-3.3465
X2.5591Y-3.4465
X2.5591Y-3.5465
X2.5591Y-3.6465
X2.5591Y-3.7465
X4.4602Y-4.8978
X4.5602Y-4.8978
X4.6602Y-4.8978
X4.7244Y-3.3465
X4.7244Y-3.4465
X4.7602Y-4.8978
X4.8244Y-3.3465
X4.8244Y-3.4465
X4.8602Y-4.8978
X4.9244Y-3.3465
X4.9244Y-3.4465
X5.0244Y-3.3465
X5.0244Y-3.4465
X5.1244Y-3.3465
X5.1244Y-3.4465
X5.26Y-4.755
X5.26Y-4.855
X5.26Y-4.955
X5.36Y-4.755
X5.36Y-4.855
X5.36Y-4.955
X5.43Y-3.67
X5.43Y-3.82
X5.53Y-3.67
X5.53Y-3.82
T6
X2.3622Y-4.3307
X2.3622Y-4.5276
X2.3622Y-4.9213
X2.3622Y-5.1181
X2.5591Y-4.3307
X2.5591Y-4.5276
X2.5591Y-4.9213
X2.5591Y-5.1181
T7
X2.1654Y-3.3465
X2.1654Y-5.7087
X6.1024Y-3.3465
X6.1024Y-5.7087
T8
X5.3724Y-3.3465
X5.3724Y-3.4465
X5.4724Y-3.3465
X5.4724Y-3.4465
X5.5724Y-3.3465
X5.5724Y-3.4465
T9
X5.4224Y-3.3965
X5.5224Y-3.3965
T10
X5.98Y-4.06
X5.98Y-4.51
X5.98Y-4.72
X5.98Y-5.17
T0
M30
