<?xml version="1.0" encoding="UTF-8" standalone="no"?>
<svg
   version="1.1"
   width="29.700220cm"
   height="21.000720cm"
   viewBox="0 0 297002200 210007200"
   id="svg1335"
   sodipodi:docname="control-B_Paste.svg"
   inkscape:version="1.2.1 (9c6d41e410, 2022-07-14)"
   xmlns:inkscape="http://www.inkscape.org/namespaces/inkscape"
   xmlns:sodipodi="http://sodipodi.sourceforge.net/DTD/sodipodi-0.dtd"
   xmlns="http://www.w3.org/2000/svg"
   xmlns:svg="http://www.w3.org/2000/svg">
  <defs
     id="defs1339" />
  <sodipodi:namedview
     id="namedview1337"
     pagecolor="#ffffff"
     bordercolor="#666666"
     borderopacity="1.0"
     inkscape:showpageshadow="2"
     inkscape:pageopacity="0.0"
     inkscape:pagecheckerboard="0"
     inkscape:deskcolor="#d1d1d1"
     inkscape:document-units="cm"
     showgrid="false"
     inkscape:zoom="2.0400015"
     inkscape:cx="718.87203"
     inkscape:cy="434.55851"
     inkscape:window-width="1447"
     inkscape:window-height="1080"
     inkscape:window-x="290"
     inkscape:window-y="-39"
     inkscape:window-maximized="0"
     inkscape:current-layer="svg1335" />
  <title
     id="title1043">SVG Picture created as control-B_Paste.svg date 2023/04/20 12:19:42 </title>
  <desc
     id="desc1045">Picture generated by PCBNEW </desc>
  <g
     style="fill:#000000;fill-opacity:1;stroke:none;stroke-opacity:1;stroke-linecap:round;stroke-linejoin:round"
     transform="translate(0 0) scale(1 1)"
     id="g1047" />
  <g
     style="fill:#000000;fill-opacity:1;stroke:none;stroke-width:0;stroke-opacity:1;stroke-linecap:round;stroke-linejoin:round"
     id="g1049" />
  <path
     style="fill:none;fill-opacity:0;stroke:#ff0000;stroke-width:100000;stroke-linecap:round;stroke-linejoin:round;stroke-opacity:1"
     d="m 137002200,150000000 h 10000000 v -14000000 h 61000000 v 14000000 h 39000000 V 80000000 H 137002200 Z"
     id="path1059" />
  <g
     id="g1061"
     style="fill:#000000;fill-opacity:1;stroke:none;stroke-width:100000;stroke-linecap:round;stroke-linejoin:round;stroke-opacity:1" />
  <g
     id="g1063"
     style="fill:#000000;fill-opacity:1;stroke:none;stroke-width:100000;stroke-linecap:round;stroke-linejoin:round;stroke-opacity:1" />
  <g
     id="g1065"
     style="fill:#000000;fill-opacity:1;stroke:none;stroke-width:100000;stroke-linecap:round;stroke-linejoin:round;stroke-opacity:1" />
  <g
     id="g1067"
     style="fill:#000000;fill-opacity:1;stroke:none;stroke-width:100000;stroke-linecap:round;stroke-linejoin:round;stroke-opacity:1" />
  <g
     id="g1069"
     style="fill:#000000;fill-opacity:1;stroke:none;stroke-width:100000;stroke-linecap:round;stroke-linejoin:round;stroke-opacity:1" />
  <g
     id="g1071"
     style="fill:#000000;fill-opacity:1;stroke:none;stroke-width:100000;stroke-linecap:round;stroke-linejoin:round;stroke-opacity:1" />
  <g
     id="g1073"
     style="fill:#000000;fill-opacity:1;stroke:none;stroke-width:100000;stroke-linecap:round;stroke-linejoin:round;stroke-opacity:1" />
  <g
     id="g1075"
     style="fill:#000000;fill-opacity:1;stroke:none;stroke-width:100000;stroke-linecap:round;stroke-linejoin:round;stroke-opacity:1" />
  <g
     id="g1077"
     style="fill:#000000;fill-opacity:1;stroke:none;stroke-width:100000;stroke-linecap:round;stroke-linejoin:round;stroke-opacity:1" />
  <g
     id="g1079"
     style="fill:#000000;fill-opacity:1;stroke:none;stroke-width:100000;stroke-linecap:round;stroke-linejoin:round;stroke-opacity:1" />
  <g
     id="g1081"
     style="fill:#000000;fill-opacity:1;stroke:none;stroke-width:100000;stroke-linecap:round;stroke-linejoin:round;stroke-opacity:1" />
  <g
     id="g1083"
     style="fill:#000000;fill-opacity:1;stroke:none;stroke-width:100000;stroke-linecap:round;stroke-linejoin:round;stroke-opacity:1" />
  <g
     id="g1085"
     style="fill:#000000;fill-opacity:1;stroke:none;stroke-width:100000;stroke-linecap:round;stroke-linejoin:round;stroke-opacity:1" />
  <g
     id="g1087"
     style="fill:#000000;fill-opacity:1;stroke:none;stroke-width:100000;stroke-linecap:round;stroke-linejoin:round;stroke-opacity:1" />
  <g
     id="g1089"
     style="fill:#000000;fill-opacity:1;stroke:none;stroke-width:100000;stroke-linecap:round;stroke-linejoin:round;stroke-opacity:1" />
  <g
     id="g1091"
     style="fill:#000000;fill-opacity:1;stroke:none;stroke-width:100000;stroke-linecap:round;stroke-linejoin:round;stroke-opacity:1" />
  <g
     id="g1093"
     style="fill:#000000;fill-opacity:1;stroke:none;stroke-width:100000;stroke-linecap:round;stroke-linejoin:round;stroke-opacity:1" />
  <g
     id="g1095"
     style="fill:#000000;fill-opacity:1;stroke:none;stroke-width:100000;stroke-linecap:round;stroke-linejoin:round;stroke-opacity:1" />
  <g
     id="g1097"
     style="fill:#000000;fill-opacity:1;stroke:none;stroke-width:100000;stroke-linecap:round;stroke-linejoin:round;stroke-opacity:1" />
  <g
     id="g1099"
     style="fill:#000000;fill-opacity:1;stroke:none;stroke-width:100000;stroke-linecap:round;stroke-linejoin:round;stroke-opacity:1" />
  <g
     id="g1101"
     style="fill:#000000;fill-opacity:1;stroke:none;stroke-width:100000;stroke-linecap:round;stroke-linejoin:round;stroke-opacity:1" />
  <g
     id="g1103"
     style="fill:#000000;fill-opacity:1;stroke:none;stroke-width:100000;stroke-linecap:round;stroke-linejoin:round;stroke-opacity:1" />
  <g
     id="g1105"
     style="fill:#000000;fill-opacity:1;stroke:none;stroke-width:100000;stroke-linecap:round;stroke-linejoin:round;stroke-opacity:1" />
  <g
     id="g1107"
     style="fill:#000000;fill-opacity:1;stroke:none;stroke-width:100000;stroke-linecap:round;stroke-linejoin:round;stroke-opacity:1" />
  <g
     id="g1109"
     style="fill:#000000;fill-opacity:1;stroke:none;stroke-width:100000;stroke-linecap:round;stroke-linejoin:round;stroke-opacity:1" />
  <g
     id="g1111"
     style="fill:#000000;fill-opacity:1;stroke:none;stroke-width:100000;stroke-linecap:round;stroke-linejoin:round;stroke-opacity:1" />
  <g
     id="g1113"
     style="fill:#000000;fill-opacity:1;stroke:none;stroke-width:100000;stroke-linecap:round;stroke-linejoin:round;stroke-opacity:1" />
  <g
     id="g1115"
     style="fill:#000000;fill-opacity:1;stroke:none;stroke-width:100000;stroke-linecap:round;stroke-linejoin:round;stroke-opacity:1" />
  <g
     id="g1117"
     style="fill:#000000;fill-opacity:1;stroke:none;stroke-width:100000;stroke-linecap:round;stroke-linejoin:round;stroke-opacity:1" />
  <g
     id="g1119"
     style="fill:#000000;fill-opacity:1;stroke:none;stroke-width:100000;stroke-linecap:round;stroke-linejoin:round;stroke-opacity:1" />
  <g
     id="g1121"
     style="fill:#000000;fill-opacity:1;stroke:none;stroke-width:100000;stroke-linecap:round;stroke-linejoin:round;stroke-opacity:1" />
  <g
     id="g1123"
     style="fill:#000000;fill-opacity:1;stroke:none;stroke-width:100000;stroke-linecap:round;stroke-linejoin:round;stroke-opacity:1" />
  <g
     id="g1125"
     style="fill:#000000;fill-opacity:1;stroke:none;stroke-width:100000;stroke-linecap:round;stroke-linejoin:round;stroke-opacity:1" />
  <g
     id="g1127"
     style="fill:#000000;fill-opacity:1;stroke:none;stroke-width:100000;stroke-linecap:round;stroke-linejoin:round;stroke-opacity:1" />
  <g
     id="g1129"
     style="fill:#000000;fill-opacity:1;stroke:none;stroke-width:100000;stroke-linecap:round;stroke-linejoin:round;stroke-opacity:1" />
  <g
     style="fill:#000000;fill-opacity:1;stroke:none;stroke-width:100000;stroke-linecap:round;stroke-linejoin:round;stroke-opacity:1"
     id="g1131" />
  <g
     style="fill:#000000;fill-opacity:1;stroke:none;stroke-width:1;stroke-linecap:round;stroke-linejoin:round;stroke-opacity:1"
     id="g1133" />
  <g
     style="fill:#000000;stroke:none;stroke-linecap:round;stroke-linejoin:round;fill-opacity:1"
     id="g1139">
    <g
       id="path1135"
       style="fill:#000000;fill-opacity:1;stroke:none">
      <path
         style="color:#000000;fill-rule:evenodd;stroke:none;-inkscape-stroke:none;fill:#000000;fill-opacity:1"
         d="m 219389200,123840000 19030,95670 54190,81110 81110,54190 95670,19030 h 825000 l 95670,-19030 81110,-54190 54190,-81110 19030,-95670 v -1300000 l -19030,-95670 -54190,-81110 -81110,-54190 -95670,-19030 h -825000 l -95670,19030 -81110,54190 -54190,81110 -19030,95670 z"
         id="path8354" />
      <path
         style="color:#000000;fill-rule:evenodd;stroke:none;-inkscape-stroke:none;fill:#000000;fill-opacity:1"
         d="m 219639200,122290000 a 0.50005,0.50005 0 0 0 0,0 l -95670,19030 a 0.50005,0.50005 0 0 0 0,0 l -81110,54190 a 0.50005,0.50005 0 0 0 0,0 l -54190,81110 a 0.50005,0.50005 0 0 0 0,0 l -19030,95670 a 0.50005,0.50005 0 0 0 0,0 v 1300000 a 0.50005,0.50005 0 0 0 0,0 l 19030,95670 a 0.50005,0.50005 0 0 0 0,0 l 54190,81110 a 0.50005,0.50005 0 0 0 0,0 l 81110,54190 a 0.50005,0.50005 0 0 0 0,0 l 95670,19030 a 0.50005,0.50005 0 0 0 0,0 h 825000 a 0.50005,0.50005 0 0 0 0,0 l 95670,-19030 a 0.50005,0.50005 0 0 0 0,0 l 81110,-54190 a 0.50005,0.50005 0 0 0 0,0 l 54190,-81110 a 0.50005,0.50005 0 0 0 0,0 l 19030,-95670 a 0.50005,0.50005 0 0 0 0,0 v -1300000 a 0.50005,0.50005 0 0 0 0,0 l -19030,-95670 a 0.50005,0.50005 0 0 0 0,0 l -54190,-81110 a 0.50005,0.50005 0 0 0 0,0 l -81110,-54190 a 0.50005,0.50005 0 0 0 0,0 l -95670,-19030 a 0.50005,0.50005 0 0 0 0,0 z m 0,0 h 825000 l 95670,19030 81110,54190 54190,81110 19030,95670 v 1300000 l -19030,95670 -54190,81110 -81110,54190 -95670,19030 h -825000 l -95670,-19030 -81110,-54190 -54190,-81110 -19030,-95670 v -1300000 l 19030,-95670 54190,-81110 81110,-54190 z"
         id="path8356" />
    </g>
    <g
       id="path1137"
       style="fill:#000000;fill-opacity:1;stroke:none">
      <path
         style="color:#000000;fill-rule:evenodd;stroke:none;-inkscape-stroke:none;fill:#000000;fill-opacity:1"
         d="m 222514200,123840000 19030,95670 54190,81110 81110,54190 95670,19030 h 825000 l 95670,-19030 81110,-54190 54190,-81110 19030,-95670 v -1300000 l -19030,-95670 -54190,-81110 -81110,-54190 -95670,-19030 h -825000 l -95670,19030 -81110,54190 -54190,81110 -19030,95670 z"
         id="path8360" />
      <path
         style="color:#000000;fill-rule:evenodd;stroke:none;-inkscape-stroke:none;fill:#000000;fill-opacity:1"
         d="m 222764200,122290000 a 0.50005,0.50005 0 0 0 0,0 l -95670,19030 a 0.50005,0.50005 0 0 0 0,0 l -81110,54190 a 0.50005,0.50005 0 0 0 0,0 l -54190,81110 a 0.50005,0.50005 0 0 0 0,0 l -19030,95670 a 0.50005,0.50005 0 0 0 0,0 v 1300000 a 0.50005,0.50005 0 0 0 0,0 l 19030,95670 a 0.50005,0.50005 0 0 0 0,0 l 54190,81110 a 0.50005,0.50005 0 0 0 0,0 l 81110,54190 a 0.50005,0.50005 0 0 0 0,0 l 95670,19030 a 0.50005,0.50005 0 0 0 0,0 h 825000 a 0.50005,0.50005 0 0 0 0,0 l 95670,-19030 a 0.50005,0.50005 0 0 0 0,0 l 81110,-54190 a 0.50005,0.50005 0 0 0 0,0 l 54190,-81110 a 0.50005,0.50005 0 0 0 0,0 l 19030,-95670 a 0.50005,0.50005 0 0 0 0,0 v -1300000 a 0.50005,0.50005 0 0 0 0,0 l -19030,-95670 a 0.50005,0.50005 0 0 0 0,0 l -54190,-81110 a 0.50005,0.50005 0 0 0 0,0 l -81110,-54190 a 0.50005,0.50005 0 0 0 0,0 l -95670,-19030 a 0.50005,0.50005 0 0 0 0,0 z m 0,0 h 825000 l 95670,19030 81110,54190 54190,81110 19030,95670 v 1300000 l -19030,95670 -54190,81110 -81110,54190 -95670,19030 h -825000 l -95670,-19030 -81110,-54190 -54190,-81110 -19030,-95670 v -1300000 l 19030,-95670 54190,-81110 81110,-54190 z"
         id="path8362" />
    </g>
  </g>
  <g
     id="g1141"
     style="fill:#000000;fill-opacity:1;stroke:none;stroke-width:100000;stroke-linecap:round;stroke-linejoin:round;stroke-opacity:1" />
  <g
     id="g1143"
     style="fill:#000000;fill-opacity:1;stroke:none;stroke-width:100000;stroke-linecap:round;stroke-linejoin:round;stroke-opacity:1" />
  <g
     id="g1145"
     style="fill:#000000;fill-opacity:1;stroke:none;stroke-width:100000;stroke-linecap:round;stroke-linejoin:round;stroke-opacity:1" />
  <g
     style="fill:#000000;stroke:none;stroke-linecap:round;stroke-linejoin:round;fill-opacity:1"
     id="g1151">
    <g
       id="path1147"
       style="fill:#000000;fill-opacity:1;stroke:none">
      <path
         style="color:#000000;fill-rule:evenodd;stroke:none;-inkscape-stroke:none;fill:#000000;fill-opacity:1"
         d="m 221259200,133825000 19030,95670 54190,81110 81110,54190 95670,19030 h 675000 l 95670,-19030 81110,-54190 54190,-81110 19030,-95670 v -950000 l -19030,-95670 -54190,-81110 -81110,-54190 -95670,-19030 h -675000 l -95670,19030 -81110,54190 -54190,81110 -19030,95670 z"
         id="path8342" />
      <path
         style="color:#000000;fill-rule:evenodd;stroke:none;-inkscape-stroke:none;fill:#000000;fill-opacity:1"
         d="m 221509200,132625000 a 0.50005,0.50005 0 0 0 0,0 l -95670,19030 a 0.50005,0.50005 0 0 0 0,0 l -81110,54190 a 0.50005,0.50005 0 0 0 0,0 l -54190,81110 a 0.50005,0.50005 0 0 0 0,0 l -19030,95670 a 0.50005,0.50005 0 0 0 0,0 v 950000 a 0.50005,0.50005 0 0 0 0,0 l 19030,95670 a 0.50005,0.50005 0 0 0 0,0 l 54190,81110 a 0.50005,0.50005 0 0 0 0,0 l 81110,54190 a 0.50005,0.50005 0 0 0 0,0 l 95670,19030 a 0.50005,0.50005 0 0 0 0,0 h 675000 a 0.50005,0.50005 0 0 0 0,0 l 95670,-19030 a 0.50005,0.50005 0 0 0 0,0 l 81110,-54190 a 0.50005,0.50005 0 0 0 0,0 l 54190,-81110 a 0.50005,0.50005 0 0 0 0,0 l 19030,-95670 a 0.50005,0.50005 0 0 0 0,0 v -950000 a 0.50005,0.50005 0 0 0 0,0 l -19030,-95670 a 0.50005,0.50005 0 0 0 0,0 l -54190,-81110 a 0.50005,0.50005 0 0 0 0,0 l -81110,-54190 a 0.50005,0.50005 0 0 0 0,0 l -95670,-19030 a 0.50005,0.50005 0 0 0 0,0 z m 0,0 h 675000 l 95670,19030 81110,54190 54190,81110 19030,95670 v 950000 l -19030,95670 -54190,81110 -81110,54190 -95670,19030 h -675000 l -95670,-19030 -81110,-54190 -54190,-81110 -19030,-95670 v -950000 l 19030,-95670 54190,-81110 81110,-54190 z"
         id="path8344" />
    </g>
    <g
       id="path1149"
       style="fill:#000000;fill-opacity:1;stroke:none">
      <path
         style="color:#000000;fill-rule:evenodd;stroke:none;-inkscape-stroke:none;fill:#000000;fill-opacity:1"
         d="m 223334200,133825000 19030,95670 54190,81110 81110,54190 95670,19030 h 675000 l 95670,-19030 81110,-54190 54190,-81110 19030,-95670 v -950000 l -19030,-95670 -54190,-81110 -81110,-54190 -95670,-19030 h -675000 l -95670,19030 -81110,54190 -54190,81110 -19030,95670 z"
         id="path8348" />
      <path
         style="color:#000000;fill-rule:evenodd;stroke:none;-inkscape-stroke:none;fill:#000000;fill-opacity:1"
         d="m 223584200,132625000 a 0.50005,0.50005 0 0 0 0,0 l -95670,19030 a 0.50005,0.50005 0 0 0 0,0 l -81110,54190 a 0.50005,0.50005 0 0 0 0,0 l -54190,81110 a 0.50005,0.50005 0 0 0 0,0 l -19030,95670 a 0.50005,0.50005 0 0 0 0,0 v 950000 a 0.50005,0.50005 0 0 0 0,0 l 19030,95670 a 0.50005,0.50005 0 0 0 0,0 l 54190,81110 a 0.50005,0.50005 0 0 0 0,0 l 81110,54190 a 0.50005,0.50005 0 0 0 0,0 l 95670,19030 a 0.50005,0.50005 0 0 0 0,0 h 675000 a 0.50005,0.50005 0 0 0 0,0 l 95670,-19030 a 0.50005,0.50005 0 0 0 0,0 l 81110,-54190 a 0.50005,0.50005 0 0 0 0,0 l 54190,-81110 a 0.50005,0.50005 0 0 0 0,0 l 19030,-95670 a 0.50005,0.50005 0 0 0 0,0 v -950000 a 0.50005,0.50005 0 0 0 0,0 l -19030,-95670 a 0.50005,0.50005 0 0 0 0,0 l -54190,-81110 a 0.50005,0.50005 0 0 0 0,0 l -81110,-54190 a 0.50005,0.50005 0 0 0 0,0 l -95670,-19030 a 0.50005,0.50005 0 0 0 0,0 z m 0,0 h 675000 l 95670,19030 81110,54190 54190,81110 19030,95670 v 950000 l -19030,95670 -54190,81110 -81110,54190 -95670,19030 h -675000 l -95670,-19030 -81110,-54190 -54190,-81110 -19030,-95670 v -950000 l 19030,-95670 54190,-81110 81110,-54190 z"
         id="path8350" />
    </g>
  </g>
  <g
     id="g1153"
     style="fill:#000000;fill-opacity:1;stroke:none;stroke-width:100000;stroke-linecap:round;stroke-linejoin:round;stroke-opacity:1" />
  <g
     id="g1155"
     style="fill:#000000;fill-opacity:1;stroke:none;stroke-width:100000;stroke-linecap:round;stroke-linejoin:round;stroke-opacity:1" />
  <g
     style="fill:#000000;stroke:none;stroke-linecap:round;stroke-linejoin:round;fill-opacity:1"
     id="g1161">
    <g
       id="path1157"
       style="fill:#000000;fill-opacity:1;stroke:none">
      <path
         style="color:#000000;fill-rule:evenodd;stroke:none;-inkscape-stroke:none;fill:#000000;fill-opacity:1"
         d="m 237388200,102166000 -19030,-95670 -54190,-81110 -81110,-54190 -95670,-19030 h -700000 l -95670,19030 -81110,54190 -54190,81110 -19030,95670 v 900000 l 19030,95670 54190,81110 81110,54190 95670,19030 h 700000 l 95670,-19030 81110,-54190 54190,-81110 19030,-95670 z"
         id="path8330" />
      <path
         style="color:#000000;fill-rule:evenodd;stroke:none;-inkscape-stroke:none;fill:#000000;fill-opacity:1"
         d="m 236438200,101916000 a 0.50005,0.50005 0 0 0 0,0 l -95670,19030 a 0.50005,0.50005 0 0 0 0,0 l -81110,54190 a 0.50005,0.50005 0 0 0 0,0 l -54190,81110 a 0.50005,0.50005 0 0 0 0,0 l -19030,95670 a 0.50005,0.50005 0 0 0 0,0 v 900000 a 0.50005,0.50005 0 0 0 0,0 l 19030,95670 a 0.50005,0.50005 0 0 0 0,0 l 54190,81110 a 0.50005,0.50005 0 0 0 0,0 l 81110,54190 a 0.50005,0.50005 0 0 0 0,0 l 95670,19030 a 0.50005,0.50005 0 0 0 0,0 h 700000 a 0.50005,0.50005 0 0 0 0,0 l 95670,-19030 a 0.50005,0.50005 0 0 0 0,0 l 81110,-54190 a 0.50005,0.50005 0 0 0 0,0 l 54190,-81110 a 0.50005,0.50005 0 0 0 0,0 l 19030,-95670 a 0.50005,0.50005 0 0 0 0,0 v -900000 a 0.50005,0.50005 0 0 0 0,0 l -19030,-95670 a 0.50005,0.50005 0 0 0 0,0 l -54190,-81110 a 0.50005,0.50005 0 0 0 0,0 l -81110,-54190 a 0.50005,0.50005 0 0 0 0,0 l -95670,-19030 a 0.50005,0.50005 0 0 0 0,0 z m 0,0 h 700000 l 95670,19030 81110,54190 54190,81110 19030,95670 v 900000 l -19030,95670 -54190,81110 -81110,54190 -95670,19030 h -700000 l -95670,-19030 -81110,-54190 -54190,-81110 -19030,-95670 v -900000 l 19030,-95670 54190,-81110 81110,-54190 z"
         id="path8332" />
    </g>
    <g
       id="path1159"
       style="fill:#000000;fill-opacity:1;stroke:none">
      <path
         style="color:#000000;fill-rule:evenodd;stroke:none;-inkscape-stroke:none;fill:#000000;fill-opacity:1"
         d="m 235388200,102166000 -19030,-95670 -54190,-81110 -81110,-54190 -95670,-19030 h -700000 l -95670,19030 -81110,54190 -54190,81110 -19030,95670 v 900000 l 19030,95670 54190,81110 81110,54190 95670,19030 h 700000 l 95670,-19030 81110,-54190 54190,-81110 19030,-95670 z"
         id="path8336" />
      <path
         style="color:#000000;fill-rule:evenodd;stroke:none;-inkscape-stroke:none;fill:#000000;fill-opacity:1"
         d="m 234438200,101916000 a 0.50005,0.50005 0 0 0 0,0 l -95670,19030 a 0.50005,0.50005 0 0 0 0,0 l -81110,54190 a 0.50005,0.50005 0 0 0 0,0 l -54190,81110 a 0.50005,0.50005 0 0 0 0,0 l -19030,95670 a 0.50005,0.50005 0 0 0 0,0 v 900000 a 0.50005,0.50005 0 0 0 0,0 l 19030,95670 a 0.50005,0.50005 0 0 0 0,0 l 54190,81110 a 0.50005,0.50005 0 0 0 0,0 l 81110,54190 a 0.50005,0.50005 0 0 0 0,0 l 95670,19030 a 0.50005,0.50005 0 0 0 0,0 h 700000 a 0.50005,0.50005 0 0 0 0,0 l 95670,-19030 a 0.50005,0.50005 0 0 0 0,0 l 81110,-54190 a 0.50005,0.50005 0 0 0 0,0 l 54190,-81110 a 0.50005,0.50005 0 0 0 0,0 l 19030,-95670 a 0.50005,0.50005 0 0 0 0,0 v -900000 a 0.50005,0.50005 0 0 0 0,0 l -19030,-95670 a 0.50005,0.50005 0 0 0 0,0 l -54190,-81110 a 0.50005,0.50005 0 0 0 0,0 l -81110,-54190 a 0.50005,0.50005 0 0 0 0,0 l -95670,-19030 a 0.50005,0.50005 0 0 0 0,0 z m 0,0 h 700000 l 95670,19030 81110,54190 54190,81110 19030,95670 v 900000 l -19030,95670 -54190,81110 -81110,54190 -95670,19030 h -700000 l -95670,-19030 -81110,-54190 -54190,-81110 -19030,-95670 v -900000 l 19030,-95670 54190,-81110 81110,-54190 z"
         id="path8338" />
    </g>
  </g>
  <g
     id="g1163"
     style="fill:#000000;fill-opacity:1;stroke:none;stroke-width:100000;stroke-linecap:round;stroke-linejoin:round;stroke-opacity:1" />
  <g
     style="fill:#000000;stroke:none;stroke-linecap:round;stroke-linejoin:round;fill-opacity:1"
     id="g1169">
    <g
       id="path1165"
       style="fill:#000000;fill-opacity:1;stroke:none">
      <path
         style="color:#000000;fill-rule:evenodd;stroke:none;-inkscape-stroke:none;fill:#000000;fill-opacity:1"
         d="m 198515200,130025500 95670,-19030 81110,-54190 54190,-81110 19030,-95670 v -825000 l -19030,-95670 -54190,-81110 -81110,-54190 -95670,-19030 h -1300000 l -95670,19030 -81110,54190 -54190,81110 -19030,95670 v 825000 l 19030,95670 54190,81110 81110,54190 95670,19030 z"
         id="path8318" />
      <path
         style="color:#000000;fill-rule:evenodd;stroke:none;-inkscape-stroke:none;fill:#000000;fill-opacity:1"
         d="m 197215200,128700500 a 0.50005,0.50005 0 0 0 0,0 l -95670,19030 a 0.50005,0.50005 0 0 0 0,0 l -81110,54190 a 0.50005,0.50005 0 0 0 0,0 l -54190,81110 a 0.50005,0.50005 0 0 0 0,0 l -19030,95670 a 0.50005,0.50005 0 0 0 0,0 v 825000 a 0.50005,0.50005 0 0 0 0,0 l 19030,95670 a 0.50005,0.50005 0 0 0 0,0 l 54190,81110 a 0.50005,0.50005 0 0 0 0,0 l 81110,54190 a 0.50005,0.50005 0 0 0 0,0 l 95670,19030 a 0.50005,0.50005 0 0 0 0,0 h 1300000 a 0.50005,0.50005 0 0 0 0,0 l 95670,-19030 a 0.50005,0.50005 0 0 0 0,0 l 81110,-54190 a 0.50005,0.50005 0 0 0 0,0 l 54190,-81110 a 0.50005,0.50005 0 0 0 0,0 l 19030,-95670 a 0.50005,0.50005 0 0 0 0,0 v -825000 a 0.50005,0.50005 0 0 0 0,0 l -19030,-95670 a 0.50005,0.50005 0 0 0 0,0 l -54190,-81110 a 0.50005,0.50005 0 0 0 0,0 l -81110,-54190 a 0.50005,0.50005 0 0 0 0,0 l -95670,-19030 a 0.50005,0.50005 0 0 0 0,0 z m 0,0 h 1300000 l 95670,19030 81110,54190 54190,81110 19030,95670 v 825000 l -19030,95670 -54190,81110 -81110,54190 -95670,19030 h -1300000 l -95670,-19030 -81110,-54190 -54190,-81110 -19030,-95670 v -825000 l 19030,-95670 54190,-81110 81110,-54190 z"
         id="path8320" />
    </g>
    <g
       id="path1167"
       style="fill:#000000;fill-opacity:1;stroke:none">
      <path
         style="color:#000000;fill-rule:evenodd;stroke:none;-inkscape-stroke:none;fill:#000000;fill-opacity:1"
         d="m 198515200,126900500 95670,-19030 81110,-54190 54190,-81110 19030,-95670 v -825000 l -19030,-95670 -54190,-81110 -81110,-54190 -95670,-19030 h -1300000 l -95670,19030 -81110,54190 -54190,81110 -19030,95670 v 825000 l 19030,95670 54190,81110 81110,54190 95670,19030 z"
         id="path8324" />
      <path
         style="color:#000000;fill-rule:evenodd;stroke:none;-inkscape-stroke:none;fill:#000000;fill-opacity:1"
         d="m 197215200,125575500 a 0.50005,0.50005 0 0 0 0,0 l -95670,19030 a 0.50005,0.50005 0 0 0 0,0 l -81110,54190 a 0.50005,0.50005 0 0 0 0,0 l -54190,81110 a 0.50005,0.50005 0 0 0 0,0 l -19030,95670 a 0.50005,0.50005 0 0 0 0,0 v 825000 a 0.50005,0.50005 0 0 0 0,0 l 19030,95670 a 0.50005,0.50005 0 0 0 0,0 l 54190,81110 a 0.50005,0.50005 0 0 0 0,0 l 81110,54190 a 0.50005,0.50005 0 0 0 0,0 l 95670,19030 a 0.50005,0.50005 0 0 0 0,0 h 1300000 a 0.50005,0.50005 0 0 0 0,0 l 95670,-19030 a 0.50005,0.50005 0 0 0 0,0 l 81110,-54190 a 0.50005,0.50005 0 0 0 0,0 l 54190,-81110 a 0.50005,0.50005 0 0 0 0,0 l 19030,-95670 a 0.50005,0.50005 0 0 0 0,0 v -825000 a 0.50005,0.50005 0 0 0 0,0 l -19030,-95670 a 0.50005,0.50005 0 0 0 0,0 l -54190,-81110 a 0.50005,0.50005 0 0 0 0,0 l -81110,-54190 a 0.50005,0.50005 0 0 0 0,0 l -95670,-19030 a 0.50005,0.50005 0 0 0 0,0 z m 0,0 h 1300000 l 95670,19030 81110,54190 54190,81110 19030,95670 v 825000 l -19030,95670 -54190,81110 -81110,54190 -95670,19030 h -1300000 l -95670,-19030 -81110,-54190 -54190,-81110 -19030,-95670 v -825000 l 19030,-95670 54190,-81110 81110,-54190 z"
         id="path8326" />
    </g>
  </g>
  <g
     id="g1171"
     style="fill:#000000;fill-opacity:1;stroke:none;stroke-width:100000;stroke-linecap:round;stroke-linejoin:round;stroke-opacity:1" />
  <g
     id="g1173"
     style="fill:#000000;fill-opacity:1;stroke:none;stroke-width:100000;stroke-linecap:round;stroke-linejoin:round;stroke-opacity:1" />
  <g
     id="g1175"
     style="fill:#000000;fill-opacity:1;stroke:none;stroke-width:100000;stroke-linecap:round;stroke-linejoin:round;stroke-opacity:1" />
  <g
     id="g1177"
     style="fill:#000000;fill-opacity:1;stroke:none;stroke-width:100000;stroke-linecap:round;stroke-linejoin:round;stroke-opacity:1" />
  <g
     style="fill:#000000;stroke:none;stroke-linecap:round;stroke-linejoin:round;fill-opacity:1"
     id="g1183">
    <g
       id="path1179"
       style="fill:#000000;fill-opacity:1;stroke:none">
      <path
         style="color:#000000;fill-rule:evenodd;stroke:none;-inkscape-stroke:none;fill:#000000;fill-opacity:1"
         d="m 226205700,133020000 -95670,19030 -81110,54190 -54190,81110 -19030,95670 v 700000 l 19030,95670 54190,81110 81110,54190 95670,19030 h 900000 l 95670,-19030 81110,-54190 54190,-81110 19030,-95670 v -700000 l -19030,-95670 -54190,-81110 -81110,-54190 -95670,-19030 z"
         id="path8306" />
      <path
         style="color:#000000;fill-rule:evenodd;stroke:none;-inkscape-stroke:none;fill:#000000;fill-opacity:1"
         d="m 226205700,133020000 a 0.50005,0.50005 0 0 0 0,0 l -95670,19030 a 0.50005,0.50005 0 0 0 0,0 l -81110,54190 a 0.50005,0.50005 0 0 0 0,0 l -54190,81110 a 0.50005,0.50005 0 0 0 0,0 l -19030,95670 a 0.50005,0.50005 0 0 0 0,0 v 700000 a 0.50005,0.50005 0 0 0 0,0 l 19030,95670 a 0.50005,0.50005 0 0 0 0,0 l 54190,81110 a 0.50005,0.50005 0 0 0 0,0 l 81110,54190 a 0.50005,0.50005 0 0 0 0,0 l 95670,19030 a 0.50005,0.50005 0 0 0 0,0 h 900000 a 0.50005,0.50005 0 0 0 0,0 l 95670,-19030 a 0.50005,0.50005 0 0 0 0,0 l 81110,-54190 a 0.50005,0.50005 0 0 0 0,0 l 54190,-81110 a 0.50005,0.50005 0 0 0 0,0 l 19030,-95670 a 0.50005,0.50005 0 0 0 0,0 v -700000 a 0.50005,0.50005 0 0 0 0,0 l -19030,-95670 a 0.50005,0.50005 0 0 0 0,0 l -54190,-81110 a 0.50005,0.50005 0 0 0 0,0 l -81110,-54190 a 0.50005,0.50005 0 0 0 0,0 l -95670,-19030 a 0.50005,0.50005 0 0 0 0,0 z m 0,0 h 900000 l 95670,19030 81110,54190 54190,81110 19030,95670 v 700000 l -19030,95670 -54190,81110 -81110,54190 -95670,19030 h -900000 l -95670,-19030 -81110,-54190 -54190,-81110 -19030,-95670 v -700000 l 19030,-95670 54190,-81110 81110,-54190 z"
         id="path8308" />
    </g>
    <g
       id="path1181"
       style="fill:#000000;fill-opacity:1;stroke:none">
      <path
         style="color:#000000;fill-rule:evenodd;stroke:none;-inkscape-stroke:none;fill:#000000;fill-opacity:1"
         d="m 226205700,135020000 -95670,19030 -81110,54190 -54190,81110 -19030,95670 v 700000 l 19030,95670 54190,81110 81110,54190 95670,19030 h 900000 l 95670,-19030 81110,-54190 54190,-81110 19030,-95670 v -700000 l -19030,-95670 -54190,-81110 -81110,-54190 -95670,-19030 z"
         id="path8312" />
      <path
         style="color:#000000;fill-rule:evenodd;stroke:none;-inkscape-stroke:none;fill:#000000;fill-opacity:1"
         d="m 226205700,135020000 a 0.50005,0.50005 0 0 0 0,0 l -95670,19030 a 0.50005,0.50005 0 0 0 0,0 l -81110,54190 a 0.50005,0.50005 0 0 0 0,0 l -54190,81110 a 0.50005,0.50005 0 0 0 0,0 l -19030,95670 a 0.50005,0.50005 0 0 0 0,0 v 700000 a 0.50005,0.50005 0 0 0 0,0 l 19030,95670 a 0.50005,0.50005 0 0 0 0,0 l 54190,81110 a 0.50005,0.50005 0 0 0 0,0 l 81110,54190 a 0.50005,0.50005 0 0 0 0,0 l 95670,19030 a 0.50005,0.50005 0 0 0 0,0 h 900000 a 0.50005,0.50005 0 0 0 0,0 l 95670,-19030 a 0.50005,0.50005 0 0 0 0,0 l 81110,-54190 a 0.50005,0.50005 0 0 0 0,0 l 54190,-81110 a 0.50005,0.50005 0 0 0 0,0 l 19030,-95670 a 0.50005,0.50005 0 0 0 0,0 v -700000 a 0.50005,0.50005 0 0 0 0,0 l -19030,-95670 a 0.50005,0.50005 0 0 0 0,0 l -54190,-81110 a 0.50005,0.50005 0 0 0 0,0 l -81110,-54190 a 0.50005,0.50005 0 0 0 0,0 l -95670,-19030 a 0.50005,0.50005 0 0 0 0,0 z m 0,0 h 900000 l 95670,19030 81110,54190 54190,81110 19030,95670 v 700000 l -19030,95670 -54190,81110 -81110,54190 -95670,19030 h -900000 l -95670,-19030 -81110,-54190 -54190,-81110 -19030,-95670 v -700000 l 19030,-95670 54190,-81110 81110,-54190 z"
         id="path8314" />
    </g>
  </g>
  <g
     id="g1185"
     style="fill:#000000;fill-opacity:1;stroke:none;stroke-width:100000;stroke-linecap:round;stroke-linejoin:round;stroke-opacity:1" />
  <g
     id="g1187"
     style="fill:#000000;fill-opacity:1;stroke:none;stroke-width:100000;stroke-linecap:round;stroke-linejoin:round;stroke-opacity:1" />
  <g
     style="fill:#000000;stroke:none;stroke-linecap:round;stroke-linejoin:round;fill-opacity:1"
     id="g1193">
    <g
       id="path1189"
       style="fill:#000000;fill-opacity:1;stroke:none">
      <path
         style="color:#000000;fill-rule:evenodd;stroke:none;-inkscape-stroke:none;fill:#000000;fill-opacity:1"
         d="m 226244200,128321000 -95670,19030 -81110,54190 -54190,81110 -19030,95670 v 700000 l 19030,95670 54190,81110 81110,54190 95670,19030 h 900000 l 95670,-19030 81110,-54190 54190,-81110 19030,-95670 v -700000 l -19030,-95670 -54190,-81110 -81110,-54190 -95670,-19030 z"
         id="path8294" />
      <path
         style="color:#000000;fill-rule:evenodd;stroke:none;-inkscape-stroke:none;fill:#000000;fill-opacity:1"
         d="m 226244200,128321000 a 0.50005,0.50005 0 0 0 0,0 l -95670,19030 a 0.50005,0.50005 0 0 0 0,0 l -81110,54190 a 0.50005,0.50005 0 0 0 0,0 l -54190,81110 a 0.50005,0.50005 0 0 0 0,0 l -19030,95670 a 0.50005,0.50005 0 0 0 0,0 v 700000 a 0.50005,0.50005 0 0 0 0,0 l 19030,95670 a 0.50005,0.50005 0 0 0 0,0 l 54190,81110 a 0.50005,0.50005 0 0 0 0,0 l 81110,54190 a 0.50005,0.50005 0 0 0 0,0 l 95670,19030 a 0.50005,0.50005 0 0 0 0,0 h 900000 a 0.50005,0.50005 0 0 0 0,0 l 95670,-19030 a 0.50005,0.50005 0 0 0 0,0 l 81110,-54190 a 0.50005,0.50005 0 0 0 0,0 l 54190,-81110 a 0.50005,0.50005 0 0 0 0,0 l 19030,-95670 a 0.50005,0.50005 0 0 0 0,0 v -700000 a 0.50005,0.50005 0 0 0 0,0 l -19030,-95670 a 0.50005,0.50005 0 0 0 0,0 l -54190,-81110 a 0.50005,0.50005 0 0 0 0,0 l -81110,-54190 a 0.50005,0.50005 0 0 0 0,0 l -95670,-19030 a 0.50005,0.50005 0 0 0 0,0 z m 0,0 h 900000 l 95670,19030 81110,54190 54190,81110 19030,95670 v 700000 l -19030,95670 -54190,81110 -81110,54190 -95670,19030 h -900000 l -95670,-19030 -81110,-54190 -54190,-81110 -19030,-95670 v -700000 l 19030,-95670 54190,-81110 81110,-54190 z"
         id="path8296" />
    </g>
    <g
       id="path1191"
       style="fill:#000000;fill-opacity:1;stroke:none">
      <path
         style="color:#000000;fill-rule:evenodd;stroke:none;-inkscape-stroke:none;fill:#000000;fill-opacity:1"
         d="m 226244200,130321000 -95670,19030 -81110,54190 -54190,81110 -19030,95670 v 700000 l 19030,95670 54190,81110 81110,54190 95670,19030 h 900000 l 95670,-19030 81110,-54190 54190,-81110 19030,-95670 v -700000 l -19030,-95670 -54190,-81110 -81110,-54190 -95670,-19030 z"
         id="path8300" />
      <path
         style="color:#000000;fill-rule:evenodd;stroke:none;-inkscape-stroke:none;fill:#000000;fill-opacity:1"
         d="m 226244200,130321000 a 0.50005,0.50005 0 0 0 0,0 l -95670,19030 a 0.50005,0.50005 0 0 0 0,0 l -81110,54190 a 0.50005,0.50005 0 0 0 0,0 l -54190,81110 a 0.50005,0.50005 0 0 0 0,0 l -19030,95670 a 0.50005,0.50005 0 0 0 0,0 v 700000 a 0.50005,0.50005 0 0 0 0,0 l 19030,95670 a 0.50005,0.50005 0 0 0 0,0 l 54190,81110 a 0.50005,0.50005 0 0 0 0,0 l 81110,54190 a 0.50005,0.50005 0 0 0 0,0 l 95670,19030 a 0.50005,0.50005 0 0 0 0,0 h 900000 a 0.50005,0.50005 0 0 0 0,0 l 95670,-19030 a 0.50005,0.50005 0 0 0 0,0 l 81110,-54190 a 0.50005,0.50005 0 0 0 0,0 l 54190,-81110 a 0.50005,0.50005 0 0 0 0,0 l 19030,-95670 a 0.50005,0.50005 0 0 0 0,0 v -700000 a 0.50005,0.50005 0 0 0 0,0 l -19030,-95670 a 0.50005,0.50005 0 0 0 0,0 l -54190,-81110 a 0.50005,0.50005 0 0 0 0,0 l -81110,-54190 a 0.50005,0.50005 0 0 0 0,0 l -95670,-19030 a 0.50005,0.50005 0 0 0 0,0 z m 0,0 h 900000 l 95670,19030 81110,54190 54190,81110 19030,95670 v 700000 l -19030,95670 -54190,81110 -81110,54190 -95670,19030 h -900000 l -95670,-19030 -81110,-54190 -54190,-81110 -19030,-95670 v -700000 l 19030,-95670 54190,-81110 81110,-54190 z"
         id="path8302" />
    </g>
  </g>
  <g
     id="g1195"
     style="fill:#000000;fill-opacity:1;stroke:none;stroke-width:100000;stroke-linecap:round;stroke-linejoin:round;stroke-opacity:1" />
  <g
     id="g1197"
     style="fill:#000000;fill-opacity:1;stroke:none;stroke-width:100000;stroke-linecap:round;stroke-linejoin:round;stroke-opacity:1" />
  <g
     style="fill:#000000;stroke:none;stroke-linecap:round;stroke-linejoin:round;fill-opacity:1"
     id="g1203">
    <g
       id="path1199"
       style="fill:#000000;fill-opacity:1;stroke:none">
      <path
         style="color:#000000;fill-rule:evenodd;stroke:none;-inkscape-stroke:none;fill:#000000;fill-opacity:1"
         d="m 189563200,122698500 -18080,-90890 -51480,-77050 -77050,-51480 -90890,-18080 h -600000 l -90890,18080 -77050,51480 -51480,77050 -18080,90890 v 475000 l 18080,90890 51480,77050 77050,51480 90890,18080 h 600000 l 90890,-18080 77050,-51480 51480,-77050 18080,-90890 z"
         id="path8282" />
      <path
         style="color:#000000;fill-rule:evenodd;stroke:none;-inkscape-stroke:none;fill:#000000;fill-opacity:1"
         d="m 188725700,122461000 a 0.50005,0.50005 0 0 0 0,0 l -90890,18080 a 0.50005,0.50005 0 0 0 0,0 l -77050,51480 a 0.50005,0.50005 0 0 0 0,0 l -51480,77050 a 0.50005,0.50005 0 0 0 0,0 l -18080,90890 a 0.50005,0.50005 0 0 0 0,0 v 475000 a 0.50005,0.50005 0 0 0 0,0 l 18080,90890 a 0.50005,0.50005 0 0 0 0,0 l 51480,77050 a 0.50005,0.50005 0 0 0 0,0 l 77050,51480 a 0.50005,0.50005 0 0 0 0,0 l 90890,18080 a 0.50005,0.50005 0 0 0 0,0 h 600000 a 0.50005,0.50005 0 0 0 0,0 l 90890,-18080 a 0.50005,0.50005 0 0 0 0,0 l 77050,-51480 a 0.50005,0.50005 0 0 0 0,0 l 51480,-77050 a 0.50005,0.50005 0 0 0 0,0 l 18080,-90890 a 0.50005,0.50005 0 0 0 0,0 v -475000 a 0.50005,0.50005 0 0 0 0,0 l -18080,-90890 a 0.50005,0.50005 0 0 0 0,0 l -51480,-77050 a 0.50005,0.50005 0 0 0 0,0 l -77050,-51480 a 0.50005,0.50005 0 0 0 0,0 l -90890,-18080 a 0.50005,0.50005 0 0 0 0,0 z m 0,0 h 600000 l 90890,18080 77050,51480 51480,77050 18080,90890 v 475000 l -18080,90890 -51480,77050 -77050,51480 -90890,18080 h -600000 l -90890,-18080 -77050,-51480 -51480,-77050 -18080,-90890 v -475000 l 18080,-90890 51480,-77050 77050,-51480 z"
         id="path8284" />
    </g>
    <g
       id="path1201"
       style="fill:#000000;fill-opacity:1;stroke:none">
      <path
         style="color:#000000;fill-rule:evenodd;stroke:none;-inkscape-stroke:none;fill:#000000;fill-opacity:1"
         d="m 187838200,122698500 -18080,-90890 -51480,-77050 -77050,-51480 -90890,-18080 h -600000 l -90890,18080 -77050,51480 -51480,77050 -18080,90890 v 475000 l 18080,90890 51480,77050 77050,51480 90890,18080 h 600000 l 90890,-18080 77050,-51480 51480,-77050 18080,-90890 z"
         id="path8288" />
      <path
         style="color:#000000;fill-rule:evenodd;stroke:none;-inkscape-stroke:none;fill:#000000;fill-opacity:1"
         d="m 187000700,122461000 a 0.50005,0.50005 0 0 0 0,0 l -90890,18080 a 0.50005,0.50005 0 0 0 0,0 l -77050,51480 a 0.50005,0.50005 0 0 0 0,0 l -51480,77050 a 0.50005,0.50005 0 0 0 0,0 l -18080,90890 a 0.50005,0.50005 0 0 0 0,0 v 475000 a 0.50005,0.50005 0 0 0 0,0 l 18080,90890 a 0.50005,0.50005 0 0 0 0,0 l 51480,77050 a 0.50005,0.50005 0 0 0 0,0 l 77050,51480 a 0.50005,0.50005 0 0 0 0,0 l 90890,18080 a 0.50005,0.50005 0 0 0 0,0 h 600000 a 0.50005,0.50005 0 0 0 0,0 l 90890,-18080 a 0.50005,0.50005 0 0 0 0,0 l 77050,-51480 a 0.50005,0.50005 0 0 0 0,0 l 51480,-77050 a 0.50005,0.50005 0 0 0 0,0 l 18080,-90890 a 0.50005,0.50005 0 0 0 0,0 v -475000 a 0.50005,0.50005 0 0 0 0,0 l -18080,-90890 a 0.50005,0.50005 0 0 0 0,0 l -51480,-77050 a 0.50005,0.50005 0 0 0 0,0 l -77050,-51480 a 0.50005,0.50005 0 0 0 0,0 l -90890,-18080 a 0.50005,0.50005 0 0 0 0,0 z m 0,0 h 600000 l 90890,18080 77050,51480 51480,77050 18080,90890 v 475000 l -18080,90890 -51480,77050 -77050,51480 -90890,18080 h -600000 l -90890,-18080 -77050,-51480 -51480,-77050 -18080,-90890 v -475000 l 18080,-90890 51480,-77050 77050,-51480 z"
         id="path8290" />
    </g>
  </g>
  <g
     id="g1205"
     style="fill:#000000;fill-opacity:1;stroke:none;stroke-width:100000;stroke-linecap:round;stroke-linejoin:round;stroke-opacity:1" />
  <g
     style="fill:#000000;stroke:none;stroke-linecap:round;stroke-linejoin:round;fill-opacity:1"
     id="g1211">
    <g
       id="path1207"
       style="fill:#000000;fill-opacity:1;stroke:none">
      <path
         style="color:#000000;fill-rule:evenodd;stroke:none;-inkscape-stroke:none;fill:#000000;fill-opacity:1"
         d="m 226244200,123733000 -95670,19030 -81110,54190 -54190,81110 -19030,95670 v 700000 l 19030,95670 54190,81110 81110,54190 95670,19030 h 900000 l 95670,-19030 81110,-54190 54190,-81110 19030,-95670 v -700000 l -19030,-95670 -54190,-81110 -81110,-54190 -95670,-19030 z"
         id="path8270" />
      <path
         style="color:#000000;fill-rule:evenodd;stroke:none;-inkscape-stroke:none;fill:#000000;fill-opacity:1"
         d="m 226244200,123733000 a 0.50005,0.50005 0 0 0 0,0 l -95670,19030 a 0.50005,0.50005 0 0 0 0,0 l -81110,54190 a 0.50005,0.50005 0 0 0 0,0 l -54190,81110 a 0.50005,0.50005 0 0 0 0,0 l -19030,95670 a 0.50005,0.50005 0 0 0 0,0 v 700000 a 0.50005,0.50005 0 0 0 0,0 l 19030,95670 a 0.50005,0.50005 0 0 0 0,0 l 54190,81110 a 0.50005,0.50005 0 0 0 0,0 l 81110,54190 a 0.50005,0.50005 0 0 0 0,0 l 95670,19030 a 0.50005,0.50005 0 0 0 0,0 h 900000 a 0.50005,0.50005 0 0 0 0,0 l 95670,-19030 a 0.50005,0.50005 0 0 0 0,0 l 81110,-54190 a 0.50005,0.50005 0 0 0 0,0 l 54190,-81110 a 0.50005,0.50005 0 0 0 0,0 l 19030,-95670 a 0.50005,0.50005 0 0 0 0,0 v -700000 a 0.50005,0.50005 0 0 0 0,0 l -19030,-95670 a 0.50005,0.50005 0 0 0 0,0 l -54190,-81110 a 0.50005,0.50005 0 0 0 0,0 l -81110,-54190 a 0.50005,0.50005 0 0 0 0,0 l -95670,-19030 a 0.50005,0.50005 0 0 0 0,0 z m 0,0 h 900000 l 95670,19030 81110,54190 54190,81110 19030,95670 v 700000 l -19030,95670 -54190,81110 -81110,54190 -95670,19030 h -900000 l -95670,-19030 -81110,-54190 -54190,-81110 -19030,-95670 v -700000 l 19030,-95670 54190,-81110 81110,-54190 z"
         id="path8272" />
    </g>
    <g
       id="path1209"
       style="fill:#000000;fill-opacity:1;stroke:none">
      <path
         style="color:#000000;fill-rule:evenodd;stroke:none;-inkscape-stroke:none;fill:#000000;fill-opacity:1"
         d="m 226244200,125733000 -95670,19030 -81110,54190 -54190,81110 -19030,95670 v 700000 l 19030,95670 54190,81110 81110,54190 95670,19030 h 900000 l 95670,-19030 81110,-54190 54190,-81110 19030,-95670 v -700000 l -19030,-95670 -54190,-81110 -81110,-54190 -95670,-19030 z"
         id="path8276" />
      <path
         style="color:#000000;fill-rule:evenodd;stroke:none;-inkscape-stroke:none;fill:#000000;fill-opacity:1"
         d="m 226244200,125733000 a 0.50005,0.50005 0 0 0 0,0 l -95670,19030 a 0.50005,0.50005 0 0 0 0,0 l -81110,54190 a 0.50005,0.50005 0 0 0 0,0 l -54190,81110 a 0.50005,0.50005 0 0 0 0,0 l -19030,95670 a 0.50005,0.50005 0 0 0 0,0 v 700000 a 0.50005,0.50005 0 0 0 0,0 l 19030,95670 a 0.50005,0.50005 0 0 0 0,0 l 54190,81110 a 0.50005,0.50005 0 0 0 0,0 l 81110,54190 a 0.50005,0.50005 0 0 0 0,0 l 95670,19030 a 0.50005,0.50005 0 0 0 0,0 h 900000 a 0.50005,0.50005 0 0 0 0,0 l 95670,-19030 a 0.50005,0.50005 0 0 0 0,0 l 81110,-54190 a 0.50005,0.50005 0 0 0 0,0 l 54190,-81110 a 0.50005,0.50005 0 0 0 0,0 l 19030,-95670 a 0.50005,0.50005 0 0 0 0,0 v -700000 a 0.50005,0.50005 0 0 0 0,0 l -19030,-95670 a 0.50005,0.50005 0 0 0 0,0 l -54190,-81110 a 0.50005,0.50005 0 0 0 0,0 l -81110,-54190 a 0.50005,0.50005 0 0 0 0,0 l -95670,-19030 a 0.50005,0.50005 0 0 0 0,0 z m 0,0 h 900000 l 95670,19030 81110,54190 54190,81110 19030,95670 v 700000 l -19030,95670 -54190,81110 -81110,54190 -95670,19030 h -900000 l -95670,-19030 -81110,-54190 -54190,-81110 -19030,-95670 v -700000 l 19030,-95670 54190,-81110 81110,-54190 z"
         id="path8278" />
    </g>
  </g>
  <g
     id="g1213"
     style="fill:#000000;fill-opacity:1;stroke:none;stroke-width:100000;stroke-linecap:round;stroke-linejoin:round;stroke-opacity:1" />
  <g
     style="fill:#000000;stroke:none;stroke-linecap:round;stroke-linejoin:round;fill-opacity:1"
     id="g1219">
    <g
       id="path1215"
       style="fill:#000000;fill-opacity:1;stroke:none">
      <path
         style="color:#000000;fill-rule:evenodd;stroke:none;-inkscape-stroke:none;fill:#000000;fill-opacity:1"
         d="m 234213600,134968400 19030,95670 54190,81110 81110,54190 95670,19030 h 700000 l 95670,-19030 81110,-54190 54190,-81110 19030,-95670 v -900000 l -19030,-95670 -54190,-81110 -81110,-54190 -95670,-19030 h -700000 l -95670,19030 -81110,54190 -54190,81110 -19030,95670 z"
         id="path8258" />
      <path
         style="color:#000000;fill-rule:evenodd;stroke:none;-inkscape-stroke:none;fill:#000000;fill-opacity:1"
         d="m 234463600,133818400 a 0.50005,0.50005 0 0 0 0,0 l -95670,19030 a 0.50005,0.50005 0 0 0 0,0 l -81110,54190 a 0.50005,0.50005 0 0 0 0,0 l -54190,81110 a 0.50005,0.50005 0 0 0 0,0 l -19030,95670 a 0.50005,0.50005 0 0 0 0,0 v 900000 a 0.50005,0.50005 0 0 0 0,0 l 19030,95670 a 0.50005,0.50005 0 0 0 0,0 l 54190,81110 a 0.50005,0.50005 0 0 0 0,0 l 81110,54190 a 0.50005,0.50005 0 0 0 0,0 l 95670,19030 a 0.50005,0.50005 0 0 0 0,0 h 700000 a 0.50005,0.50005 0 0 0 0,0 l 95670,-19030 a 0.50005,0.50005 0 0 0 0,0 l 81110,-54190 a 0.50005,0.50005 0 0 0 0,0 l 54190,-81110 a 0.50005,0.50005 0 0 0 0,0 l 19030,-95670 a 0.50005,0.50005 0 0 0 0,0 v -900000 a 0.50005,0.50005 0 0 0 0,0 l -19030,-95670 a 0.50005,0.50005 0 0 0 0,0 l -54190,-81110 a 0.50005,0.50005 0 0 0 0,0 l -81110,-54190 a 0.50005,0.50005 0 0 0 0,0 l -95670,-19030 a 0.50005,0.50005 0 0 0 0,0 z m 0,0 h 700000 l 95670,19030 81110,54190 54190,81110 19030,95670 v 900000 l -19030,95670 -54190,81110 -81110,54190 -95670,19030 h -700000 l -95670,-19030 -81110,-54190 -54190,-81110 -19030,-95670 v -900000 l 19030,-95670 54190,-81110 81110,-54190 z"
         id="path8260" />
    </g>
    <g
       id="path1217"
       style="fill:#000000;fill-opacity:1;stroke:none">
      <path
         style="color:#000000;fill-rule:evenodd;stroke:none;-inkscape-stroke:none;fill:#000000;fill-opacity:1"
         d="m 236213600,134968400 19030,95670 54190,81110 81110,54190 95670,19030 h 700000 l 95670,-19030 81110,-54190 54190,-81110 19030,-95670 v -900000 l -19030,-95670 -54190,-81110 -81110,-54190 -95670,-19030 h -700000 l -95670,19030 -81110,54190 -54190,81110 -19030,95670 z"
         id="path8264" />
      <path
         style="color:#000000;fill-rule:evenodd;stroke:none;-inkscape-stroke:none;fill:#000000;fill-opacity:1"
         d="m 236463600,133818400 a 0.50005,0.50005 0 0 0 0,0 l -95670,19030 a 0.50005,0.50005 0 0 0 0,0 l -81110,54190 a 0.50005,0.50005 0 0 0 0,0 l -54190,81110 a 0.50005,0.50005 0 0 0 0,0 l -19030,95670 a 0.50005,0.50005 0 0 0 0,0 v 900000 a 0.50005,0.50005 0 0 0 0,0 l 19030,95670 a 0.50005,0.50005 0 0 0 0,0 l 54190,81110 a 0.50005,0.50005 0 0 0 0,0 l 81110,54190 a 0.50005,0.50005 0 0 0 0,0 l 95670,19030 a 0.50005,0.50005 0 0 0 0,0 h 700000 a 0.50005,0.50005 0 0 0 0,0 l 95670,-19030 a 0.50005,0.50005 0 0 0 0,0 l 81110,-54190 a 0.50005,0.50005 0 0 0 0,0 l 54190,-81110 a 0.50005,0.50005 0 0 0 0,0 l 19030,-95670 a 0.50005,0.50005 0 0 0 0,0 v -900000 a 0.50005,0.50005 0 0 0 0,0 l -19030,-95670 a 0.50005,0.50005 0 0 0 0,0 l -54190,-81110 a 0.50005,0.50005 0 0 0 0,0 l -81110,-54190 a 0.50005,0.50005 0 0 0 0,0 l -95670,-19030 a 0.50005,0.50005 0 0 0 0,0 z m 0,0 h 700000 l 95670,19030 81110,54190 54190,81110 19030,95670 v 900000 l -19030,95670 -54190,81110 -81110,54190 -95670,19030 h -700000 l -95670,-19030 -81110,-54190 -54190,-81110 -19030,-95670 v -900000 l 19030,-95670 54190,-81110 81110,-54190 z"
         id="path8266" />
    </g>
  </g>
  <g
     id="g1221"
     style="fill:#000000;fill-opacity:1;stroke:none;stroke-width:100000;stroke-linecap:round;stroke-linejoin:round;stroke-opacity:1" />
  <g
     style="fill:#000000;stroke:none;stroke-linecap:round;stroke-linejoin:round;fill-opacity:1"
     id="g1227">
    <g
       id="path1223"
       style="fill:#000000;fill-opacity:1;stroke:none">
      <path
         style="color:#000000;fill-rule:evenodd;stroke:none;-inkscape-stroke:none;fill:#000000;fill-opacity:1"
         d="m 219851200,133162000 95670,-19030 81110,-54190 54190,-81110 19030,-95670 v -825000 l -19030,-95670 -54190,-81110 -81110,-54190 -95670,-19030 h -1300000 l -95670,19030 -81110,54190 -54190,81110 -19030,95670 v 825000 l 19030,95670 54190,81110 81110,54190 95670,19030 z"
         id="path8246" />
      <path
         style="color:#000000;fill-rule:evenodd;stroke:none;-inkscape-stroke:none;fill:#000000;fill-opacity:1"
         d="m 218551200,131837000 a 0.50005,0.50005 0 0 0 0,0 l -95670,19030 a 0.50005,0.50005 0 0 0 0,0 l -81110,54190 a 0.50005,0.50005 0 0 0 0,0 l -54190,81110 a 0.50005,0.50005 0 0 0 0,0 l -19030,95670 a 0.50005,0.50005 0 0 0 0,0 v 825000 a 0.50005,0.50005 0 0 0 0,0 l 19030,95670 a 0.50005,0.50005 0 0 0 0,0 l 54190,81110 a 0.50005,0.50005 0 0 0 0,0 l 81110,54190 a 0.50005,0.50005 0 0 0 0,0 l 95670,19030 a 0.50005,0.50005 0 0 0 0,0 h 1300000 a 0.50005,0.50005 0 0 0 0,0 l 95670,-19030 a 0.50005,0.50005 0 0 0 0,0 l 81110,-54190 a 0.50005,0.50005 0 0 0 0,0 l 54190,-81110 a 0.50005,0.50005 0 0 0 0,0 l 19030,-95670 a 0.50005,0.50005 0 0 0 0,0 v -825000 a 0.50005,0.50005 0 0 0 0,0 l -19030,-95670 a 0.50005,0.50005 0 0 0 0,0 l -54190,-81110 a 0.50005,0.50005 0 0 0 0,0 l -81110,-54190 a 0.50005,0.50005 0 0 0 0,0 l -95670,-19030 a 0.50005,0.50005 0 0 0 0,0 z m 0,0 h 1300000 l 95670,19030 81110,54190 54190,81110 19030,95670 v 825000 l -19030,95670 -54190,81110 -81110,54190 -95670,19030 h -1300000 l -95670,-19030 -81110,-54190 -54190,-81110 -19030,-95670 v -825000 l 19030,-95670 54190,-81110 81110,-54190 z"
         id="path8248" />
    </g>
    <g
       id="path1225"
       style="fill:#000000;fill-opacity:1;stroke:none">
      <path
         style="color:#000000;fill-rule:evenodd;stroke:none;-inkscape-stroke:none;fill:#000000;fill-opacity:1"
         d="m 219851200,130037000 95670,-19030 81110,-54190 54190,-81110 19030,-95670 v -825000 l -19030,-95670 -54190,-81110 -81110,-54190 -95670,-19030 h -1300000 l -95670,19030 -81110,54190 -54190,81110 -19030,95670 v 825000 l 19030,95670 54190,81110 81110,54190 95670,19030 z"
         id="path8252" />
      <path
         style="color:#000000;fill-rule:evenodd;stroke:none;-inkscape-stroke:none;fill:#000000;fill-opacity:1"
         d="m 218551200,128712000 a 0.50005,0.50005 0 0 0 0,0 l -95670,19030 a 0.50005,0.50005 0 0 0 0,0 l -81110,54190 a 0.50005,0.50005 0 0 0 0,0 l -54190,81110 a 0.50005,0.50005 0 0 0 0,0 l -19030,95670 a 0.50005,0.50005 0 0 0 0,0 v 825000 a 0.50005,0.50005 0 0 0 0,0 l 19030,95670 a 0.50005,0.50005 0 0 0 0,0 l 54190,81110 a 0.50005,0.50005 0 0 0 0,0 l 81110,54190 a 0.50005,0.50005 0 0 0 0,0 l 95670,19030 a 0.50005,0.50005 0 0 0 0,0 h 1300000 a 0.50005,0.50005 0 0 0 0,0 l 95670,-19030 a 0.50005,0.50005 0 0 0 0,0 l 81110,-54190 a 0.50005,0.50005 0 0 0 0,0 l 54190,-81110 a 0.50005,0.50005 0 0 0 0,0 l 19030,-95670 a 0.50005,0.50005 0 0 0 0,0 v -825000 a 0.50005,0.50005 0 0 0 0,0 l -19030,-95670 a 0.50005,0.50005 0 0 0 0,0 l -54190,-81110 a 0.50005,0.50005 0 0 0 0,0 l -81110,-54190 a 0.50005,0.50005 0 0 0 0,0 l -95670,-19030 a 0.50005,0.50005 0 0 0 0,0 z m 0,0 h 1300000 l 95670,19030 81110,54190 54190,81110 19030,95670 v 825000 l -19030,95670 -54190,81110 -81110,54190 -95670,19030 h -1300000 l -95670,-19030 -81110,-54190 -54190,-81110 -19030,-95670 v -825000 l 19030,-95670 54190,-81110 81110,-54190 z"
         id="path8254" />
    </g>
  </g>
  <g
     id="g1229"
     style="fill:#000000;fill-opacity:1;stroke:none;stroke-width:100000;stroke-linecap:round;stroke-linejoin:round;stroke-opacity:1" />
  <g
     style="fill:#000000;stroke:none;stroke-linecap:round;stroke-linejoin:round;fill-opacity:1"
     id="g1235">
    <g
       id="path1231"
       style="fill:#000000;fill-opacity:1;stroke:none">
      <path
         style="color:#000000;fill-rule:evenodd;stroke:none;-inkscape-stroke:none;fill:#000000;fill-opacity:1"
         d="m 221284200,130625000 19030,95670 54190,81110 81110,54190 95670,19030 h 700000 l 95670,-19030 81110,-54190 54190,-81110 19030,-95670 v -900000 l -19030,-95670 -54190,-81110 -81110,-54190 -95670,-19030 h -700000 l -95670,19030 -81110,54190 -54190,81110 -19030,95670 z"
         id="path8234" />
      <path
         style="color:#000000;fill-rule:evenodd;stroke:none;-inkscape-stroke:none;fill:#000000;fill-opacity:1"
         d="m 221534200,129475000 a 0.50005,0.50005 0 0 0 0,0 l -95670,19030 a 0.50005,0.50005 0 0 0 0,0 l -81110,54190 a 0.50005,0.50005 0 0 0 0,0 l -54190,81110 a 0.50005,0.50005 0 0 0 0,0 l -19030,95670 a 0.50005,0.50005 0 0 0 0,0 v 900000 a 0.50005,0.50005 0 0 0 0,0 l 19030,95670 a 0.50005,0.50005 0 0 0 0,0 l 54190,81110 a 0.50005,0.50005 0 0 0 0,0 l 81110,54190 a 0.50005,0.50005 0 0 0 0,0 l 95670,19030 a 0.50005,0.50005 0 0 0 0,0 h 700000 a 0.50005,0.50005 0 0 0 0,0 l 95670,-19030 a 0.50005,0.50005 0 0 0 0,0 l 81110,-54190 a 0.50005,0.50005 0 0 0 0,0 l 54190,-81110 a 0.50005,0.50005 0 0 0 0,0 l 19030,-95670 a 0.50005,0.50005 0 0 0 0,0 v -900000 a 0.50005,0.50005 0 0 0 0,0 l -19030,-95670 a 0.50005,0.50005 0 0 0 0,0 l -54190,-81110 a 0.50005,0.50005 0 0 0 0,0 l -81110,-54190 a 0.50005,0.50005 0 0 0 0,0 l -95670,-19030 a 0.50005,0.50005 0 0 0 0,0 z m 0,0 h 700000 l 95670,19030 81110,54190 54190,81110 19030,95670 v 900000 l -19030,95670 -54190,81110 -81110,54190 -95670,19030 h -700000 l -95670,-19030 -81110,-54190 -54190,-81110 -19030,-95670 v -900000 l 19030,-95670 54190,-81110 81110,-54190 z"
         id="path8236" />
    </g>
    <g
       id="path1233"
       style="fill:#000000;fill-opacity:1;stroke:none">
      <path
         style="color:#000000;fill-rule:evenodd;stroke:none;-inkscape-stroke:none;fill:#000000;fill-opacity:1"
         d="m 223284200,130625000 19030,95670 54190,81110 81110,54190 95670,19030 h 700000 l 95670,-19030 81110,-54190 54190,-81110 19030,-95670 v -900000 l -19030,-95670 -54190,-81110 -81110,-54190 -95670,-19030 h -700000 l -95670,19030 -81110,54190 -54190,81110 -19030,95670 z"
         id="path8240" />
      <path
         style="color:#000000;fill-rule:evenodd;stroke:none;-inkscape-stroke:none;fill:#000000;fill-opacity:1"
         d="m 223534200,129475000 a 0.50005,0.50005 0 0 0 0,0 l -95670,19030 a 0.50005,0.50005 0 0 0 0,0 l -81110,54190 a 0.50005,0.50005 0 0 0 0,0 l -54190,81110 a 0.50005,0.50005 0 0 0 0,0 l -19030,95670 a 0.50005,0.50005 0 0 0 0,0 v 900000 a 0.50005,0.50005 0 0 0 0,0 l 19030,95670 a 0.50005,0.50005 0 0 0 0,0 l 54190,81110 a 0.50005,0.50005 0 0 0 0,0 l 81110,54190 a 0.50005,0.50005 0 0 0 0,0 l 95670,19030 a 0.50005,0.50005 0 0 0 0,0 h 700000 a 0.50005,0.50005 0 0 0 0,0 l 95670,-19030 a 0.50005,0.50005 0 0 0 0,0 l 81110,-54190 a 0.50005,0.50005 0 0 0 0,0 l 54190,-81110 a 0.50005,0.50005 0 0 0 0,0 l 19030,-95670 a 0.50005,0.50005 0 0 0 0,0 v -900000 a 0.50005,0.50005 0 0 0 0,0 l -19030,-95670 a 0.50005,0.50005 0 0 0 0,0 l -54190,-81110 a 0.50005,0.50005 0 0 0 0,0 l -81110,-54190 a 0.50005,0.50005 0 0 0 0,0 l -95670,-19030 a 0.50005,0.50005 0 0 0 0,0 z m 0,0 h 700000 l 95670,19030 81110,54190 54190,81110 19030,95670 v 900000 l -19030,95670 -54190,81110 -81110,54190 -95670,19030 h -700000 l -95670,-19030 -81110,-54190 -54190,-81110 -19030,-95670 v -900000 l 19030,-95670 54190,-81110 81110,-54190 z"
         id="path8242" />
    </g>
  </g>
  <g
     id="g1237"
     style="fill:#000000;fill-opacity:1;stroke:none;stroke-width:100000;stroke-linecap:round;stroke-linejoin:round;stroke-opacity:1" />
  <g
     id="g1239"
     style="fill:#000000;fill-opacity:1;stroke:none;stroke-width:100000;stroke-linecap:round;stroke-linejoin:round;stroke-opacity:1" />
  <g
     style="fill:#000000;stroke:none;stroke-linecap:round;stroke-linejoin:round;fill-opacity:1"
     id="g1245">
    <g
       id="path1241"
       style="fill:#000000;fill-opacity:1;stroke:none">
      <path
         style="color:#000000;fill-rule:evenodd;stroke:none;-inkscape-stroke:none;fill:#000000;fill-opacity:1"
         d="m 234188200,106622000 19030,95670 54190,81110 81110,54190 95670,19030 h 700000 l 95670,-19030 81110,-54190 54190,-81110 19030,-95670 v -900000 l -19030,-95670 -54190,-81110 -81110,-54190 -95670,-19030 h -700000 l -95670,19030 -81110,54190 -54190,81110 -19030,95670 z"
         id="path8222" />
      <path
         style="color:#000000;fill-rule:evenodd;stroke:none;-inkscape-stroke:none;fill:#000000;fill-opacity:1"
         d="m 234438200,105472000 a 0.50005,0.50005 0 0 0 0,0 l -95670,19030 a 0.50005,0.50005 0 0 0 0,0 l -81110,54190 a 0.50005,0.50005 0 0 0 0,0 l -54190,81110 a 0.50005,0.50005 0 0 0 0,0 l -19030,95670 a 0.50005,0.50005 0 0 0 0,0 v 900000 a 0.50005,0.50005 0 0 0 0,0 l 19030,95670 a 0.50005,0.50005 0 0 0 0,0 l 54190,81110 a 0.50005,0.50005 0 0 0 0,0 l 81110,54190 a 0.50005,0.50005 0 0 0 0,0 l 95670,19030 a 0.50005,0.50005 0 0 0 0,0 h 700000 a 0.50005,0.50005 0 0 0 0,0 l 95670,-19030 a 0.50005,0.50005 0 0 0 0,0 l 81110,-54190 a 0.50005,0.50005 0 0 0 0,0 l 54190,-81110 a 0.50005,0.50005 0 0 0 0,0 l 19030,-95670 a 0.50005,0.50005 0 0 0 0,0 v -900000 a 0.50005,0.50005 0 0 0 0,0 l -19030,-95670 a 0.50005,0.50005 0 0 0 0,0 l -54190,-81110 a 0.50005,0.50005 0 0 0 0,0 l -81110,-54190 a 0.50005,0.50005 0 0 0 0,0 l -95670,-19030 a 0.50005,0.50005 0 0 0 0,0 z m 0,0 h 700000 l 95670,19030 81110,54190 54190,81110 19030,95670 v 900000 l -19030,95670 -54190,81110 -81110,54190 -95670,19030 h -700000 l -95670,-19030 -81110,-54190 -54190,-81110 -19030,-95670 v -900000 l 19030,-95670 54190,-81110 81110,-54190 z"
         id="path8224" />
    </g>
    <g
       id="path1243"
       style="fill:#000000;fill-opacity:1;stroke:none">
      <path
         style="color:#000000;fill-rule:evenodd;stroke:none;-inkscape-stroke:none;fill:#000000;fill-opacity:1"
         d="m 236188200,106622000 19030,95670 54190,81110 81110,54190 95670,19030 h 700000 l 95670,-19030 81110,-54190 54190,-81110 19030,-95670 v -900000 l -19030,-95670 -54190,-81110 -81110,-54190 -95670,-19030 h -700000 l -95670,19030 -81110,54190 -54190,81110 -19030,95670 z"
         id="path8228" />
      <path
         style="color:#000000;fill-rule:evenodd;stroke:none;-inkscape-stroke:none;fill:#000000;fill-opacity:1"
         d="m 236438200,105472000 a 0.50005,0.50005 0 0 0 0,0 l -95670,19030 a 0.50005,0.50005 0 0 0 0,0 l -81110,54190 a 0.50005,0.50005 0 0 0 0,0 l -54190,81110 a 0.50005,0.50005 0 0 0 0,0 l -19030,95670 a 0.50005,0.50005 0 0 0 0,0 v 900000 a 0.50005,0.50005 0 0 0 0,0 l 19030,95670 a 0.50005,0.50005 0 0 0 0,0 l 54190,81110 a 0.50005,0.50005 0 0 0 0,0 l 81110,54190 a 0.50005,0.50005 0 0 0 0,0 l 95670,19030 a 0.50005,0.50005 0 0 0 0,0 h 700000 a 0.50005,0.50005 0 0 0 0,0 l 95670,-19030 a 0.50005,0.50005 0 0 0 0,0 l 81110,-54190 a 0.50005,0.50005 0 0 0 0,0 l 54190,-81110 a 0.50005,0.50005 0 0 0 0,0 l 19030,-95670 a 0.50005,0.50005 0 0 0 0,0 v -900000 a 0.50005,0.50005 0 0 0 0,0 l -19030,-95670 a 0.50005,0.50005 0 0 0 0,0 l -54190,-81110 a 0.50005,0.50005 0 0 0 0,0 l -81110,-54190 a 0.50005,0.50005 0 0 0 0,0 l -95670,-19030 a 0.50005,0.50005 0 0 0 0,0 z m 0,0 h 700000 l 95670,19030 81110,54190 54190,81110 19030,95670 v 900000 l -19030,95670 -54190,81110 -81110,54190 -95670,19030 h -700000 l -95670,-19030 -81110,-54190 -54190,-81110 -19030,-95670 v -900000 l 19030,-95670 54190,-81110 81110,-54190 z"
         id="path8230" />
    </g>
  </g>
  <g
     id="g1247"
     style="fill:#000000;fill-opacity:1;stroke:none;stroke-width:100000;stroke-linecap:round;stroke-linejoin:round;stroke-opacity:1" />
  <g
     style="fill:#000000;stroke:none;stroke-linecap:round;stroke-linejoin:round;fill-opacity:1"
     id="g1261">
    <g
       id="path1249"
       style="fill:#000000;fill-opacity:1;stroke:none">
      <path
         style="color:#000000;fill-rule:evenodd;stroke:none;-inkscape-stroke:none;fill:#000000;fill-opacity:1"
         d="m 223414200,127165000 -11420,-57400 -32510,-48670 -48670,-32510 -57400,-11420 h -1025000 l -57400,11420 -48670,32510 -32510,48670 -11420,57400 v 300000 l 11420,57400 32510,48670 48670,32510 57400,11420 h 1025000 l 57400,-11420 48670,-32510 32510,-48670 11420,-57400 z"
         id="path8186" />
      <path
         style="color:#000000;fill-rule:evenodd;stroke:none;-inkscape-stroke:none;fill:#000000;fill-opacity:1"
         d="m 222239200,127015000 a 0.50005,0.50005 0 0 0 0,0 l -57400,11420 a 0.50005,0.50005 0 0 0 0,0 l -48670,32510 a 0.50005,0.50005 0 0 0 0,0 l -32510,48670 a 0.50005,0.50005 0 0 0 0,0 l -11420,57400 a 0.50005,0.50005 0 0 0 0,0 v 300000 a 0.50005,0.50005 0 0 0 0,0 l 11420,57400 a 0.50005,0.50005 0 0 0 0,0 l 32510,48670 a 0.50005,0.50005 0 0 0 0,0 l 48670,32510 a 0.50005,0.50005 0 0 0 0,0 l 57400,11420 a 0.50005,0.50005 0 0 0 0,0 h 1025000 a 0.50005,0.50005 0 0 0 0,0 l 57400,-11420 a 0.50005,0.50005 0 0 0 0,0 l 48670,-32510 a 0.50005,0.50005 0 0 0 0,0 l 32510,-48670 a 0.50005,0.50005 0 0 0 0,0 l 11420,-57400 a 0.50005,0.50005 0 0 0 0,0 v -300000 a 0.50005,0.50005 0 0 0 0,0 l -11420,-57400 a 0.50005,0.50005 0 0 0 0,0 l -32510,-48670 a 0.50005,0.50005 0 0 0 0,0 l -48670,-32510 a 0.50005,0.50005 0 0 0 0,0 l -57400,-11420 a 0.50005,0.50005 0 0 0 0,0 z m 0,0 h 1025000 l 57400,11420 48670,32510 32510,48670 11420,57400 v 300000 l -11420,57400 -32510,48670 -48670,32510 -57400,11420 h -1025000 l -57400,-11420 -48670,-32510 -32510,-48670 -11420,-57400 v -300000 l 11420,-57400 32510,-48670 48670,-32510 z"
         id="path8188" />
    </g>
    <g
       id="path1251"
       style="fill:#000000;fill-opacity:1;stroke:none">
      <path
         style="color:#000000;fill-rule:evenodd;stroke:none;-inkscape-stroke:none;fill:#000000;fill-opacity:1"
         d="m 223414200,126215000 -11420,-57400 -32510,-48670 -48670,-32510 -57400,-11420 h -1025000 l -57400,11420 -48670,32510 -32510,48670 -11420,57400 v 300000 l 11420,57400 32510,48670 48670,32510 57400,11420 h 1025000 l 57400,-11420 48670,-32510 32510,-48670 11420,-57400 z"
         id="path8192" />
      <path
         style="color:#000000;fill-rule:evenodd;stroke:none;-inkscape-stroke:none;fill:#000000;fill-opacity:1"
         d="m 222239200,126065000 a 0.50005,0.50005 0 0 0 0,0 l -57400,11420 a 0.50005,0.50005 0 0 0 0,0 l -48670,32510 a 0.50005,0.50005 0 0 0 0,0 l -32510,48670 a 0.50005,0.50005 0 0 0 0,0 l -11420,57400 a 0.50005,0.50005 0 0 0 0,0 v 300000 a 0.50005,0.50005 0 0 0 0,0 l 11420,57400 a 0.50005,0.50005 0 0 0 0,0 l 32510,48670 a 0.50005,0.50005 0 0 0 0,0 l 48670,32510 a 0.50005,0.50005 0 0 0 0,0 l 57400,11420 a 0.50005,0.50005 0 0 0 0,0 h 1025000 a 0.50005,0.50005 0 0 0 0,0 l 57400,-11420 a 0.50005,0.50005 0 0 0 0,0 l 48670,-32510 a 0.50005,0.50005 0 0 0 0,0 l 32510,-48670 a 0.50005,0.50005 0 0 0 0,0 l 11420,-57400 a 0.50005,0.50005 0 0 0 0,0 v -300000 a 0.50005,0.50005 0 0 0 0,0 l -11420,-57400 a 0.50005,0.50005 0 0 0 0,0 l -32510,-48670 a 0.50005,0.50005 0 0 0 0,0 l -48670,-32510 a 0.50005,0.50005 0 0 0 0,0 l -57400,-11420 a 0.50005,0.50005 0 0 0 0,0 z m 0,0 h 1025000 l 57400,11420 48670,32510 32510,48670 11420,57400 v 300000 l -11420,57400 -32510,48670 -48670,32510 -57400,11420 h -1025000 l -57400,-11420 -48670,-32510 -32510,-48670 -11420,-57400 v -300000 l 11420,-57400 32510,-48670 48670,-32510 z"
         id="path8194" />
    </g>
    <g
       id="path1253"
       style="fill:#000000;fill-opacity:1;stroke:none">
      <path
         style="color:#000000;fill-rule:evenodd;stroke:none;-inkscape-stroke:none;fill:#000000;fill-opacity:1"
         d="m 223414200,125265000 -11420,-57400 -32510,-48670 -48670,-32510 -57400,-11420 h -1025000 l -57400,11420 -48670,32510 -32510,48670 -11420,57400 v 300000 l 11420,57400 32510,48670 48670,32510 57400,11420 h 1025000 l 57400,-11420 48670,-32510 32510,-48670 11420,-57400 z"
         id="path8198" />
      <path
         style="color:#000000;fill-rule:evenodd;stroke:none;-inkscape-stroke:none;fill:#000000;fill-opacity:1"
         d="m 222239200,125115000 a 0.50005,0.50005 0 0 0 0,0 l -57400,11420 a 0.50005,0.50005 0 0 0 0,0 l -48670,32510 a 0.50005,0.50005 0 0 0 0,0 l -32510,48670 a 0.50005,0.50005 0 0 0 0,0 l -11420,57400 a 0.50005,0.50005 0 0 0 0,0 v 300000 a 0.50005,0.50005 0 0 0 0,0 l 11420,57400 a 0.50005,0.50005 0 0 0 0,0 l 32510,48670 a 0.50005,0.50005 0 0 0 0,0 l 48670,32510 a 0.50005,0.50005 0 0 0 0,0 l 57400,11420 a 0.50005,0.50005 0 0 0 0,0 h 1025000 a 0.50005,0.50005 0 0 0 0,0 l 57400,-11420 a 0.50005,0.50005 0 0 0 0,0 l 48670,-32510 a 0.50005,0.50005 0 0 0 0,0 l 32510,-48670 a 0.50005,0.50005 0 0 0 0,0 l 11420,-57400 a 0.50005,0.50005 0 0 0 0,0 v -300000 a 0.50005,0.50005 0 0 0 0,0 l -11420,-57400 a 0.50005,0.50005 0 0 0 0,0 l -32510,-48670 a 0.50005,0.50005 0 0 0 0,0 l -48670,-32510 a 0.50005,0.50005 0 0 0 0,0 l -57400,-11420 a 0.50005,0.50005 0 0 0 0,0 z m 0,0 h 1025000 l 57400,11420 48670,32510 32510,48670 11420,57400 v 300000 l -11420,57400 -32510,48670 -48670,32510 -57400,11420 h -1025000 l -57400,-11420 -48670,-32510 -32510,-48670 -11420,-57400 v -300000 l 11420,-57400 32510,-48670 48670,-32510 z"
         id="path8200" />
    </g>
    <g
       id="path1255"
       style="fill:#000000;fill-opacity:1;stroke:none">
      <path
         style="color:#000000;fill-rule:evenodd;stroke:none;-inkscape-stroke:none;fill:#000000;fill-opacity:1"
         d="m 221139200,125265000 -11420,-57400 -32510,-48670 -48670,-32510 -57400,-11420 h -1025000 l -57400,11420 -48670,32510 -32510,48670 -11420,57400 v 300000 l 11420,57400 32510,48670 48670,32510 57400,11420 h 1025000 l 57400,-11420 48670,-32510 32510,-48670 11420,-57400 z"
         id="path8204" />
      <path
         style="color:#000000;fill-rule:evenodd;stroke:none;-inkscape-stroke:none;fill:#000000;fill-opacity:1"
         d="m 219964200,125115000 a 0.50005,0.50005 0 0 0 0,0 l -57400,11420 a 0.50005,0.50005 0 0 0 0,0 l -48670,32510 a 0.50005,0.50005 0 0 0 0,0 l -32510,48670 a 0.50005,0.50005 0 0 0 0,0 l -11420,57400 a 0.50005,0.50005 0 0 0 0,0 v 300000 a 0.50005,0.50005 0 0 0 0,0 l 11420,57400 a 0.50005,0.50005 0 0 0 0,0 l 32510,48670 a 0.50005,0.50005 0 0 0 0,0 l 48670,32510 a 0.50005,0.50005 0 0 0 0,0 l 57400,11420 a 0.50005,0.50005 0 0 0 0,0 h 1025000 a 0.50005,0.50005 0 0 0 0,0 l 57400,-11420 a 0.50005,0.50005 0 0 0 0,0 l 48670,-32510 a 0.50005,0.50005 0 0 0 0,0 l 32510,-48670 a 0.50005,0.50005 0 0 0 0,0 l 11420,-57400 a 0.50005,0.50005 0 0 0 0,0 v -300000 a 0.50005,0.50005 0 0 0 0,0 l -11420,-57400 a 0.50005,0.50005 0 0 0 0,0 l -32510,-48670 a 0.50005,0.50005 0 0 0 0,0 l -48670,-32510 a 0.50005,0.50005 0 0 0 0,0 l -57400,-11420 a 0.50005,0.50005 0 0 0 0,0 z m 0,0 h 1025000 l 57400,11420 48670,32510 32510,48670 11420,57400 v 300000 l -11420,57400 -32510,48670 -48670,32510 -57400,11420 h -1025000 l -57400,-11420 -48670,-32510 -32510,-48670 -11420,-57400 v -300000 l 11420,-57400 32510,-48670 48670,-32510 z"
         id="path8206" />
    </g>
    <g
       id="path1257"
       style="fill:#000000;fill-opacity:1;stroke:none">
      <path
         style="color:#000000;fill-rule:evenodd;stroke:none;-inkscape-stroke:none;fill:#000000;fill-opacity:1"
         d="m 221139200,126215000 -11420,-57400 -32510,-48670 -48670,-32510 -57400,-11420 h -1025000 l -57400,11420 -48670,32510 -32510,48670 -11420,57400 v 300000 l 11420,57400 32510,48670 48670,32510 57400,11420 h 1025000 l 57400,-11420 48670,-32510 32510,-48670 11420,-57400 z"
         id="path8210" />
      <path
         style="color:#000000;fill-rule:evenodd;stroke:none;-inkscape-stroke:none;fill:#000000;fill-opacity:1"
         d="m 219964200,126065000 a 0.50005,0.50005 0 0 0 0,0 l -57400,11420 a 0.50005,0.50005 0 0 0 0,0 l -48670,32510 a 0.50005,0.50005 0 0 0 0,0 l -32510,48670 a 0.50005,0.50005 0 0 0 0,0 l -11420,57400 a 0.50005,0.50005 0 0 0 0,0 v 300000 a 0.50005,0.50005 0 0 0 0,0 l 11420,57400 a 0.50005,0.50005 0 0 0 0,0 l 32510,48670 a 0.50005,0.50005 0 0 0 0,0 l 48670,32510 a 0.50005,0.50005 0 0 0 0,0 l 57400,11420 a 0.50005,0.50005 0 0 0 0,0 h 1025000 a 0.50005,0.50005 0 0 0 0,0 l 57400,-11420 a 0.50005,0.50005 0 0 0 0,0 l 48670,-32510 a 0.50005,0.50005 0 0 0 0,0 l 32510,-48670 a 0.50005,0.50005 0 0 0 0,0 l 11420,-57400 a 0.50005,0.50005 0 0 0 0,0 v -300000 a 0.50005,0.50005 0 0 0 0,0 l -11420,-57400 a 0.50005,0.50005 0 0 0 0,0 l -32510,-48670 a 0.50005,0.50005 0 0 0 0,0 l -48670,-32510 a 0.50005,0.50005 0 0 0 0,0 l -57400,-11420 a 0.50005,0.50005 0 0 0 0,0 z m 0,0 h 1025000 l 57400,11420 48670,32510 32510,48670 11420,57400 v 300000 l -11420,57400 -32510,48670 -48670,32510 -57400,11420 h -1025000 l -57400,-11420 -48670,-32510 -32510,-48670 -11420,-57400 v -300000 l 11420,-57400 32510,-48670 48670,-32510 z"
         id="path8212" />
    </g>
    <g
       id="path1259"
       style="fill:#000000;fill-opacity:1;stroke:none">
      <path
         style="color:#000000;fill-rule:evenodd;stroke:none;-inkscape-stroke:none;fill:#000000;fill-opacity:1"
         d="m 221139200,127165000 -11420,-57400 -32510,-48670 -48670,-32510 -57400,-11420 h -1025000 l -57400,11420 -48670,32510 -32510,48670 -11420,57400 v 300000 l 11420,57400 32510,48670 48670,32510 57400,11420 h 1025000 l 57400,-11420 48670,-32510 32510,-48670 11420,-57400 z"
         id="path8216" />
      <path
         style="color:#000000;fill-rule:evenodd;stroke:none;-inkscape-stroke:none;fill:#000000;fill-opacity:1"
         d="m 219964200,127015000 a 0.50005,0.50005 0 0 0 0,0 l -57400,11420 a 0.50005,0.50005 0 0 0 0,0 l -48670,32510 a 0.50005,0.50005 0 0 0 0,0 l -32510,48670 a 0.50005,0.50005 0 0 0 0,0 l -11420,57400 a 0.50005,0.50005 0 0 0 0,0 v 300000 a 0.50005,0.50005 0 0 0 0,0 l 11420,57400 a 0.50005,0.50005 0 0 0 0,0 l 32510,48670 a 0.50005,0.50005 0 0 0 0,0 l 48670,32510 a 0.50005,0.50005 0 0 0 0,0 l 57400,11420 a 0.50005,0.50005 0 0 0 0,0 h 1025000 a 0.50005,0.50005 0 0 0 0,0 l 57400,-11420 a 0.50005,0.50005 0 0 0 0,0 l 48670,-32510 a 0.50005,0.50005 0 0 0 0,0 l 32510,-48670 a 0.50005,0.50005 0 0 0 0,0 l 11420,-57400 a 0.50005,0.50005 0 0 0 0,0 v -300000 a 0.50005,0.50005 0 0 0 0,0 l -11420,-57400 a 0.50005,0.50005 0 0 0 0,0 l -32510,-48670 a 0.50005,0.50005 0 0 0 0,0 l -48670,-32510 a 0.50005,0.50005 0 0 0 0,0 l -57400,-11420 a 0.50005,0.50005 0 0 0 0,0 z m 0,0 h 1025000 l 57400,11420 48670,32510 32510,48670 11420,57400 v 300000 l -11420,57400 -32510,48670 -48670,32510 -57400,11420 h -1025000 l -57400,-11420 -48670,-32510 -32510,-48670 -11420,-57400 v -300000 l 11420,-57400 32510,-48670 48670,-32510 z"
         id="path8218" />
    </g>
  </g>
  <g
     id="g1263"
     style="fill:#000000;fill-opacity:1;stroke:none;stroke-width:100000;stroke-linecap:round;stroke-linejoin:round;stroke-opacity:1" />
  <g
     style="fill:#000000;stroke:none;stroke-linecap:round;stroke-linejoin:round;fill-opacity:1"
     id="g1269">
    <g
       id="path1265"
       style="fill:#000000;fill-opacity:1;stroke:none">
      <path
         style="color:#000000;fill-rule:evenodd;stroke:none;-inkscape-stroke:none;fill:#000000;fill-opacity:1"
         d="m 216965200,129065000 v -5400000 h -2900000 v 5400000 z"
         id="path8174" />
      <path
         style="color:#000000;fill-rule:evenodd;stroke:none;-inkscape-stroke:none;fill:#000000;fill-opacity:1"
         d="m 214065200,123665000 a 0.50005,0.50005 0 0 0 0,0 v 5400000 a 0.50005,0.50005 0 0 0 0,0 h 2900000 a 0.50005,0.50005 0 0 0 0,0 v -5400000 a 0.50005,0.50005 0 0 0 0,0 z m 0,0 h 2900000 v 5400000 h -2900000 z"
         id="path8176" />
    </g>
    <g
       id="path1267"
       style="fill:#000000;fill-opacity:1;stroke:none">
      <path
         style="color:#000000;fill-rule:evenodd;stroke:none;-inkscape-stroke:none;fill:#000000;fill-opacity:1"
         d="m 207065200,129065000 v -5400000 h -2900000 v 5400000 z"
         id="path8180" />
      <path
         style="color:#000000;fill-rule:evenodd;stroke:none;-inkscape-stroke:none;fill:#000000;fill-opacity:1"
         d="m 204165200,123665000 a 0.50005,0.50005 0 0 0 0,0 v 5400000 a 0.50005,0.50005 0 0 0 0,0 h 2900000 a 0.50005,0.50005 0 0 0 0,0 v -5400000 a 0.50005,0.50005 0 0 0 0,0 z m 0,0 h 2900000 v 5400000 h -2900000 z"
         id="path8182" />
    </g>
  </g>
  <g
     id="g1271"
     style="fill:#000000;fill-opacity:1;stroke:none;stroke-width:100000;stroke-linecap:round;stroke-linejoin:round;stroke-opacity:1" />
  <g
     id="g1273"
     style="fill:#000000;fill-opacity:1;stroke:none;stroke-width:100000;stroke-linecap:round;stroke-linejoin:round;stroke-opacity:1" />
  <g
     style="fill:#000000;stroke:none;stroke-linecap:round;stroke-linejoin:round;fill-opacity:1"
     id="g1279">
    <g
       id="path1275"
       style="fill:#000000;fill-opacity:1;stroke:none">
      <path
         style="color:#000000;fill-rule:evenodd;stroke:none;-inkscape-stroke:none;fill:#000000;fill-opacity:1"
         d="m 223839200,116190000 -19030,-95670 -54190,-81110 -81110,-54190 -95670,-19030 h -825000 l -95670,19030 -81110,54190 -54190,81110 -19030,95670 v 1300000 l 19030,95670 54190,81110 81110,54190 95670,19030 h 825000 l 95670,-19030 81110,-54190 54190,-81110 19030,-95670 z"
         id="path8162" />
      <path
         style="color:#000000;fill-rule:evenodd;stroke:none;-inkscape-stroke:none;fill:#000000;fill-opacity:1"
         d="m 222764200,115940000 a 0.50005,0.50005 0 0 0 0,0 l -95670,19030 a 0.50005,0.50005 0 0 0 0,0 l -81110,54190 a 0.50005,0.50005 0 0 0 0,0 l -54190,81110 a 0.50005,0.50005 0 0 0 0,0 l -19030,95670 a 0.50005,0.50005 0 0 0 0,0 v 1300000 a 0.50005,0.50005 0 0 0 0,0 l 19030,95670 a 0.50005,0.50005 0 0 0 0,0 l 54190,81110 a 0.50005,0.50005 0 0 0 0,0 l 81110,54190 a 0.50005,0.50005 0 0 0 0,0 l 95670,19030 a 0.50005,0.50005 0 0 0 0,0 h 825000 a 0.50005,0.50005 0 0 0 0,0 l 95670,-19030 a 0.50005,0.50005 0 0 0 0,0 l 81110,-54190 a 0.50005,0.50005 0 0 0 0,0 l 54190,-81110 a 0.50005,0.50005 0 0 0 0,0 l 19030,-95670 a 0.50005,0.50005 0 0 0 0,0 v -1300000 a 0.50005,0.50005 0 0 0 0,0 l -19030,-95670 a 0.50005,0.50005 0 0 0 0,0 l -54190,-81110 a 0.50005,0.50005 0 0 0 0,0 l -81110,-54190 a 0.50005,0.50005 0 0 0 0,0 l -95670,-19030 a 0.50005,0.50005 0 0 0 0,0 z m 0,0 h 825000 l 95670,19030 81110,54190 54190,81110 19030,95670 v 1300000 l -19030,95670 -54190,81110 -81110,54190 -95670,19030 h -825000 l -95670,-19030 -81110,-54190 -54190,-81110 -19030,-95670 v -1300000 l 19030,-95670 54190,-81110 81110,-54190 z"
         id="path8164" />
    </g>
    <g
       id="path1277"
       style="fill:#000000;fill-opacity:1;stroke:none">
      <path
         style="color:#000000;fill-rule:evenodd;stroke:none;-inkscape-stroke:none;fill:#000000;fill-opacity:1"
         d="m 220714200,116190000 -19030,-95670 -54190,-81110 -81110,-54190 -95670,-19030 h -825000 l -95670,19030 -81110,54190 -54190,81110 -19030,95670 v 1300000 l 19030,95670 54190,81110 81110,54190 95670,19030 h 825000 l 95670,-19030 81110,-54190 54190,-81110 19030,-95670 z"
         id="path8168" />
      <path
         style="color:#000000;fill-rule:evenodd;stroke:none;-inkscape-stroke:none;fill:#000000;fill-opacity:1"
         d="m 219639200,115940000 a 0.50005,0.50005 0 0 0 0,0 l -95670,19030 a 0.50005,0.50005 0 0 0 0,0 l -81110,54190 a 0.50005,0.50005 0 0 0 0,0 l -54190,81110 a 0.50005,0.50005 0 0 0 0,0 l -19030,95670 a 0.50005,0.50005 0 0 0 0,0 v 1300000 a 0.50005,0.50005 0 0 0 0,0 l 19030,95670 a 0.50005,0.50005 0 0 0 0,0 l 54190,81110 a 0.50005,0.50005 0 0 0 0,0 l 81110,54190 a 0.50005,0.50005 0 0 0 0,0 l 95670,19030 a 0.50005,0.50005 0 0 0 0,0 h 825000 a 0.50005,0.50005 0 0 0 0,0 l 95670,-19030 a 0.50005,0.50005 0 0 0 0,0 l 81110,-54190 a 0.50005,0.50005 0 0 0 0,0 l 54190,-81110 a 0.50005,0.50005 0 0 0 0,0 l 19030,-95670 a 0.50005,0.50005 0 0 0 0,0 v -1300000 a 0.50005,0.50005 0 0 0 0,0 l -19030,-95670 a 0.50005,0.50005 0 0 0 0,0 l -54190,-81110 a 0.50005,0.50005 0 0 0 0,0 l -81110,-54190 a 0.50005,0.50005 0 0 0 0,0 l -95670,-19030 a 0.50005,0.50005 0 0 0 0,0 z m 0,0 h 825000 l 95670,19030 81110,54190 54190,81110 19030,95670 v 1300000 l -19030,95670 -54190,81110 -81110,54190 -95670,19030 h -825000 l -95670,-19030 -81110,-54190 -54190,-81110 -19030,-95670 v -1300000 l 19030,-95670 54190,-81110 81110,-54190 z"
         id="path8170" />
    </g>
  </g>
  <g
     id="g1281"
     style="fill:#000000;fill-opacity:1;stroke:none;stroke-width:100000;stroke-linecap:round;stroke-linejoin:round;stroke-opacity:1" />
  <g
     style="fill:#000000;stroke:none;stroke-linecap:round;stroke-linejoin:round;fill-opacity:1"
     id="g1287">
    <g
       id="path1283"
       style="fill:#000000;fill-opacity:1;stroke:none">
      <path
         style="color:#000000;fill-rule:evenodd;stroke:none;-inkscape-stroke:none;fill:#000000;fill-opacity:1"
         d="m 202071200,129987000 95670,-19030 81110,-54190 54190,-81110 19030,-95670 v -825000 l -19030,-95670 -54190,-81110 -81110,-54190 -95670,-19030 h -1300000 l -95670,19030 -81110,54190 -54190,81110 -19030,95670 v 825000 l 19030,95670 54190,81110 81110,54190 95670,19030 z"
         id="path8150" />
      <path
         style="color:#000000;fill-rule:evenodd;stroke:none;-inkscape-stroke:none;fill:#000000;fill-opacity:1"
         d="m 200771200,128662000 a 0.50005,0.50005 0 0 0 0,0 l -95670,19030 a 0.50005,0.50005 0 0 0 0,0 l -81110,54190 a 0.50005,0.50005 0 0 0 0,0 l -54190,81110 a 0.50005,0.50005 0 0 0 0,0 l -19030,95670 a 0.50005,0.50005 0 0 0 0,0 v 825000 a 0.50005,0.50005 0 0 0 0,0 l 19030,95670 a 0.50005,0.50005 0 0 0 0,0 l 54190,81110 a 0.50005,0.50005 0 0 0 0,0 l 81110,54190 a 0.50005,0.50005 0 0 0 0,0 l 95670,19030 a 0.50005,0.50005 0 0 0 0,0 h 1300000 a 0.50005,0.50005 0 0 0 0,0 l 95670,-19030 a 0.50005,0.50005 0 0 0 0,0 l 81110,-54190 a 0.50005,0.50005 0 0 0 0,0 l 54190,-81110 a 0.50005,0.50005 0 0 0 0,0 l 19030,-95670 a 0.50005,0.50005 0 0 0 0,0 v -825000 a 0.50005,0.50005 0 0 0 0,0 l -19030,-95670 a 0.50005,0.50005 0 0 0 0,0 l -54190,-81110 a 0.50005,0.50005 0 0 0 0,0 l -81110,-54190 a 0.50005,0.50005 0 0 0 0,0 l -95670,-19030 a 0.50005,0.50005 0 0 0 0,0 z m 0,0 h 1300000 l 95670,19030 81110,54190 54190,81110 19030,95670 v 825000 l -19030,95670 -54190,81110 -81110,54190 -95670,19030 h -1300000 l -95670,-19030 -81110,-54190 -54190,-81110 -19030,-95670 v -825000 l 19030,-95670 54190,-81110 81110,-54190 z"
         id="path8152" />
    </g>
    <g
       id="path1285"
       style="fill:#000000;fill-opacity:1;stroke:none">
      <path
         style="color:#000000;fill-rule:evenodd;stroke:none;-inkscape-stroke:none;fill:#000000;fill-opacity:1"
         d="m 202071200,126862000 95670,-19030 81110,-54190 54190,-81110 19030,-95670 v -825000 l -19030,-95670 -54190,-81110 -81110,-54190 -95670,-19030 h -1300000 l -95670,19030 -81110,54190 -54190,81110 -19030,95670 v 825000 l 19030,95670 54190,81110 81110,54190 95670,19030 z"
         id="path8156" />
      <path
         style="color:#000000;fill-rule:evenodd;stroke:none;-inkscape-stroke:none;fill:#000000;fill-opacity:1"
         d="m 200771200,125537000 a 0.50005,0.50005 0 0 0 0,0 l -95670,19030 a 0.50005,0.50005 0 0 0 0,0 l -81110,54190 a 0.50005,0.50005 0 0 0 0,0 l -54190,81110 a 0.50005,0.50005 0 0 0 0,0 l -19030,95670 a 0.50005,0.50005 0 0 0 0,0 v 825000 a 0.50005,0.50005 0 0 0 0,0 l 19030,95670 a 0.50005,0.50005 0 0 0 0,0 l 54190,81110 a 0.50005,0.50005 0 0 0 0,0 l 81110,54190 a 0.50005,0.50005 0 0 0 0,0 l 95670,19030 a 0.50005,0.50005 0 0 0 0,0 h 1300000 a 0.50005,0.50005 0 0 0 0,0 l 95670,-19030 a 0.50005,0.50005 0 0 0 0,0 l 81110,-54190 a 0.50005,0.50005 0 0 0 0,0 l 54190,-81110 a 0.50005,0.50005 0 0 0 0,0 l 19030,-95670 a 0.50005,0.50005 0 0 0 0,0 v -825000 a 0.50005,0.50005 0 0 0 0,0 l -19030,-95670 a 0.50005,0.50005 0 0 0 0,0 l -54190,-81110 a 0.50005,0.50005 0 0 0 0,0 l -81110,-54190 a 0.50005,0.50005 0 0 0 0,0 l -95670,-19030 a 0.50005,0.50005 0 0 0 0,0 z m 0,0 h 1300000 l 95670,19030 81110,54190 54190,81110 19030,95670 v 825000 l -19030,95670 -54190,81110 -81110,54190 -95670,19030 h -1300000 l -95670,-19030 -81110,-54190 -54190,-81110 -19030,-95670 v -825000 l 19030,-95670 54190,-81110 81110,-54190 z"
         id="path8158" />
    </g>
  </g>
  <g
     id="g1289"
     style="fill:#000000;fill-opacity:1;stroke:none;stroke-width:100000;stroke-linecap:round;stroke-linejoin:round;stroke-opacity:1" />
  <g
     id="g1291"
     style="fill:#000000;fill-opacity:1;stroke:none;stroke-width:100000;stroke-linecap:round;stroke-linejoin:round;stroke-opacity:1" />
  <g
     id="g1293"
     style="fill:#000000;fill-opacity:1;stroke:none;stroke-width:100000;stroke-linecap:round;stroke-linejoin:round;stroke-opacity:1" />
  <g
     style="fill:#000000;stroke:none;stroke-linecap:round;stroke-linejoin:round;fill-opacity:1"
     id="g1299">
    <g
       id="path1295"
       style="fill:#000000;fill-opacity:1;stroke:none">
      <path
         style="color:#000000;fill-rule:evenodd;stroke:none;-inkscape-stroke:none;fill:#000000;fill-opacity:1"
         d="m 223839200,119365000 -19030,-95670 -54190,-81110 -81110,-54190 -95670,-19030 h -825000 l -95670,19030 -81110,54190 -54190,81110 -19030,95670 v 1300000 l 19030,95670 54190,81110 81110,54190 95670,19030 h 825000 l 95670,-19030 81110,-54190 54190,-81110 19030,-95670 z"
         id="path8138" />
      <path
         style="color:#000000;fill-rule:evenodd;stroke:none;-inkscape-stroke:none;fill:#000000;fill-opacity:1"
         d="m 222764200,119115000 a 0.50005,0.50005 0 0 0 0,0 l -95670,19030 a 0.50005,0.50005 0 0 0 0,0 l -81110,54190 a 0.50005,0.50005 0 0 0 0,0 l -54190,81110 a 0.50005,0.50005 0 0 0 0,0 l -19030,95670 a 0.50005,0.50005 0 0 0 0,0 v 1300000 a 0.50005,0.50005 0 0 0 0,0 l 19030,95670 a 0.50005,0.50005 0 0 0 0,0 l 54190,81110 a 0.50005,0.50005 0 0 0 0,0 l 81110,54190 a 0.50005,0.50005 0 0 0 0,0 l 95670,19030 a 0.50005,0.50005 0 0 0 0,0 h 825000 a 0.50005,0.50005 0 0 0 0,0 l 95670,-19030 a 0.50005,0.50005 0 0 0 0,0 l 81110,-54190 a 0.50005,0.50005 0 0 0 0,0 l 54190,-81110 a 0.50005,0.50005 0 0 0 0,0 l 19030,-95670 a 0.50005,0.50005 0 0 0 0,0 v -1300000 a 0.50005,0.50005 0 0 0 0,0 l -19030,-95670 a 0.50005,0.50005 0 0 0 0,0 l -54190,-81110 a 0.50005,0.50005 0 0 0 0,0 l -81110,-54190 a 0.50005,0.50005 0 0 0 0,0 l -95670,-19030 a 0.50005,0.50005 0 0 0 0,0 z m 0,0 h 825000 l 95670,19030 81110,54190 54190,81110 19030,95670 v 1300000 l -19030,95670 -54190,81110 -81110,54190 -95670,19030 h -825000 l -95670,-19030 -81110,-54190 -54190,-81110 -19030,-95670 v -1300000 l 19030,-95670 54190,-81110 81110,-54190 z"
         id="path8140" />
    </g>
    <g
       id="path1297"
       style="fill:#000000;fill-opacity:1;stroke:none">
      <path
         style="color:#000000;fill-rule:evenodd;stroke:none;-inkscape-stroke:none;fill:#000000;fill-opacity:1"
         d="m 220714200,119365000 -19030,-95670 -54190,-81110 -81110,-54190 -95670,-19030 h -825000 l -95670,19030 -81110,54190 -54190,81110 -19030,95670 v 1300000 l 19030,95670 54190,81110 81110,54190 95670,19030 h 825000 l 95670,-19030 81110,-54190 54190,-81110 19030,-95670 z"
         id="path8144" />
      <path
         style="color:#000000;fill-rule:evenodd;stroke:none;-inkscape-stroke:none;fill:#000000;fill-opacity:1"
         d="m 219639200,119115000 a 0.50005,0.50005 0 0 0 0,0 l -95670,19030 a 0.50005,0.50005 0 0 0 0,0 l -81110,54190 a 0.50005,0.50005 0 0 0 0,0 l -54190,81110 a 0.50005,0.50005 0 0 0 0,0 l -19030,95670 a 0.50005,0.50005 0 0 0 0,0 v 1300000 a 0.50005,0.50005 0 0 0 0,0 l 19030,95670 a 0.50005,0.50005 0 0 0 0,0 l 54190,81110 a 0.50005,0.50005 0 0 0 0,0 l 81110,54190 a 0.50005,0.50005 0 0 0 0,0 l 95670,19030 a 0.50005,0.50005 0 0 0 0,0 h 825000 a 0.50005,0.50005 0 0 0 0,0 l 95670,-19030 a 0.50005,0.50005 0 0 0 0,0 l 81110,-54190 a 0.50005,0.50005 0 0 0 0,0 l 54190,-81110 a 0.50005,0.50005 0 0 0 0,0 l 19030,-95670 a 0.50005,0.50005 0 0 0 0,0 v -1300000 a 0.50005,0.50005 0 0 0 0,0 l -19030,-95670 a 0.50005,0.50005 0 0 0 0,0 l -54190,-81110 a 0.50005,0.50005 0 0 0 0,0 l -81110,-54190 a 0.50005,0.50005 0 0 0 0,0 l -95670,-19030 a 0.50005,0.50005 0 0 0 0,0 z m 0,0 h 825000 l 95670,19030 81110,54190 54190,81110 19030,95670 v 1300000 l -19030,95670 -54190,81110 -81110,54190 -95670,19030 h -825000 l -95670,-19030 -81110,-54190 -54190,-81110 -19030,-95670 v -1300000 l 19030,-95670 54190,-81110 81110,-54190 z"
         id="path8146" />
    </g>
  </g>
  <g
     id="g1301"
     style="fill:#000000;fill-opacity:1;stroke:none;stroke-width:100000;stroke-linecap:round;stroke-linejoin:round;stroke-opacity:1" />
  <g
     style="fill:#000000;stroke:none;stroke-linecap:round;stroke-linejoin:round;fill-opacity:1"
     id="g1315">
    <g
       id="path1303"
       style="fill:#000000;fill-opacity:1;stroke:none">
      <path
         style="color:#000000;fill-rule:evenodd;stroke:none;-inkscape-stroke:none;fill:#000000;fill-opacity:1"
         d="m 161052200,82470000 h -1020000 v 1780000 h 1020000 z"
         id="path8102" />
      <path
         style="color:#000000;fill-rule:evenodd;stroke:none;-inkscape-stroke:none;fill:#000000;fill-opacity:1"
         d="m 160032200,82470000 a 0.50005,0.50005 0 0 0 0,0 v 1780000 a 0.50005,0.50005 0 0 0 0,1 h 1020000 a 0.50005,0.50005 0 0 0 0,-1 v -1780000 a 0.50005,0.50005 0 0 0 0,0 z m 0,1 h 1020000 v 1779999 h -1020000 z"
         id="path8104" />
    </g>
    <g
       id="path1305"
       style="fill:#000000;fill-opacity:1;stroke:none">
      <path
         style="color:#000000;fill-rule:evenodd;stroke:none;-inkscape-stroke:none;fill:#000000;fill-opacity:1"
         d="m 158512200,82470000 h -1020000 v 1780000 h 1020000 z"
         id="path8108" />
      <path
         style="color:#000000;fill-rule:evenodd;stroke:none;-inkscape-stroke:none;fill:#000000;fill-opacity:1"
         d="m 157492200,82470000 a 0.50005,0.50005 0 0 0 0,0 v 1780000 a 0.50005,0.50005 0 0 0 0,1 h 1020000 a 0.50005,0.50005 0 0 0 0,-1 v -1780000 a 0.50005,0.50005 0 0 0 0,0 z m 0,1 h 1020000 v 1779999 h -1020000 z"
         id="path8110" />
    </g>
    <g
       id="path1307"
       style="fill:#000000;fill-opacity:1;stroke:none">
      <path
         style="color:#000000;fill-rule:evenodd;stroke:none;-inkscape-stroke:none;fill:#000000;fill-opacity:1"
         d="m 155972200,82470000 h -1020000 v 1780000 h 1020000 z"
         id="path8114" />
      <path
         style="color:#000000;fill-rule:evenodd;stroke:none;-inkscape-stroke:none;fill:#000000;fill-opacity:1"
         d="m 154952200,82470000 a 0.50005,0.50005 0 0 0 0,0 v 1780000 a 0.50005,0.50005 0 0 0 0,1 h 1020000 a 0.50005,0.50005 0 0 0 0,-1 v -1780000 a 0.50005,0.50005 0 0 0 0,0 z m 0,1 h 1020000 v 1779999 h -1020000 z"
         id="path8116" />
    </g>
    <g
       id="path1309"
       style="fill:#000000;fill-opacity:1;stroke:none">
      <path
         style="color:#000000;fill-rule:evenodd;stroke:none;-inkscape-stroke:none;fill:#000000;fill-opacity:1"
         d="m 161052200,88290000 h -1020000 v 1780000 h 1020000 z"
         id="path8120" />
      <path
         style="color:#000000;fill-rule:evenodd;stroke:none;-inkscape-stroke:none;fill:#000000;fill-opacity:1"
         d="m 160032200,88290000 a 0.50005,0.50005 0 0 0 0,0 v 1780000 a 0.50005,0.50005 0 0 0 0,1 h 1020000 a 0.50005,0.50005 0 0 0 0,-1 v -1780000 a 0.50005,0.50005 0 0 0 0,0 z m 0,1 h 1020000 v 1779999 h -1020000 z"
         id="path8122" />
    </g>
    <g
       id="path1311"
       style="fill:#000000;fill-opacity:1;stroke:none">
      <path
         style="color:#000000;fill-rule:evenodd;stroke:none;-inkscape-stroke:none;fill:#000000;fill-opacity:1"
         d="m 158512200,88290000 h -1020000 v 1780000 h 1020000 z"
         id="path8126" />
      <path
         style="color:#000000;fill-rule:evenodd;stroke:none;-inkscape-stroke:none;fill:#000000;fill-opacity:1"
         d="m 157492200,88290000 a 0.50005,0.50005 0 0 0 0,0 v 1780000 a 0.50005,0.50005 0 0 0 0,1 h 1020000 a 0.50005,0.50005 0 0 0 0,-1 v -1780000 a 0.50005,0.50005 0 0 0 0,0 z m 0,1 h 1020000 v 1779999 h -1020000 z"
         id="path8128" />
    </g>
    <g
       id="path1313"
       style="fill:#000000;fill-opacity:1;stroke:none">
      <path
         style="color:#000000;fill-rule:evenodd;stroke:none;-inkscape-stroke:none;fill:#000000;fill-opacity:1"
         d="m 155972200,88290000 h -1020000 v 1780000 h 1020000 z"
         id="path8132" />
      <path
         style="color:#000000;fill-rule:evenodd;stroke:none;-inkscape-stroke:none;fill:#000000;fill-opacity:1"
         d="m 154952200,88290000 a 0.50005,0.50005 0 0 0 0,0 v 1780000 a 0.50005,0.50005 0 0 0 0,1 h 1020000 a 0.50005,0.50005 0 0 0 0,-1 v -1780000 a 0.50005,0.50005 0 0 0 0,0 z m 0,1 h 1020000 v 1779999 h -1020000 z"
         id="path8134" />
    </g>
  </g>
  <g
     id="g1317"
     style="fill:#000000;fill-opacity:1;stroke:none;stroke-width:100000;stroke-linecap:round;stroke-linejoin:round;stroke-opacity:1" />
  <g
     id="g1319"
     style="fill:#000000;fill-opacity:1;stroke:none;stroke-width:100000;stroke-linecap:round;stroke-linejoin:round;stroke-opacity:1" />
  <g
     style="fill:#000000;stroke:none;stroke-linecap:round;stroke-linejoin:round;fill-opacity:1"
     id="g1325">
    <g
       id="path1321"
       style="fill:#000000;fill-opacity:1;stroke:none">
      <path
         style="color:#000000;fill-rule:evenodd;stroke:none;-inkscape-stroke:none;fill:#000000;fill-opacity:1"
         d="m 158652200,102750000 -95670,19030 -81110,54190 -54190,81110 -19030,95670 v 700000 l 19030,95670 54190,81110 81110,54190 95670,19030 h 900000 l 95670,-19030 81110,-54190 54190,-81110 19030,-95670 v -700000 l -19030,-95670 -54190,-81110 -81110,-54190 -95670,-19030 z"
         id="path8090" />
      <path
         style="color:#000000;fill-rule:evenodd;stroke:none;-inkscape-stroke:none;fill:#000000;fill-opacity:1"
         d="m 158652200,102750000 a 0.50005,0.50005 0 0 0 0,0 l -95670,19030 a 0.50005,0.50005 0 0 0 0,0 l -81110,54190 a 0.50005,0.50005 0 0 0 0,0 l -54190,81110 a 0.50005,0.50005 0 0 0 0,0 l -19030,95670 a 0.50005,0.50005 0 0 0 0,0 v 700000 a 0.50005,0.50005 0 0 0 0,0 l 19030,95670 a 0.50005,0.50005 0 0 0 0,0 l 54190,81110 a 0.50005,0.50005 0 0 0 0,0 l 81110,54190 a 0.50005,0.50005 0 0 0 0,0 l 95670,19030 a 0.50005,0.50005 0 0 0 0,0 h 900000 a 0.50005,0.50005 0 0 0 0,0 l 95670,-19030 a 0.50005,0.50005 0 0 0 0,0 l 81110,-54190 a 0.50005,0.50005 0 0 0 0,0 l 54190,-81110 a 0.50005,0.50005 0 0 0 0,0 l 19030,-95670 a 0.50005,0.50005 0 0 0 0,0 v -700000 a 0.50005,0.50005 0 0 0 0,0 l -19030,-95670 a 0.50005,0.50005 0 0 0 0,0 l -54190,-81110 a 0.50005,0.50005 0 0 0 0,0 l -81110,-54190 a 0.50005,0.50005 0 0 0 0,0 l -95670,-19030 a 0.50005,0.50005 0 0 0 0,0 z m 0,0 h 900000 l 95670,19030 81110,54190 54190,81110 19030,95670 v 700000 l -19030,95670 -54190,81110 -81110,54190 -95670,19030 h -900000 l -95670,-19030 -81110,-54190 -54190,-81110 -19030,-95670 v -700000 l 19030,-95670 54190,-81110 81110,-54190 z"
         id="path8092" />
    </g>
    <g
       id="path1323"
       style="fill:#000000;fill-opacity:1;stroke:none">
      <path
         style="color:#000000;fill-rule:evenodd;stroke:none;-inkscape-stroke:none;fill:#000000;fill-opacity:1"
         d="m 158652200,104750000 -95670,19030 -81110,54190 -54190,81110 -19030,95670 v 700000 l 19030,95670 54190,81110 81110,54190 95670,19030 h 900000 l 95670,-19030 81110,-54190 54190,-81110 19030,-95670 v -700000 l -19030,-95670 -54190,-81110 -81110,-54190 -95670,-19030 z"
         id="path8096" />
      <path
         style="color:#000000;fill-rule:evenodd;stroke:none;-inkscape-stroke:none;fill:#000000;fill-opacity:1"
         d="m 158652200,104750000 a 0.50005,0.50005 0 0 0 0,0 l -95670,19030 a 0.50005,0.50005 0 0 0 0,0 l -81110,54190 a 0.50005,0.50005 0 0 0 0,0 l -54190,81110 a 0.50005,0.50005 0 0 0 0,0 l -19030,95670 a 0.50005,0.50005 0 0 0 0,0 v 700000 a 0.50005,0.50005 0 0 0 0,0 l 19030,95670 a 0.50005,0.50005 0 0 0 0,0 l 54190,81110 a 0.50005,0.50005 0 0 0 0,0 l 81110,54190 a 0.50005,0.50005 0 0 0 0,0 l 95670,19030 a 0.50005,0.50005 0 0 0 0,0 h 900000 a 0.50005,0.50005 0 0 0 0,0 l 95670,-19030 a 0.50005,0.50005 0 0 0 0,0 l 81110,-54190 a 0.50005,0.50005 0 0 0 0,0 l 54190,-81110 a 0.50005,0.50005 0 0 0 0,0 l 19030,-95670 a 0.50005,0.50005 0 0 0 0,0 v -700000 a 0.50005,0.50005 0 0 0 0,0 l -19030,-95670 a 0.50005,0.50005 0 0 0 0,0 l -54190,-81110 a 0.50005,0.50005 0 0 0 0,0 l -81110,-54190 a 0.50005,0.50005 0 0 0 0,0 l -95670,-19030 a 0.50005,0.50005 0 0 0 0,0 z m 0,0 h 900000 l 95670,19030 81110,54190 54190,81110 19030,95670 v 700000 l -19030,95670 -54190,81110 -81110,54190 -95670,19030 h -900000 l -95670,-19030 -81110,-54190 -54190,-81110 -19030,-95670 v -700000 l 19030,-95670 54190,-81110 81110,-54190 z"
         id="path8098" />
    </g>
  </g>
  <g
     id="g1327"
     style="fill:#000000;fill-opacity:1;stroke:none;stroke-width:100000;stroke-linecap:round;stroke-linejoin:round;stroke-opacity:1" />
  <g
     id="g1329"
     style="fill:#000000;fill-opacity:1;stroke:none;stroke-width:100000;stroke-linecap:round;stroke-linejoin:round;stroke-opacity:1" />
  <g
     id="g1331"
     style="fill:#000000;fill-opacity:1;stroke:none;stroke-width:100000;stroke-linecap:round;stroke-linejoin:round;stroke-opacity:1" />
</svg>
